<?xml version="1.0" encoding="utf-8" standalone="no"?>
<!DOCTYPE svg PUBLIC "-//W3C//DTD SVG 1.1//EN"
  "http://www.w3.org/Graphics/SVG/1.1/DTD/svg11.dtd">
<svg xmlns:xlink="http://www.w3.org/1999/xlink" width="2592pt" height="540pt" viewBox="0 0 2592 540" xmlns="http://www.w3.org/2000/svg" version="1.1">
 <metadata>
  <rdf:RDF xmlns:dc="http://purl.org/dc/elements/1.1/" xmlns:cc="http://creativecommons.org/ns#" xmlns:rdf="http://www.w3.org/1999/02/22-rdf-syntax-ns#">
   <cc:Work>
    <dc:type rdf:resource="http://purl.org/dc/dcmitype/StillImage"/>
    <dc:date>2022-04-03T17:10:32.528830</dc:date>
    <dc:format>image/svg+xml</dc:format>
    <dc:creator>
     <cc:Agent>
      <dc:title>Matplotlib v3.5.1, https://matplotlib.org/</dc:title>
     </cc:Agent>
    </dc:creator>
   </cc:Work>
  </rdf:RDF>
 </metadata>
 <defs>
  <style type="text/css">*{stroke-linejoin: round; stroke-linecap: butt}</style>
 </defs>
 <g id="figure_1">
  <g id="patch_1">
   <path d="M 0 540 
L 2592 540 
L 2592 0 
L 0 0 
z
" style="fill: #ffffff"/>
  </g>
  <g id="axes_1">
   <g id="patch_2">
    <path d="M 324 472.5 
L 2332.8 472.5 
L 2332.8 64.8 
L 324 64.8 
z
" style="fill: #eaeaf2"/>
   </g>
   <g id="matplotlib.axis_1">
    <g id="xtick_1">
     <g id="line2d_1">
      <path d="M 415.309091 472.5 
L 415.309091 64.8 
" clip-path="url(#p0071cbf721)" style="fill: none; stroke: #ffffff; stroke-linecap: round"/>
     </g>
     <g id="text_1">
      <!-- 1984 -->
      <g style="fill: #262626" transform="translate(401.18168 507.126815)rotate(-60)scale(0.11 -0.11)">
       <defs>
        <path id="ArialMT-31" d="M 2384 0 
L 1822 0 
L 1822 3584 
Q 1619 3391 1289 3197 
Q 959 3003 697 2906 
L 697 3450 
Q 1169 3672 1522 3987 
Q 1875 4303 2022 4600 
L 2384 4600 
L 2384 0 
z
" transform="scale(0.015625)"/>
        <path id="ArialMT-39" d="M 350 1059 
L 891 1109 
Q 959 728 1153 556 
Q 1347 384 1650 384 
Q 1909 384 2104 503 
Q 2300 622 2425 820 
Q 2550 1019 2634 1356 
Q 2719 1694 2719 2044 
Q 2719 2081 2716 2156 
Q 2547 1888 2255 1720 
Q 1963 1553 1622 1553 
Q 1053 1553 659 1965 
Q 266 2378 266 3053 
Q 266 3750 677 4175 
Q 1088 4600 1706 4600 
Q 2153 4600 2523 4359 
Q 2894 4119 3086 3673 
Q 3278 3228 3278 2384 
Q 3278 1506 3087 986 
Q 2897 466 2520 194 
Q 2144 -78 1638 -78 
Q 1100 -78 759 220 
Q 419 519 350 1059 
z
M 2653 3081 
Q 2653 3566 2395 3850 
Q 2138 4134 1775 4134 
Q 1400 4134 1122 3828 
Q 844 3522 844 3034 
Q 844 2597 1108 2323 
Q 1372 2050 1759 2050 
Q 2150 2050 2401 2323 
Q 2653 2597 2653 3081 
z
" transform="scale(0.015625)"/>
        <path id="ArialMT-38" d="M 1131 2484 
Q 781 2613 612 2850 
Q 444 3088 444 3419 
Q 444 3919 803 4259 
Q 1163 4600 1759 4600 
Q 2359 4600 2725 4251 
Q 3091 3903 3091 3403 
Q 3091 3084 2923 2848 
Q 2756 2613 2416 2484 
Q 2838 2347 3058 2040 
Q 3278 1734 3278 1309 
Q 3278 722 2862 322 
Q 2447 -78 1769 -78 
Q 1091 -78 675 323 
Q 259 725 259 1325 
Q 259 1772 486 2073 
Q 713 2375 1131 2484 
z
M 1019 3438 
Q 1019 3113 1228 2906 
Q 1438 2700 1772 2700 
Q 2097 2700 2305 2904 
Q 2513 3109 2513 3406 
Q 2513 3716 2298 3927 
Q 2084 4138 1766 4138 
Q 1444 4138 1231 3931 
Q 1019 3725 1019 3438 
z
M 838 1322 
Q 838 1081 952 856 
Q 1066 631 1291 507 
Q 1516 384 1775 384 
Q 2178 384 2440 643 
Q 2703 903 2703 1303 
Q 2703 1709 2433 1975 
Q 2163 2241 1756 2241 
Q 1359 2241 1098 1978 
Q 838 1716 838 1322 
z
" transform="scale(0.015625)"/>
        <path id="ArialMT-34" d="M 2069 0 
L 2069 1097 
L 81 1097 
L 81 1613 
L 2172 4581 
L 2631 4581 
L 2631 1613 
L 3250 1613 
L 3250 1097 
L 2631 1097 
L 2631 0 
L 2069 0 
z
M 2069 1613 
L 2069 3678 
L 634 1613 
L 2069 1613 
z
" transform="scale(0.015625)"/>
       </defs>
       <use xlink:href="#ArialMT-31"/>
       <use xlink:href="#ArialMT-39" x="55.615234"/>
       <use xlink:href="#ArialMT-38" x="111.230469"/>
       <use xlink:href="#ArialMT-34" x="166.845703"/>
      </g>
     </g>
    </g>
    <g id="xtick_2">
     <g id="line2d_2">
      <path d="M 467.485714 472.5 
L 467.485714 64.8 
" clip-path="url(#p0071cbf721)" style="fill: none; stroke: #ffffff; stroke-linecap: round"/>
     </g>
     <g id="text_2">
      <!-- 1985 -->
      <g style="fill: #262626" transform="translate(453.358304 507.126815)rotate(-60)scale(0.11 -0.11)">
       <defs>
        <path id="ArialMT-35" d="M 266 1200 
L 856 1250 
Q 922 819 1161 601 
Q 1400 384 1738 384 
Q 2144 384 2425 690 
Q 2706 997 2706 1503 
Q 2706 1984 2436 2262 
Q 2166 2541 1728 2541 
Q 1456 2541 1237 2417 
Q 1019 2294 894 2097 
L 366 2166 
L 809 4519 
L 3088 4519 
L 3088 3981 
L 1259 3981 
L 1013 2750 
Q 1425 3038 1878 3038 
Q 2478 3038 2890 2622 
Q 3303 2206 3303 1553 
Q 3303 931 2941 478 
Q 2500 -78 1738 -78 
Q 1113 -78 717 272 
Q 322 622 266 1200 
z
" transform="scale(0.015625)"/>
       </defs>
       <use xlink:href="#ArialMT-31"/>
       <use xlink:href="#ArialMT-39" x="55.615234"/>
       <use xlink:href="#ArialMT-38" x="111.230469"/>
       <use xlink:href="#ArialMT-35" x="166.845703"/>
      </g>
     </g>
    </g>
    <g id="xtick_3">
     <g id="line2d_3">
      <path d="M 519.662338 472.5 
L 519.662338 64.8 
" clip-path="url(#p0071cbf721)" style="fill: none; stroke: #ffffff; stroke-linecap: round"/>
     </g>
     <g id="text_3">
      <!-- 1986 -->
      <g style="fill: #262626" transform="translate(505.534927 507.126815)rotate(-60)scale(0.11 -0.11)">
       <defs>
        <path id="ArialMT-36" d="M 3184 3459 
L 2625 3416 
Q 2550 3747 2413 3897 
Q 2184 4138 1850 4138 
Q 1581 4138 1378 3988 
Q 1113 3794 959 3422 
Q 806 3050 800 2363 
Q 1003 2672 1297 2822 
Q 1591 2972 1913 2972 
Q 2475 2972 2870 2558 
Q 3266 2144 3266 1488 
Q 3266 1056 3080 686 
Q 2894 316 2569 119 
Q 2244 -78 1831 -78 
Q 1128 -78 684 439 
Q 241 956 241 2144 
Q 241 3472 731 4075 
Q 1159 4600 1884 4600 
Q 2425 4600 2770 4297 
Q 3116 3994 3184 3459 
z
M 888 1484 
Q 888 1194 1011 928 
Q 1134 663 1356 523 
Q 1578 384 1822 384 
Q 2178 384 2434 671 
Q 2691 959 2691 1453 
Q 2691 1928 2437 2201 
Q 2184 2475 1800 2475 
Q 1419 2475 1153 2201 
Q 888 1928 888 1484 
z
" transform="scale(0.015625)"/>
       </defs>
       <use xlink:href="#ArialMT-31"/>
       <use xlink:href="#ArialMT-39" x="55.615234"/>
       <use xlink:href="#ArialMT-38" x="111.230469"/>
       <use xlink:href="#ArialMT-36" x="166.845703"/>
      </g>
     </g>
    </g>
    <g id="xtick_4">
     <g id="line2d_4">
      <path d="M 571.838961 472.5 
L 571.838961 64.8 
" clip-path="url(#p0071cbf721)" style="fill: none; stroke: #ffffff; stroke-linecap: round"/>
     </g>
     <g id="text_4">
      <!-- 1987 -->
      <g style="fill: #262626" transform="translate(557.71155 507.126815)rotate(-60)scale(0.11 -0.11)">
       <defs>
        <path id="ArialMT-37" d="M 303 3981 
L 303 4522 
L 3269 4522 
L 3269 4084 
Q 2831 3619 2401 2847 
Q 1972 2075 1738 1259 
Q 1569 684 1522 0 
L 944 0 
Q 953 541 1156 1306 
Q 1359 2072 1739 2783 
Q 2119 3494 2547 3981 
L 303 3981 
z
" transform="scale(0.015625)"/>
       </defs>
       <use xlink:href="#ArialMT-31"/>
       <use xlink:href="#ArialMT-39" x="55.615234"/>
       <use xlink:href="#ArialMT-38" x="111.230469"/>
       <use xlink:href="#ArialMT-37" x="166.845703"/>
      </g>
     </g>
    </g>
    <g id="xtick_5">
     <g id="line2d_5">
      <path d="M 624.015584 472.5 
L 624.015584 64.8 
" clip-path="url(#p0071cbf721)" style="fill: none; stroke: #ffffff; stroke-linecap: round"/>
     </g>
     <g id="text_5">
      <!-- 1988 -->
      <g style="fill: #262626" transform="translate(609.888174 507.126815)rotate(-60)scale(0.11 -0.11)">
       <use xlink:href="#ArialMT-31"/>
       <use xlink:href="#ArialMT-39" x="55.615234"/>
       <use xlink:href="#ArialMT-38" x="111.230469"/>
       <use xlink:href="#ArialMT-38" x="166.845703"/>
      </g>
     </g>
    </g>
    <g id="xtick_6">
     <g id="line2d_6">
      <path d="M 676.192208 472.5 
L 676.192208 64.8 
" clip-path="url(#p0071cbf721)" style="fill: none; stroke: #ffffff; stroke-linecap: round"/>
     </g>
     <g id="text_6">
      <!-- 1989 -->
      <g style="fill: #262626" transform="translate(662.064797 507.126815)rotate(-60)scale(0.11 -0.11)">
       <use xlink:href="#ArialMT-31"/>
       <use xlink:href="#ArialMT-39" x="55.615234"/>
       <use xlink:href="#ArialMT-38" x="111.230469"/>
       <use xlink:href="#ArialMT-39" x="166.845703"/>
      </g>
     </g>
    </g>
    <g id="xtick_7">
     <g id="line2d_7">
      <path d="M 728.368831 472.5 
L 728.368831 64.8 
" clip-path="url(#p0071cbf721)" style="fill: none; stroke: #ffffff; stroke-linecap: round"/>
     </g>
     <g id="text_7">
      <!-- 1990 -->
      <g style="fill: #262626" transform="translate(714.241421 507.126815)rotate(-60)scale(0.11 -0.11)">
       <defs>
        <path id="ArialMT-30" d="M 266 2259 
Q 266 3072 433 3567 
Q 600 4063 929 4331 
Q 1259 4600 1759 4600 
Q 2128 4600 2406 4451 
Q 2684 4303 2865 4023 
Q 3047 3744 3150 3342 
Q 3253 2941 3253 2259 
Q 3253 1453 3087 958 
Q 2922 463 2592 192 
Q 2263 -78 1759 -78 
Q 1097 -78 719 397 
Q 266 969 266 2259 
z
M 844 2259 
Q 844 1131 1108 757 
Q 1372 384 1759 384 
Q 2147 384 2411 759 
Q 2675 1134 2675 2259 
Q 2675 3391 2411 3762 
Q 2147 4134 1753 4134 
Q 1366 4134 1134 3806 
Q 844 3388 844 2259 
z
" transform="scale(0.015625)"/>
       </defs>
       <use xlink:href="#ArialMT-31"/>
       <use xlink:href="#ArialMT-39" x="55.615234"/>
       <use xlink:href="#ArialMT-39" x="111.230469"/>
       <use xlink:href="#ArialMT-30" x="166.845703"/>
      </g>
     </g>
    </g>
    <g id="xtick_8">
     <g id="line2d_8">
      <path d="M 780.545455 472.5 
L 780.545455 64.8 
" clip-path="url(#p0071cbf721)" style="fill: none; stroke: #ffffff; stroke-linecap: round"/>
     </g>
     <g id="text_8">
      <!-- 1991 -->
      <g style="fill: #262626" transform="translate(766.418044 507.126815)rotate(-60)scale(0.11 -0.11)">
       <use xlink:href="#ArialMT-31"/>
       <use xlink:href="#ArialMT-39" x="55.615234"/>
       <use xlink:href="#ArialMT-39" x="111.230469"/>
       <use xlink:href="#ArialMT-31" x="166.845703"/>
      </g>
     </g>
    </g>
    <g id="xtick_9">
     <g id="line2d_9">
      <path d="M 832.722078 472.5 
L 832.722078 64.8 
" clip-path="url(#p0071cbf721)" style="fill: none; stroke: #ffffff; stroke-linecap: round"/>
     </g>
     <g id="text_9">
      <!-- 1992 -->
      <g style="fill: #262626" transform="translate(818.594667 507.126815)rotate(-60)scale(0.11 -0.11)">
       <defs>
        <path id="ArialMT-32" d="M 3222 541 
L 3222 0 
L 194 0 
Q 188 203 259 391 
Q 375 700 629 1000 
Q 884 1300 1366 1694 
Q 2113 2306 2375 2664 
Q 2638 3022 2638 3341 
Q 2638 3675 2398 3904 
Q 2159 4134 1775 4134 
Q 1369 4134 1125 3890 
Q 881 3647 878 3216 
L 300 3275 
Q 359 3922 746 4261 
Q 1134 4600 1788 4600 
Q 2447 4600 2831 4234 
Q 3216 3869 3216 3328 
Q 3216 3053 3103 2787 
Q 2991 2522 2730 2228 
Q 2469 1934 1863 1422 
Q 1356 997 1212 845 
Q 1069 694 975 541 
L 3222 541 
z
" transform="scale(0.015625)"/>
       </defs>
       <use xlink:href="#ArialMT-31"/>
       <use xlink:href="#ArialMT-39" x="55.615234"/>
       <use xlink:href="#ArialMT-39" x="111.230469"/>
       <use xlink:href="#ArialMT-32" x="166.845703"/>
      </g>
     </g>
    </g>
    <g id="xtick_10">
     <g id="line2d_10">
      <path d="M 884.898701 472.5 
L 884.898701 64.8 
" clip-path="url(#p0071cbf721)" style="fill: none; stroke: #ffffff; stroke-linecap: round"/>
     </g>
     <g id="text_10">
      <!-- 1993 -->
      <g style="fill: #262626" transform="translate(870.771291 507.126815)rotate(-60)scale(0.11 -0.11)">
       <defs>
        <path id="ArialMT-33" d="M 269 1209 
L 831 1284 
Q 928 806 1161 595 
Q 1394 384 1728 384 
Q 2125 384 2398 659 
Q 2672 934 2672 1341 
Q 2672 1728 2419 1979 
Q 2166 2231 1775 2231 
Q 1616 2231 1378 2169 
L 1441 2663 
Q 1497 2656 1531 2656 
Q 1891 2656 2178 2843 
Q 2466 3031 2466 3422 
Q 2466 3731 2256 3934 
Q 2047 4138 1716 4138 
Q 1388 4138 1169 3931 
Q 950 3725 888 3313 
L 325 3413 
Q 428 3978 793 4289 
Q 1159 4600 1703 4600 
Q 2078 4600 2393 4439 
Q 2709 4278 2876 4000 
Q 3044 3722 3044 3409 
Q 3044 3113 2884 2869 
Q 2725 2625 2413 2481 
Q 2819 2388 3044 2092 
Q 3269 1797 3269 1353 
Q 3269 753 2831 336 
Q 2394 -81 1725 -81 
Q 1122 -81 723 278 
Q 325 638 269 1209 
z
" transform="scale(0.015625)"/>
       </defs>
       <use xlink:href="#ArialMT-31"/>
       <use xlink:href="#ArialMT-39" x="55.615234"/>
       <use xlink:href="#ArialMT-39" x="111.230469"/>
       <use xlink:href="#ArialMT-33" x="166.845703"/>
      </g>
     </g>
    </g>
    <g id="xtick_11">
     <g id="line2d_11">
      <path d="M 937.075325 472.5 
L 937.075325 64.8 
" clip-path="url(#p0071cbf721)" style="fill: none; stroke: #ffffff; stroke-linecap: round"/>
     </g>
     <g id="text_11">
      <!-- 1994 -->
      <g style="fill: #262626" transform="translate(922.947914 507.126815)rotate(-60)scale(0.11 -0.11)">
       <use xlink:href="#ArialMT-31"/>
       <use xlink:href="#ArialMT-39" x="55.615234"/>
       <use xlink:href="#ArialMT-39" x="111.230469"/>
       <use xlink:href="#ArialMT-34" x="166.845703"/>
      </g>
     </g>
    </g>
    <g id="xtick_12">
     <g id="line2d_12">
      <path d="M 989.251948 472.5 
L 989.251948 64.8 
" clip-path="url(#p0071cbf721)" style="fill: none; stroke: #ffffff; stroke-linecap: round"/>
     </g>
     <g id="text_12">
      <!-- 1995 -->
      <g style="fill: #262626" transform="translate(975.124538 507.126815)rotate(-60)scale(0.11 -0.11)">
       <use xlink:href="#ArialMT-31"/>
       <use xlink:href="#ArialMT-39" x="55.615234"/>
       <use xlink:href="#ArialMT-39" x="111.230469"/>
       <use xlink:href="#ArialMT-35" x="166.845703"/>
      </g>
     </g>
    </g>
    <g id="xtick_13">
     <g id="line2d_13">
      <path d="M 1041.428571 472.5 
L 1041.428571 64.8 
" clip-path="url(#p0071cbf721)" style="fill: none; stroke: #ffffff; stroke-linecap: round"/>
     </g>
     <g id="text_13">
      <!-- 1996 -->
      <g style="fill: #262626" transform="translate(1027.301161 507.126815)rotate(-60)scale(0.11 -0.11)">
       <use xlink:href="#ArialMT-31"/>
       <use xlink:href="#ArialMT-39" x="55.615234"/>
       <use xlink:href="#ArialMT-39" x="111.230469"/>
       <use xlink:href="#ArialMT-36" x="166.845703"/>
      </g>
     </g>
    </g>
    <g id="xtick_14">
     <g id="line2d_14">
      <path d="M 1093.605195 472.5 
L 1093.605195 64.8 
" clip-path="url(#p0071cbf721)" style="fill: none; stroke: #ffffff; stroke-linecap: round"/>
     </g>
     <g id="text_14">
      <!-- 1997 -->
      <g style="fill: #262626" transform="translate(1079.477784 507.126815)rotate(-60)scale(0.11 -0.11)">
       <use xlink:href="#ArialMT-31"/>
       <use xlink:href="#ArialMT-39" x="55.615234"/>
       <use xlink:href="#ArialMT-39" x="111.230469"/>
       <use xlink:href="#ArialMT-37" x="166.845703"/>
      </g>
     </g>
    </g>
    <g id="xtick_15">
     <g id="line2d_15">
      <path d="M 1145.781818 472.5 
L 1145.781818 64.8 
" clip-path="url(#p0071cbf721)" style="fill: none; stroke: #ffffff; stroke-linecap: round"/>
     </g>
     <g id="text_15">
      <!-- 1998 -->
      <g style="fill: #262626" transform="translate(1131.654408 507.126815)rotate(-60)scale(0.11 -0.11)">
       <use xlink:href="#ArialMT-31"/>
       <use xlink:href="#ArialMT-39" x="55.615234"/>
       <use xlink:href="#ArialMT-39" x="111.230469"/>
       <use xlink:href="#ArialMT-38" x="166.845703"/>
      </g>
     </g>
    </g>
    <g id="xtick_16">
     <g id="line2d_16">
      <path d="M 1197.958442 472.5 
L 1197.958442 64.8 
" clip-path="url(#p0071cbf721)" style="fill: none; stroke: #ffffff; stroke-linecap: round"/>
     </g>
     <g id="text_16">
      <!-- 1999 -->
      <g style="fill: #262626" transform="translate(1183.831031 507.126815)rotate(-60)scale(0.11 -0.11)">
       <use xlink:href="#ArialMT-31"/>
       <use xlink:href="#ArialMT-39" x="55.615234"/>
       <use xlink:href="#ArialMT-39" x="111.230469"/>
       <use xlink:href="#ArialMT-39" x="166.845703"/>
      </g>
     </g>
    </g>
    <g id="xtick_17">
     <g id="line2d_17">
      <path d="M 1250.135065 472.5 
L 1250.135065 64.8 
" clip-path="url(#p0071cbf721)" style="fill: none; stroke: #ffffff; stroke-linecap: round"/>
     </g>
     <g id="text_17">
      <!-- 2000 -->
      <g style="fill: #262626" transform="translate(1236.007654 507.126815)rotate(-60)scale(0.11 -0.11)">
       <use xlink:href="#ArialMT-32"/>
       <use xlink:href="#ArialMT-30" x="55.615234"/>
       <use xlink:href="#ArialMT-30" x="111.230469"/>
       <use xlink:href="#ArialMT-30" x="166.845703"/>
      </g>
     </g>
    </g>
    <g id="xtick_18">
     <g id="line2d_18">
      <path d="M 1302.311688 472.5 
L 1302.311688 64.8 
" clip-path="url(#p0071cbf721)" style="fill: none; stroke: #ffffff; stroke-linecap: round"/>
     </g>
     <g id="text_18">
      <!-- 2001 -->
      <g style="fill: #262626" transform="translate(1288.184278 507.126815)rotate(-60)scale(0.11 -0.11)">
       <use xlink:href="#ArialMT-32"/>
       <use xlink:href="#ArialMT-30" x="55.615234"/>
       <use xlink:href="#ArialMT-30" x="111.230469"/>
       <use xlink:href="#ArialMT-31" x="166.845703"/>
      </g>
     </g>
    </g>
    <g id="xtick_19">
     <g id="line2d_19">
      <path d="M 1354.488312 472.5 
L 1354.488312 64.8 
" clip-path="url(#p0071cbf721)" style="fill: none; stroke: #ffffff; stroke-linecap: round"/>
     </g>
     <g id="text_19">
      <!-- 2002 -->
      <g style="fill: #262626" transform="translate(1340.360901 507.126815)rotate(-60)scale(0.11 -0.11)">
       <use xlink:href="#ArialMT-32"/>
       <use xlink:href="#ArialMT-30" x="55.615234"/>
       <use xlink:href="#ArialMT-30" x="111.230469"/>
       <use xlink:href="#ArialMT-32" x="166.845703"/>
      </g>
     </g>
    </g>
    <g id="xtick_20">
     <g id="line2d_20">
      <path d="M 1406.664935 472.5 
L 1406.664935 64.8 
" clip-path="url(#p0071cbf721)" style="fill: none; stroke: #ffffff; stroke-linecap: round"/>
     </g>
     <g id="text_20">
      <!-- 2003 -->
      <g style="fill: #262626" transform="translate(1392.537525 507.126815)rotate(-60)scale(0.11 -0.11)">
       <use xlink:href="#ArialMT-32"/>
       <use xlink:href="#ArialMT-30" x="55.615234"/>
       <use xlink:href="#ArialMT-30" x="111.230469"/>
       <use xlink:href="#ArialMT-33" x="166.845703"/>
      </g>
     </g>
    </g>
    <g id="xtick_21">
     <g id="line2d_21">
      <path d="M 1458.841558 472.5 
L 1458.841558 64.8 
" clip-path="url(#p0071cbf721)" style="fill: none; stroke: #ffffff; stroke-linecap: round"/>
     </g>
     <g id="text_21">
      <!-- 2004 -->
      <g style="fill: #262626" transform="translate(1444.714148 507.126815)rotate(-60)scale(0.11 -0.11)">
       <use xlink:href="#ArialMT-32"/>
       <use xlink:href="#ArialMT-30" x="55.615234"/>
       <use xlink:href="#ArialMT-30" x="111.230469"/>
       <use xlink:href="#ArialMT-34" x="166.845703"/>
      </g>
     </g>
    </g>
    <g id="xtick_22">
     <g id="line2d_22">
      <path d="M 1511.018182 472.5 
L 1511.018182 64.8 
" clip-path="url(#p0071cbf721)" style="fill: none; stroke: #ffffff; stroke-linecap: round"/>
     </g>
     <g id="text_22">
      <!-- 2005 -->
      <g style="fill: #262626" transform="translate(1496.890771 507.126815)rotate(-60)scale(0.11 -0.11)">
       <use xlink:href="#ArialMT-32"/>
       <use xlink:href="#ArialMT-30" x="55.615234"/>
       <use xlink:href="#ArialMT-30" x="111.230469"/>
       <use xlink:href="#ArialMT-35" x="166.845703"/>
      </g>
     </g>
    </g>
    <g id="xtick_23">
     <g id="line2d_23">
      <path d="M 1563.194805 472.5 
L 1563.194805 64.8 
" clip-path="url(#p0071cbf721)" style="fill: none; stroke: #ffffff; stroke-linecap: round"/>
     </g>
     <g id="text_23">
      <!-- 2006 -->
      <g style="fill: #262626" transform="translate(1549.067395 507.126815)rotate(-60)scale(0.11 -0.11)">
       <use xlink:href="#ArialMT-32"/>
       <use xlink:href="#ArialMT-30" x="55.615234"/>
       <use xlink:href="#ArialMT-30" x="111.230469"/>
       <use xlink:href="#ArialMT-36" x="166.845703"/>
      </g>
     </g>
    </g>
    <g id="xtick_24">
     <g id="line2d_24">
      <path d="M 1615.371429 472.5 
L 1615.371429 64.8 
" clip-path="url(#p0071cbf721)" style="fill: none; stroke: #ffffff; stroke-linecap: round"/>
     </g>
     <g id="text_24">
      <!-- 2007 -->
      <g style="fill: #262626" transform="translate(1601.244018 507.126815)rotate(-60)scale(0.11 -0.11)">
       <use xlink:href="#ArialMT-32"/>
       <use xlink:href="#ArialMT-30" x="55.615234"/>
       <use xlink:href="#ArialMT-30" x="111.230469"/>
       <use xlink:href="#ArialMT-37" x="166.845703"/>
      </g>
     </g>
    </g>
    <g id="xtick_25">
     <g id="line2d_25">
      <path d="M 1667.548052 472.5 
L 1667.548052 64.8 
" clip-path="url(#p0071cbf721)" style="fill: none; stroke: #ffffff; stroke-linecap: round"/>
     </g>
     <g id="text_25">
      <!-- 2008 -->
      <g style="fill: #262626" transform="translate(1653.420641 507.126815)rotate(-60)scale(0.11 -0.11)">
       <use xlink:href="#ArialMT-32"/>
       <use xlink:href="#ArialMT-30" x="55.615234"/>
       <use xlink:href="#ArialMT-30" x="111.230469"/>
       <use xlink:href="#ArialMT-38" x="166.845703"/>
      </g>
     </g>
    </g>
    <g id="xtick_26">
     <g id="line2d_26">
      <path d="M 1719.724675 472.5 
L 1719.724675 64.8 
" clip-path="url(#p0071cbf721)" style="fill: none; stroke: #ffffff; stroke-linecap: round"/>
     </g>
     <g id="text_26">
      <!-- 2009 -->
      <g style="fill: #262626" transform="translate(1705.597265 507.126815)rotate(-60)scale(0.11 -0.11)">
       <use xlink:href="#ArialMT-32"/>
       <use xlink:href="#ArialMT-30" x="55.615234"/>
       <use xlink:href="#ArialMT-30" x="111.230469"/>
       <use xlink:href="#ArialMT-39" x="166.845703"/>
      </g>
     </g>
    </g>
    <g id="xtick_27">
     <g id="line2d_27">
      <path d="M 1771.901299 472.5 
L 1771.901299 64.8 
" clip-path="url(#p0071cbf721)" style="fill: none; stroke: #ffffff; stroke-linecap: round"/>
     </g>
     <g id="text_27">
      <!-- 2010 -->
      <g style="fill: #262626" transform="translate(1757.773888 507.126815)rotate(-60)scale(0.11 -0.11)">
       <use xlink:href="#ArialMT-32"/>
       <use xlink:href="#ArialMT-30" x="55.615234"/>
       <use xlink:href="#ArialMT-31" x="111.230469"/>
       <use xlink:href="#ArialMT-30" x="166.845703"/>
      </g>
     </g>
    </g>
    <g id="xtick_28">
     <g id="line2d_28">
      <path d="M 1824.077922 472.5 
L 1824.077922 64.8 
" clip-path="url(#p0071cbf721)" style="fill: none; stroke: #ffffff; stroke-linecap: round"/>
     </g>
     <g id="text_28">
      <!-- 2011 -->
      <g style="fill: #262626" transform="translate(1810.356137 506.424252)rotate(-60)scale(0.11 -0.11)">
       <use xlink:href="#ArialMT-32"/>
       <use xlink:href="#ArialMT-30" x="55.615234"/>
       <use xlink:href="#ArialMT-31" x="111.230469"/>
       <use xlink:href="#ArialMT-31" x="159.470703"/>
      </g>
     </g>
    </g>
    <g id="xtick_29">
     <g id="line2d_29">
      <path d="M 1876.254545 472.5 
L 1876.254545 64.8 
" clip-path="url(#p0071cbf721)" style="fill: none; stroke: #ffffff; stroke-linecap: round"/>
     </g>
     <g id="text_29">
      <!-- 2012 -->
      <g style="fill: #262626" transform="translate(1862.127135 507.126815)rotate(-60)scale(0.11 -0.11)">
       <use xlink:href="#ArialMT-32"/>
       <use xlink:href="#ArialMT-30" x="55.615234"/>
       <use xlink:href="#ArialMT-31" x="111.230469"/>
       <use xlink:href="#ArialMT-32" x="166.845703"/>
      </g>
     </g>
    </g>
    <g id="xtick_30">
     <g id="line2d_30">
      <path d="M 1928.431169 472.5 
L 1928.431169 64.8 
" clip-path="url(#p0071cbf721)" style="fill: none; stroke: #ffffff; stroke-linecap: round"/>
     </g>
     <g id="text_30">
      <!-- 2013 -->
      <g style="fill: #262626" transform="translate(1914.303758 507.126815)rotate(-60)scale(0.11 -0.11)">
       <use xlink:href="#ArialMT-32"/>
       <use xlink:href="#ArialMT-30" x="55.615234"/>
       <use xlink:href="#ArialMT-31" x="111.230469"/>
       <use xlink:href="#ArialMT-33" x="166.845703"/>
      </g>
     </g>
    </g>
    <g id="xtick_31">
     <g id="line2d_31">
      <path d="M 1980.607792 472.5 
L 1980.607792 64.8 
" clip-path="url(#p0071cbf721)" style="fill: none; stroke: #ffffff; stroke-linecap: round"/>
     </g>
     <g id="text_31">
      <!-- 2014 -->
      <g style="fill: #262626" transform="translate(1966.480382 507.126815)rotate(-60)scale(0.11 -0.11)">
       <use xlink:href="#ArialMT-32"/>
       <use xlink:href="#ArialMT-30" x="55.615234"/>
       <use xlink:href="#ArialMT-31" x="111.230469"/>
       <use xlink:href="#ArialMT-34" x="166.845703"/>
      </g>
     </g>
    </g>
    <g id="xtick_32">
     <g id="line2d_32">
      <path d="M 2032.784416 472.5 
L 2032.784416 64.8 
" clip-path="url(#p0071cbf721)" style="fill: none; stroke: #ffffff; stroke-linecap: round"/>
     </g>
     <g id="text_32">
      <!-- 2015 -->
      <g style="fill: #262626" transform="translate(2018.657005 507.126815)rotate(-60)scale(0.11 -0.11)">
       <use xlink:href="#ArialMT-32"/>
       <use xlink:href="#ArialMT-30" x="55.615234"/>
       <use xlink:href="#ArialMT-31" x="111.230469"/>
       <use xlink:href="#ArialMT-35" x="166.845703"/>
      </g>
     </g>
    </g>
    <g id="xtick_33">
     <g id="line2d_33">
      <path d="M 2084.961039 472.5 
L 2084.961039 64.8 
" clip-path="url(#p0071cbf721)" style="fill: none; stroke: #ffffff; stroke-linecap: round"/>
     </g>
     <g id="text_33">
      <!-- 2016 -->
      <g style="fill: #262626" transform="translate(2070.833628 507.126815)rotate(-60)scale(0.11 -0.11)">
       <use xlink:href="#ArialMT-32"/>
       <use xlink:href="#ArialMT-30" x="55.615234"/>
       <use xlink:href="#ArialMT-31" x="111.230469"/>
       <use xlink:href="#ArialMT-36" x="166.845703"/>
      </g>
     </g>
    </g>
    <g id="xtick_34">
     <g id="line2d_34">
      <path d="M 2137.137662 472.5 
L 2137.137662 64.8 
" clip-path="url(#p0071cbf721)" style="fill: none; stroke: #ffffff; stroke-linecap: round"/>
     </g>
     <g id="text_34">
      <!-- 2017 -->
      <g style="fill: #262626" transform="translate(2123.010252 507.126815)rotate(-60)scale(0.11 -0.11)">
       <use xlink:href="#ArialMT-32"/>
       <use xlink:href="#ArialMT-30" x="55.615234"/>
       <use xlink:href="#ArialMT-31" x="111.230469"/>
       <use xlink:href="#ArialMT-37" x="166.845703"/>
      </g>
     </g>
    </g>
    <g id="xtick_35">
     <g id="line2d_35">
      <path d="M 2189.314286 472.5 
L 2189.314286 64.8 
" clip-path="url(#p0071cbf721)" style="fill: none; stroke: #ffffff; stroke-linecap: round"/>
     </g>
     <g id="text_35">
      <!-- 2018 -->
      <g style="fill: #262626" transform="translate(2175.186875 507.126815)rotate(-60)scale(0.11 -0.11)">
       <use xlink:href="#ArialMT-32"/>
       <use xlink:href="#ArialMT-30" x="55.615234"/>
       <use xlink:href="#ArialMT-31" x="111.230469"/>
       <use xlink:href="#ArialMT-38" x="166.845703"/>
      </g>
     </g>
    </g>
    <g id="xtick_36">
     <g id="line2d_36">
      <path d="M 2241.490909 472.5 
L 2241.490909 64.8 
" clip-path="url(#p0071cbf721)" style="fill: none; stroke: #ffffff; stroke-linecap: round"/>
     </g>
     <g id="text_36">
      <!-- 2019 -->
      <g style="fill: #262626" transform="translate(2227.363499 507.126815)rotate(-60)scale(0.11 -0.11)">
       <use xlink:href="#ArialMT-32"/>
       <use xlink:href="#ArialMT-30" x="55.615234"/>
       <use xlink:href="#ArialMT-31" x="111.230469"/>
       <use xlink:href="#ArialMT-39" x="166.845703"/>
      </g>
     </g>
    </g>
   </g>
   <g id="matplotlib.axis_2">
    <g id="ytick_1">
     <g id="line2d_37">
      <path d="M 324 453.968182 
L 2332.8 453.968182 
" clip-path="url(#p0071cbf721)" style="fill: none; stroke: #ffffff; stroke-linecap: round"/>
     </g>
     <g id="text_37">
      <!-- 0 -->
      <g style="fill: #262626" transform="translate(308.382969 457.904979)scale(0.11 -0.11)">
       <use xlink:href="#ArialMT-30"/>
      </g>
     </g>
    </g>
    <g id="ytick_2">
     <g id="line2d_38">
      <path d="M 324 379.840909 
L 2332.8 379.840909 
" clip-path="url(#p0071cbf721)" style="fill: none; stroke: #ffffff; stroke-linecap: round"/>
     </g>
     <g id="text_38">
      <!-- 5 -->
      <g style="fill: #262626" transform="translate(308.382969 383.777706)scale(0.11 -0.11)">
       <use xlink:href="#ArialMT-35"/>
      </g>
     </g>
    </g>
    <g id="ytick_3">
     <g id="line2d_39">
      <path d="M 324 305.713636 
L 2332.8 305.713636 
" clip-path="url(#p0071cbf721)" style="fill: none; stroke: #ffffff; stroke-linecap: round"/>
     </g>
     <g id="text_39">
      <!-- 10 -->
      <g style="fill: #262626" transform="translate(302.265938 309.650433)scale(0.11 -0.11)">
       <use xlink:href="#ArialMT-31"/>
       <use xlink:href="#ArialMT-30" x="55.615234"/>
      </g>
     </g>
    </g>
    <g id="ytick_4">
     <g id="line2d_40">
      <path d="M 324 231.586364 
L 2332.8 231.586364 
" clip-path="url(#p0071cbf721)" style="fill: none; stroke: #ffffff; stroke-linecap: round"/>
     </g>
     <g id="text_40">
      <!-- 15 -->
      <g style="fill: #262626" transform="translate(302.265938 235.523161)scale(0.11 -0.11)">
       <use xlink:href="#ArialMT-31"/>
       <use xlink:href="#ArialMT-35" x="55.615234"/>
      </g>
     </g>
    </g>
    <g id="ytick_5">
     <g id="line2d_41">
      <path d="M 324 157.459091 
L 2332.8 157.459091 
" clip-path="url(#p0071cbf721)" style="fill: none; stroke: #ffffff; stroke-linecap: round"/>
     </g>
     <g id="text_41">
      <!-- 20 -->
      <g style="fill: #262626" transform="translate(302.265938 161.395888)scale(0.11 -0.11)">
       <use xlink:href="#ArialMT-32"/>
       <use xlink:href="#ArialMT-30" x="55.615234"/>
      </g>
     </g>
    </g>
    <g id="ytick_6">
     <g id="line2d_42">
      <path d="M 324 83.331818 
L 2332.8 83.331818 
" clip-path="url(#p0071cbf721)" style="fill: none; stroke: #ffffff; stroke-linecap: round"/>
     </g>
     <g id="text_42">
      <!-- 25 -->
      <g style="fill: #262626" transform="translate(302.265938 87.268615)scale(0.11 -0.11)">
       <use xlink:href="#ArialMT-32"/>
       <use xlink:href="#ArialMT-35" x="55.615234"/>
      </g>
     </g>
    </g>
   </g>
   <g id="line2d_43">
    <path d="M 415.309091 453.968182 
L 467.485714 453.968182 
L 519.662338 424.317273 
L 571.838961 453.968182 
L 624.015584 439.142727 
L 676.192208 453.968182 
L 728.368831 453.968182 
L 780.545455 394.666364 
L 832.722078 424.317273 
L 884.898701 409.491818 
L 937.075325 439.142727 
L 989.251948 439.142727 
L 1041.428571 365.015455 
L 1093.605195 305.713636 
L 1145.781818 409.491818 
L 1197.958442 394.666364 
L 1250.135065 453.968182 
L 1302.311688 453.968182 
L 1354.488312 439.142727 
L 1406.664935 394.666364 
L 1458.841558 439.142727 
L 1511.018182 409.491818 
L 1563.194805 394.666364 
L 1615.371429 379.840909 
L 1667.548052 424.317273 
L 1719.724675 424.317273 
L 1771.901299 409.491818 
L 1824.077922 439.142727 
L 1876.254545 439.142727 
L 1928.431169 453.968182 
L 1980.607792 439.142727 
L 2032.784416 424.317273 
L 2084.961039 424.317273 
L 2137.137662 453.968182 
L 2189.314286 350.19 
L 2241.490909 409.491818 
" clip-path="url(#p0071cbf721)" style="fill: none; stroke: #4c72b0; stroke-width: 1.5; stroke-linecap: round"/>
   </g>
   <g id="line2d_44">
    <path d="M 415.309091 439.142727 
L 467.485714 453.968182 
L 519.662338 453.968182 
L 571.838961 424.317273 
L 624.015584 453.968182 
L 676.192208 424.317273 
L 728.368831 453.968182 
L 780.545455 424.317273 
L 832.722078 439.142727 
L 884.898701 439.142727 
L 937.075325 453.968182 
L 989.251948 439.142727 
L 1041.428571 453.968182 
L 1093.605195 453.968182 
L 1145.781818 439.142727 
L 1197.958442 453.968182 
L 1250.135065 439.142727 
L 1302.311688 424.317273 
L 1354.488312 424.317273 
L 1406.664935 409.491818 
L 1458.841558 409.491818 
L 1511.018182 424.317273 
L 1563.194805 424.317273 
L 1615.371429 394.666364 
L 1667.548052 424.317273 
L 1719.724675 409.491818 
L 1771.901299 409.491818 
L 1824.077922 453.968182 
L 1876.254545 394.666364 
L 1928.431169 424.317273 
L 1980.607792 453.968182 
L 2032.784416 424.317273 
L 2084.961039 424.317273 
L 2137.137662 439.142727 
L 2189.314286 394.666364 
L 2241.490909 424.317273 
" clip-path="url(#p0071cbf721)" style="fill: none; stroke: #dd8452; stroke-width: 1.5; stroke-linecap: round"/>
   </g>
   <g id="line2d_45">
    <path d="M 415.309091 453.968182 
L 467.485714 453.968182 
L 519.662338 439.142727 
L 571.838961 424.317273 
L 624.015584 453.968182 
L 676.192208 350.19 
L 728.368831 424.317273 
L 780.545455 394.666364 
L 832.722078 394.666364 
L 884.898701 394.666364 
L 937.075325 409.491818 
L 989.251948 276.062727 
L 1041.428571 216.760909 
L 1093.605195 127.808182 
L 1145.781818 172.284545 
L 1197.958442 290.888182 
L 1250.135065 379.840909 
L 1302.311688 201.935455 
L 1354.488312 350.19 
L 1406.664935 201.935455 
L 1458.841558 276.062727 
L 1511.018182 350.19 
L 1563.194805 320.539091 
L 1615.371429 246.411818 
L 1667.548052 261.237273 
L 1719.724675 290.888182 
L 1771.901299 365.015455 
L 1824.077922 320.539091 
L 1876.254545 379.840909 
L 1928.431169 350.19 
L 1980.607792 379.840909 
L 2032.784416 379.840909 
L 2084.961039 409.491818 
L 2137.137662 335.364545 
L 2189.314286 83.331818 
L 2241.490909 424.317273 
" clip-path="url(#p0071cbf721)" style="fill: none; stroke: #55a868; stroke-width: 1.5; stroke-linecap: round"/>
   </g>
   <g id="line2d_46">
    <path d="M 415.309091 453.968182 
L 467.485714 439.142727 
L 519.662338 409.491818 
L 571.838961 409.491818 
L 624.015584 365.015455 
L 676.192208 365.015455 
L 728.368831 424.317273 
L 780.545455 409.491818 
L 832.722078 453.968182 
L 884.898701 453.968182 
L 937.075325 409.491818 
L 989.251948 409.491818 
L 1041.428571 305.713636 
L 1093.605195 187.11 
L 1145.781818 216.760909 
L 1197.958442 350.19 
L 1250.135065 394.666364 
L 1302.311688 320.539091 
L 1354.488312 320.539091 
L 1406.664935 379.840909 
L 1458.841558 320.539091 
L 1511.018182 409.491818 
L 1563.194805 320.539091 
L 1615.371429 379.840909 
L 1667.548052 320.539091 
L 1719.724675 350.19 
L 1771.901299 365.015455 
L 1824.077922 424.317273 
L 1876.254545 394.666364 
L 1928.431169 365.015455 
L 1980.607792 424.317273 
L 2032.784416 394.666364 
L 2084.961039 394.666364 
L 2137.137662 320.539091 
L 2189.314286 290.888182 
L 2241.490909 424.317273 
" clip-path="url(#p0071cbf721)" style="fill: none; stroke: #c44e52; stroke-width: 1.5; stroke-linecap: round"/>
   </g>
   <g id="line2d_47">
    <path d="M 415.309091 453.968182 
L 467.485714 453.968182 
L 519.662338 453.968182 
L 571.838961 453.968182 
L 624.015584 424.317273 
L 676.192208 439.142727 
L 728.368831 424.317273 
L 780.545455 453.968182 
L 832.722078 439.142727 
L 884.898701 439.142727 
L 937.075325 424.317273 
L 989.251948 424.317273 
L 1041.428571 320.539091 
L 1093.605195 409.491818 
L 1145.781818 335.364545 
L 1197.958442 379.840909 
L 1250.135065 453.968182 
L 1302.311688 439.142727 
L 1354.488312 439.142727 
L 1406.664935 394.666364 
L 1458.841558 379.840909 
L 1511.018182 424.317273 
L 1563.194805 424.317273 
L 1615.371429 379.840909 
L 1667.548052 379.840909 
L 1719.724675 394.666364 
L 1771.901299 439.142727 
L 1824.077922 453.968182 
L 1876.254545 439.142727 
L 1928.431169 424.317273 
L 1980.607792 439.142727 
L 2032.784416 453.968182 
L 2084.961039 439.142727 
L 2137.137662 424.317273 
L 2189.314286 290.888182 
L 2241.490909 394.666364 
" clip-path="url(#p0071cbf721)" style="fill: none; stroke: #8172b3; stroke-width: 1.5; stroke-linecap: round"/>
   </g>
   <g id="line2d_48">
    <path d="M 415.309091 453.968182 
L 467.485714 453.968182 
L 519.662338 439.142727 
L 571.838961 439.142727 
L 624.015584 453.968182 
L 676.192208 453.968182 
L 728.368831 409.491818 
L 780.545455 409.491818 
L 832.722078 439.142727 
L 884.898701 453.968182 
L 937.075325 439.142727 
L 989.251948 379.840909 
L 1041.428571 335.364545 
L 1093.605195 276.062727 
L 1145.781818 394.666364 
L 1197.958442 409.491818 
L 1250.135065 453.968182 
L 1302.311688 453.968182 
L 1354.488312 409.491818 
L 1406.664935 365.015455 
L 1458.841558 394.666364 
L 1511.018182 394.666364 
L 1563.194805 409.491818 
L 1615.371429 424.317273 
L 1667.548052 453.968182 
L 1719.724675 453.968182 
L 1771.901299 424.317273 
L 1824.077922 379.840909 
L 1876.254545 439.142727 
L 1928.431169 439.142727 
L 1980.607792 453.968182 
L 2032.784416 439.142727 
L 2084.961039 439.142727 
L 2137.137662 409.491818 
L 2189.314286 305.713636 
L 2241.490909 379.840909 
" clip-path="url(#p0071cbf721)" style="fill: none; stroke: #937860; stroke-width: 1.5; stroke-linecap: round"/>
   </g>
   <g id="line2d_49">
    <path d="M 415.309091 453.968182 
L 467.485714 439.142727 
L 519.662338 439.142727 
L 571.838961 424.317273 
L 624.015584 439.142727 
L 676.192208 439.142727 
L 728.368831 424.317273 
L 780.545455 424.317273 
L 832.722078 453.968182 
L 884.898701 453.968182 
L 937.075325 453.968182 
L 989.251948 453.968182 
L 1041.428571 453.968182 
L 1093.605195 453.968182 
L 1145.781818 439.142727 
L 1197.958442 394.666364 
L 1250.135065 409.491818 
L 1302.311688 424.317273 
L 1354.488312 394.666364 
L 1406.664935 379.840909 
L 1458.841558 335.364545 
L 1511.018182 335.364545 
L 1563.194805 409.491818 
L 1615.371429 379.840909 
L 1667.548052 409.491818 
L 1719.724675 394.666364 
L 1771.901299 409.491818 
L 1824.077922 379.840909 
L 1876.254545 439.142727 
L 1928.431169 424.317273 
L 1980.607792 424.317273 
L 2032.784416 453.968182 
L 2084.961039 453.968182 
L 2137.137662 439.142727 
L 2189.314286 424.317273 
L 2241.490909 439.142727 
" clip-path="url(#p0071cbf721)" style="fill: none; stroke: #da8bc3; stroke-width: 1.5; stroke-linecap: round"/>
   </g>
   <g id="line2d_50">
    <path d="M 415.309091 453.968182 
L 467.485714 453.968182 
L 519.662338 453.968182 
L 571.838961 453.968182 
L 624.015584 439.142727 
L 676.192208 453.968182 
L 728.368831 453.968182 
L 780.545455 453.968182 
L 832.722078 453.968182 
L 884.898701 453.968182 
L 937.075325 453.968182 
L 989.251948 424.317273 
L 1041.428571 379.840909 
L 1093.605195 394.666364 
L 1145.781818 365.015455 
L 1197.958442 305.713636 
L 1250.135065 424.317273 
L 1302.311688 394.666364 
L 1354.488312 439.142727 
L 1406.664935 379.840909 
L 1458.841558 394.666364 
L 1511.018182 379.840909 
L 1563.194805 394.666364 
L 1615.371429 453.968182 
L 1667.548052 424.317273 
L 1719.724675 409.491818 
L 1771.901299 409.491818 
L 1824.077922 424.317273 
L 1876.254545 409.491818 
L 1928.431169 439.142727 
L 1980.607792 453.968182 
L 2032.784416 365.015455 
L 2084.961039 409.491818 
L 2137.137662 379.840909 
L 2189.314286 290.888182 
L 2241.490909 424.317273 
" clip-path="url(#p0071cbf721)" style="fill: none; stroke: #8c8c8c; stroke-width: 1.5; stroke-linecap: round"/>
   </g>
   <g id="patch_3">
    <path d="M 324 472.5 
L 324 64.8 
" style="fill: none; stroke: #ffffff; stroke-width: 1.25; stroke-linejoin: miter; stroke-linecap: square"/>
   </g>
   <g id="patch_4">
    <path d="M 2332.8 472.5 
L 2332.8 64.8 
" style="fill: none; stroke: #ffffff; stroke-width: 1.25; stroke-linejoin: miter; stroke-linecap: square"/>
   </g>
   <g id="patch_5">
    <path d="M 324 472.5 
L 2332.8 472.5 
" style="fill: none; stroke: #ffffff; stroke-width: 1.25; stroke-linejoin: miter; stroke-linecap: square"/>
   </g>
   <g id="patch_6">
    <path d="M 324 64.8 
L 2332.8 64.8 
" style="fill: none; stroke: #ffffff; stroke-width: 1.25; stroke-linejoin: miter; stroke-linecap: square"/>
   </g>
   <g id="text_43">
    <!-- Timeline for genres in cat 8_stat _['Japan']  above threshold = 0.05 of total = 1038.0 for platforms ['Atari', 'Atari ST', 'NES', 'Genesis', 'SNES', 'PlayStation', 'SEGA Saturn', 'PlayStation 2', 'Xbox', 'PlayStation 3', 'Xbox 360', 'Wii', 'PlayStation 4', 'Wii U', 'Nintendo Switch'] -->
    <g style="fill: #262626" transform="translate(623.991563 58.8)scale(0.12 -0.12)">
     <defs>
      <path id="ArialMT-54" d="M 1659 0 
L 1659 4041 
L 150 4041 
L 150 4581 
L 3781 4581 
L 3781 4041 
L 2266 4041 
L 2266 0 
L 1659 0 
z
" transform="scale(0.015625)"/>
      <path id="ArialMT-69" d="M 425 3934 
L 425 4581 
L 988 4581 
L 988 3934 
L 425 3934 
z
M 425 0 
L 425 3319 
L 988 3319 
L 988 0 
L 425 0 
z
" transform="scale(0.015625)"/>
      <path id="ArialMT-6d" d="M 422 0 
L 422 3319 
L 925 3319 
L 925 2853 
Q 1081 3097 1340 3245 
Q 1600 3394 1931 3394 
Q 2300 3394 2536 3241 
Q 2772 3088 2869 2813 
Q 3263 3394 3894 3394 
Q 4388 3394 4653 3120 
Q 4919 2847 4919 2278 
L 4919 0 
L 4359 0 
L 4359 2091 
Q 4359 2428 4304 2576 
Q 4250 2725 4106 2815 
Q 3963 2906 3769 2906 
Q 3419 2906 3187 2673 
Q 2956 2441 2956 1928 
L 2956 0 
L 2394 0 
L 2394 2156 
Q 2394 2531 2256 2718 
Q 2119 2906 1806 2906 
Q 1569 2906 1367 2781 
Q 1166 2656 1075 2415 
Q 984 2175 984 1722 
L 984 0 
L 422 0 
z
" transform="scale(0.015625)"/>
      <path id="ArialMT-65" d="M 2694 1069 
L 3275 997 
Q 3138 488 2766 206 
Q 2394 -75 1816 -75 
Q 1088 -75 661 373 
Q 234 822 234 1631 
Q 234 2469 665 2931 
Q 1097 3394 1784 3394 
Q 2450 3394 2872 2941 
Q 3294 2488 3294 1666 
Q 3294 1616 3291 1516 
L 816 1516 
Q 847 969 1125 678 
Q 1403 388 1819 388 
Q 2128 388 2347 550 
Q 2566 713 2694 1069 
z
M 847 1978 
L 2700 1978 
Q 2663 2397 2488 2606 
Q 2219 2931 1791 2931 
Q 1403 2931 1139 2672 
Q 875 2413 847 1978 
z
" transform="scale(0.015625)"/>
      <path id="ArialMT-6c" d="M 409 0 
L 409 4581 
L 972 4581 
L 972 0 
L 409 0 
z
" transform="scale(0.015625)"/>
      <path id="ArialMT-6e" d="M 422 0 
L 422 3319 
L 928 3319 
L 928 2847 
Q 1294 3394 1984 3394 
Q 2284 3394 2536 3286 
Q 2788 3178 2913 3003 
Q 3038 2828 3088 2588 
Q 3119 2431 3119 2041 
L 3119 0 
L 2556 0 
L 2556 2019 
Q 2556 2363 2490 2533 
Q 2425 2703 2258 2804 
Q 2091 2906 1866 2906 
Q 1506 2906 1245 2678 
Q 984 2450 984 1813 
L 984 0 
L 422 0 
z
" transform="scale(0.015625)"/>
      <path id="ArialMT-20" transform="scale(0.015625)"/>
      <path id="ArialMT-66" d="M 556 0 
L 556 2881 
L 59 2881 
L 59 3319 
L 556 3319 
L 556 3672 
Q 556 4006 616 4169 
Q 697 4388 901 4523 
Q 1106 4659 1475 4659 
Q 1713 4659 2000 4603 
L 1916 4113 
Q 1741 4144 1584 4144 
Q 1328 4144 1222 4034 
Q 1116 3925 1116 3625 
L 1116 3319 
L 1763 3319 
L 1763 2881 
L 1116 2881 
L 1116 0 
L 556 0 
z
" transform="scale(0.015625)"/>
      <path id="ArialMT-6f" d="M 213 1659 
Q 213 2581 725 3025 
Q 1153 3394 1769 3394 
Q 2453 3394 2887 2945 
Q 3322 2497 3322 1706 
Q 3322 1066 3130 698 
Q 2938 331 2570 128 
Q 2203 -75 1769 -75 
Q 1072 -75 642 372 
Q 213 819 213 1659 
z
M 791 1659 
Q 791 1022 1069 705 
Q 1347 388 1769 388 
Q 2188 388 2466 706 
Q 2744 1025 2744 1678 
Q 2744 2294 2464 2611 
Q 2184 2928 1769 2928 
Q 1347 2928 1069 2612 
Q 791 2297 791 1659 
z
" transform="scale(0.015625)"/>
      <path id="ArialMT-72" d="M 416 0 
L 416 3319 
L 922 3319 
L 922 2816 
Q 1116 3169 1280 3281 
Q 1444 3394 1641 3394 
Q 1925 3394 2219 3213 
L 2025 2691 
Q 1819 2813 1613 2813 
Q 1428 2813 1281 2702 
Q 1134 2591 1072 2394 
Q 978 2094 978 1738 
L 978 0 
L 416 0 
z
" transform="scale(0.015625)"/>
      <path id="ArialMT-67" d="M 319 -275 
L 866 -356 
Q 900 -609 1056 -725 
Q 1266 -881 1628 -881 
Q 2019 -881 2231 -725 
Q 2444 -569 2519 -288 
Q 2563 -116 2559 434 
Q 2191 0 1641 0 
Q 956 0 581 494 
Q 206 988 206 1678 
Q 206 2153 378 2554 
Q 550 2956 876 3175 
Q 1203 3394 1644 3394 
Q 2231 3394 2613 2919 
L 2613 3319 
L 3131 3319 
L 3131 450 
Q 3131 -325 2973 -648 
Q 2816 -972 2473 -1159 
Q 2131 -1347 1631 -1347 
Q 1038 -1347 672 -1080 
Q 306 -813 319 -275 
z
M 784 1719 
Q 784 1066 1043 766 
Q 1303 466 1694 466 
Q 2081 466 2343 764 
Q 2606 1063 2606 1700 
Q 2606 2309 2336 2618 
Q 2066 2928 1684 2928 
Q 1309 2928 1046 2623 
Q 784 2319 784 1719 
z
" transform="scale(0.015625)"/>
      <path id="ArialMT-73" d="M 197 991 
L 753 1078 
Q 800 744 1014 566 
Q 1228 388 1613 388 
Q 2000 388 2187 545 
Q 2375 703 2375 916 
Q 2375 1106 2209 1216 
Q 2094 1291 1634 1406 
Q 1016 1563 777 1677 
Q 538 1791 414 1992 
Q 291 2194 291 2438 
Q 291 2659 392 2848 
Q 494 3038 669 3163 
Q 800 3259 1026 3326 
Q 1253 3394 1513 3394 
Q 1903 3394 2198 3281 
Q 2494 3169 2634 2976 
Q 2775 2784 2828 2463 
L 2278 2388 
Q 2241 2644 2061 2787 
Q 1881 2931 1553 2931 
Q 1166 2931 1000 2803 
Q 834 2675 834 2503 
Q 834 2394 903 2306 
Q 972 2216 1119 2156 
Q 1203 2125 1616 2013 
Q 2213 1853 2448 1751 
Q 2684 1650 2818 1456 
Q 2953 1263 2953 975 
Q 2953 694 2789 445 
Q 2625 197 2315 61 
Q 2006 -75 1616 -75 
Q 969 -75 630 194 
Q 291 463 197 991 
z
" transform="scale(0.015625)"/>
      <path id="ArialMT-63" d="M 2588 1216 
L 3141 1144 
Q 3050 572 2676 248 
Q 2303 -75 1759 -75 
Q 1078 -75 664 370 
Q 250 816 250 1647 
Q 250 2184 428 2587 
Q 606 2991 970 3192 
Q 1334 3394 1763 3394 
Q 2303 3394 2647 3120 
Q 2991 2847 3088 2344 
L 2541 2259 
Q 2463 2594 2264 2762 
Q 2066 2931 1784 2931 
Q 1359 2931 1093 2626 
Q 828 2322 828 1663 
Q 828 994 1084 691 
Q 1341 388 1753 388 
Q 2084 388 2306 591 
Q 2528 794 2588 1216 
z
" transform="scale(0.015625)"/>
      <path id="ArialMT-61" d="M 2588 409 
Q 2275 144 1986 34 
Q 1697 -75 1366 -75 
Q 819 -75 525 192 
Q 231 459 231 875 
Q 231 1119 342 1320 
Q 453 1522 633 1644 
Q 813 1766 1038 1828 
Q 1203 1872 1538 1913 
Q 2219 1994 2541 2106 
Q 2544 2222 2544 2253 
Q 2544 2597 2384 2738 
Q 2169 2928 1744 2928 
Q 1347 2928 1158 2789 
Q 969 2650 878 2297 
L 328 2372 
Q 403 2725 575 2942 
Q 747 3159 1072 3276 
Q 1397 3394 1825 3394 
Q 2250 3394 2515 3294 
Q 2781 3194 2906 3042 
Q 3031 2891 3081 2659 
Q 3109 2516 3109 2141 
L 3109 1391 
Q 3109 606 3145 398 
Q 3181 191 3288 0 
L 2700 0 
Q 2613 175 2588 409 
z
M 2541 1666 
Q 2234 1541 1622 1453 
Q 1275 1403 1131 1340 
Q 988 1278 909 1158 
Q 831 1038 831 891 
Q 831 666 1001 516 
Q 1172 366 1500 366 
Q 1825 366 2078 508 
Q 2331 650 2450 897 
Q 2541 1088 2541 1459 
L 2541 1666 
z
" transform="scale(0.015625)"/>
      <path id="ArialMT-74" d="M 1650 503 
L 1731 6 
Q 1494 -44 1306 -44 
Q 1000 -44 831 53 
Q 663 150 594 308 
Q 525 466 525 972 
L 525 2881 
L 113 2881 
L 113 3319 
L 525 3319 
L 525 4141 
L 1084 4478 
L 1084 3319 
L 1650 3319 
L 1650 2881 
L 1084 2881 
L 1084 941 
Q 1084 700 1114 631 
Q 1144 563 1211 522 
Q 1278 481 1403 481 
Q 1497 481 1650 503 
z
" transform="scale(0.015625)"/>
      <path id="ArialMT-5f" d="M -97 -1272 
L -97 -866 
L 3631 -866 
L 3631 -1272 
L -97 -1272 
z
" transform="scale(0.015625)"/>
      <path id="ArialMT-5b" d="M 434 -1272 
L 434 4581 
L 1675 4581 
L 1675 4116 
L 997 4116 
L 997 -806 
L 1675 -806 
L 1675 -1272 
L 434 -1272 
z
" transform="scale(0.015625)"/>
      <path id="ArialMT-27" d="M 425 2959 
L 281 3816 
L 281 4581 
L 922 4581 
L 922 3816 
L 772 2959 
L 425 2959 
z
" transform="scale(0.015625)"/>
      <path id="ArialMT-4a" d="M 184 1300 
L 731 1375 
Q 753 850 928 656 
Q 1103 463 1413 463 
Q 1641 463 1806 567 
Q 1972 672 2034 851 
Q 2097 1031 2097 1425 
L 2097 4581 
L 2703 4581 
L 2703 1459 
Q 2703 884 2564 568 
Q 2425 253 2123 87 
Q 1822 -78 1416 -78 
Q 813 -78 492 269 
Q 172 616 184 1300 
z
" transform="scale(0.015625)"/>
      <path id="ArialMT-70" d="M 422 -1272 
L 422 3319 
L 934 3319 
L 934 2888 
Q 1116 3141 1344 3267 
Q 1572 3394 1897 3394 
Q 2322 3394 2647 3175 
Q 2972 2956 3137 2557 
Q 3303 2159 3303 1684 
Q 3303 1175 3120 767 
Q 2938 359 2589 142 
Q 2241 -75 1856 -75 
Q 1575 -75 1351 44 
Q 1128 163 984 344 
L 984 -1272 
L 422 -1272 
z
M 931 1641 
Q 931 1000 1190 694 
Q 1450 388 1819 388 
Q 2194 388 2461 705 
Q 2728 1022 2728 1688 
Q 2728 2322 2467 2637 
Q 2206 2953 1844 2953 
Q 1484 2953 1207 2617 
Q 931 2281 931 1641 
z
" transform="scale(0.015625)"/>
      <path id="ArialMT-5d" d="M 1363 -1272 
L 122 -1272 
L 122 -806 
L 800 -806 
L 800 4116 
L 122 4116 
L 122 4581 
L 1363 4581 
L 1363 -1272 
z
" transform="scale(0.015625)"/>
      <path id="ArialMT-62" d="M 941 0 
L 419 0 
L 419 4581 
L 981 4581 
L 981 2947 
Q 1338 3394 1891 3394 
Q 2197 3394 2470 3270 
Q 2744 3147 2920 2923 
Q 3097 2700 3197 2384 
Q 3297 2069 3297 1709 
Q 3297 856 2875 390 
Q 2453 -75 1863 -75 
Q 1275 -75 941 416 
L 941 0 
z
M 934 1684 
Q 934 1088 1097 822 
Q 1363 388 1816 388 
Q 2184 388 2453 708 
Q 2722 1028 2722 1663 
Q 2722 2313 2464 2622 
Q 2206 2931 1841 2931 
Q 1472 2931 1203 2611 
Q 934 2291 934 1684 
z
" transform="scale(0.015625)"/>
      <path id="ArialMT-76" d="M 1344 0 
L 81 3319 
L 675 3319 
L 1388 1331 
Q 1503 1009 1600 663 
Q 1675 925 1809 1294 
L 2547 3319 
L 3125 3319 
L 1869 0 
L 1344 0 
z
" transform="scale(0.015625)"/>
      <path id="ArialMT-68" d="M 422 0 
L 422 4581 
L 984 4581 
L 984 2938 
Q 1378 3394 1978 3394 
Q 2347 3394 2619 3248 
Q 2891 3103 3008 2847 
Q 3125 2591 3125 2103 
L 3125 0 
L 2563 0 
L 2563 2103 
Q 2563 2525 2380 2717 
Q 2197 2909 1863 2909 
Q 1613 2909 1392 2779 
Q 1172 2650 1078 2428 
Q 984 2206 984 1816 
L 984 0 
L 422 0 
z
" transform="scale(0.015625)"/>
      <path id="ArialMT-64" d="M 2575 0 
L 2575 419 
Q 2259 -75 1647 -75 
Q 1250 -75 917 144 
Q 584 363 401 755 
Q 219 1147 219 1656 
Q 219 2153 384 2558 
Q 550 2963 881 3178 
Q 1213 3394 1622 3394 
Q 1922 3394 2156 3267 
Q 2391 3141 2538 2938 
L 2538 4581 
L 3097 4581 
L 3097 0 
L 2575 0 
z
M 797 1656 
Q 797 1019 1065 703 
Q 1334 388 1700 388 
Q 2069 388 2326 689 
Q 2584 991 2584 1609 
Q 2584 2291 2321 2609 
Q 2059 2928 1675 2928 
Q 1300 2928 1048 2622 
Q 797 2316 797 1656 
z
" transform="scale(0.015625)"/>
      <path id="ArialMT-3d" d="M 3381 2694 
L 356 2694 
L 356 3219 
L 3381 3219 
L 3381 2694 
z
M 3381 1303 
L 356 1303 
L 356 1828 
L 3381 1828 
L 3381 1303 
z
" transform="scale(0.015625)"/>
      <path id="ArialMT-2e" d="M 581 0 
L 581 641 
L 1222 641 
L 1222 0 
L 581 0 
z
" transform="scale(0.015625)"/>
      <path id="ArialMT-41" d="M -9 0 
L 1750 4581 
L 2403 4581 
L 4278 0 
L 3588 0 
L 3053 1388 
L 1138 1388 
L 634 0 
L -9 0 
z
M 1313 1881 
L 2866 1881 
L 2388 3150 
Q 2169 3728 2063 4100 
Q 1975 3659 1816 3225 
L 1313 1881 
z
" transform="scale(0.015625)"/>
      <path id="ArialMT-2c" d="M 569 0 
L 569 641 
L 1209 641 
L 1209 0 
Q 1209 -353 1084 -570 
Q 959 -788 688 -906 
L 531 -666 
Q 709 -588 793 -436 
Q 878 -284 888 0 
L 569 0 
z
" transform="scale(0.015625)"/>
      <path id="ArialMT-53" d="M 288 1472 
L 859 1522 
Q 900 1178 1048 958 
Q 1197 738 1509 602 
Q 1822 466 2213 466 
Q 2559 466 2825 569 
Q 3091 672 3220 851 
Q 3350 1031 3350 1244 
Q 3350 1459 3225 1620 
Q 3100 1781 2813 1891 
Q 2628 1963 1997 2114 
Q 1366 2266 1113 2400 
Q 784 2572 623 2826 
Q 463 3081 463 3397 
Q 463 3744 659 4045 
Q 856 4347 1234 4503 
Q 1613 4659 2075 4659 
Q 2584 4659 2973 4495 
Q 3363 4331 3572 4012 
Q 3781 3694 3797 3291 
L 3216 3247 
Q 3169 3681 2898 3903 
Q 2628 4125 2100 4125 
Q 1550 4125 1298 3923 
Q 1047 3722 1047 3438 
Q 1047 3191 1225 3031 
Q 1400 2872 2139 2705 
Q 2878 2538 3153 2413 
Q 3553 2228 3743 1945 
Q 3934 1663 3934 1294 
Q 3934 928 3725 604 
Q 3516 281 3123 101 
Q 2731 -78 2241 -78 
Q 1619 -78 1198 103 
Q 778 284 539 648 
Q 300 1013 288 1472 
z
" transform="scale(0.015625)"/>
      <path id="ArialMT-4e" d="M 488 0 
L 488 4581 
L 1109 4581 
L 3516 984 
L 3516 4581 
L 4097 4581 
L 4097 0 
L 3475 0 
L 1069 3600 
L 1069 0 
L 488 0 
z
" transform="scale(0.015625)"/>
      <path id="ArialMT-45" d="M 506 0 
L 506 4581 
L 3819 4581 
L 3819 4041 
L 1113 4041 
L 1113 2638 
L 3647 2638 
L 3647 2100 
L 1113 2100 
L 1113 541 
L 3925 541 
L 3925 0 
L 506 0 
z
" transform="scale(0.015625)"/>
      <path id="ArialMT-47" d="M 2638 1797 
L 2638 2334 
L 4578 2338 
L 4578 638 
Q 4131 281 3656 101 
Q 3181 -78 2681 -78 
Q 2006 -78 1454 211 
Q 903 500 622 1047 
Q 341 1594 341 2269 
Q 341 2938 620 3517 
Q 900 4097 1425 4378 
Q 1950 4659 2634 4659 
Q 3131 4659 3532 4498 
Q 3934 4338 4162 4050 
Q 4391 3763 4509 3300 
L 3963 3150 
Q 3859 3500 3706 3700 
Q 3553 3900 3268 4020 
Q 2984 4141 2638 4141 
Q 2222 4141 1919 4014 
Q 1616 3888 1430 3681 
Q 1244 3475 1141 3228 
Q 966 2803 966 2306 
Q 966 1694 1177 1281 
Q 1388 869 1791 669 
Q 2194 469 2647 469 
Q 3041 469 3416 620 
Q 3791 772 3984 944 
L 3984 1797 
L 2638 1797 
z
" transform="scale(0.015625)"/>
      <path id="ArialMT-50" d="M 494 0 
L 494 4581 
L 2222 4581 
Q 2678 4581 2919 4538 
Q 3256 4481 3484 4323 
Q 3713 4166 3852 3881 
Q 3991 3597 3991 3256 
Q 3991 2672 3619 2267 
Q 3247 1863 2275 1863 
L 1100 1863 
L 1100 0 
L 494 0 
z
M 1100 2403 
L 2284 2403 
Q 2872 2403 3119 2622 
Q 3366 2841 3366 3238 
Q 3366 3525 3220 3729 
Q 3075 3934 2838 4000 
Q 2684 4041 2272 4041 
L 1100 4041 
L 1100 2403 
z
" transform="scale(0.015625)"/>
      <path id="ArialMT-79" d="M 397 -1278 
L 334 -750 
Q 519 -800 656 -800 
Q 844 -800 956 -737 
Q 1069 -675 1141 -563 
Q 1194 -478 1313 -144 
Q 1328 -97 1363 -6 
L 103 3319 
L 709 3319 
L 1400 1397 
Q 1534 1031 1641 628 
Q 1738 1016 1872 1384 
L 2581 3319 
L 3144 3319 
L 1881 -56 
Q 1678 -603 1566 -809 
Q 1416 -1088 1222 -1217 
Q 1028 -1347 759 -1347 
Q 597 -1347 397 -1278 
z
" transform="scale(0.015625)"/>
      <path id="ArialMT-75" d="M 2597 0 
L 2597 488 
Q 2209 -75 1544 -75 
Q 1250 -75 995 37 
Q 741 150 617 320 
Q 494 491 444 738 
Q 409 903 409 1263 
L 409 3319 
L 972 3319 
L 972 1478 
Q 972 1038 1006 884 
Q 1059 663 1231 536 
Q 1403 409 1656 409 
Q 1909 409 2131 539 
Q 2353 669 2445 892 
Q 2538 1116 2538 1541 
L 2538 3319 
L 3100 3319 
L 3100 0 
L 2597 0 
z
" transform="scale(0.015625)"/>
      <path id="ArialMT-58" d="M 28 0 
L 1800 2388 
L 238 4581 
L 959 4581 
L 1791 3406 
Q 2050 3041 2159 2844 
Q 2313 3094 2522 3366 
L 3444 4581 
L 4103 4581 
L 2494 2422 
L 4228 0 
L 3478 0 
L 2325 1634 
Q 2228 1775 2125 1941 
Q 1972 1691 1906 1597 
L 756 0 
L 28 0 
z
" transform="scale(0.015625)"/>
      <path id="ArialMT-78" d="M 47 0 
L 1259 1725 
L 138 3319 
L 841 3319 
L 1350 2541 
Q 1494 2319 1581 2169 
Q 1719 2375 1834 2534 
L 2394 3319 
L 3066 3319 
L 1919 1756 
L 3153 0 
L 2463 0 
L 1781 1031 
L 1600 1309 
L 728 0 
L 47 0 
z
" transform="scale(0.015625)"/>
      <path id="ArialMT-57" d="M 1294 0 
L 78 4581 
L 700 4581 
L 1397 1578 
Q 1509 1106 1591 641 
Q 1766 1375 1797 1488 
L 2669 4581 
L 3400 4581 
L 4056 2263 
Q 4303 1400 4413 641 
Q 4500 1075 4641 1638 
L 5359 4581 
L 5969 4581 
L 4713 0 
L 4128 0 
L 3163 3491 
Q 3041 3928 3019 4028 
Q 2947 3713 2884 3491 
L 1913 0 
L 1294 0 
z
" transform="scale(0.015625)"/>
      <path id="ArialMT-55" d="M 3500 4581 
L 4106 4581 
L 4106 1934 
Q 4106 1244 3950 837 
Q 3794 431 3386 176 
Q 2978 -78 2316 -78 
Q 1672 -78 1262 144 
Q 853 366 678 786 
Q 503 1206 503 1934 
L 503 4581 
L 1109 4581 
L 1109 1938 
Q 1109 1341 1220 1058 
Q 1331 775 1601 622 
Q 1872 469 2263 469 
Q 2931 469 3215 772 
Q 3500 1075 3500 1938 
L 3500 4581 
z
" transform="scale(0.015625)"/>
      <path id="ArialMT-77" d="M 1034 0 
L 19 3319 
L 600 3319 
L 1128 1403 
L 1325 691 
Q 1338 744 1497 1375 
L 2025 3319 
L 2603 3319 
L 3100 1394 
L 3266 759 
L 3456 1400 
L 4025 3319 
L 4572 3319 
L 3534 0 
L 2950 0 
L 2422 1988 
L 2294 2553 
L 1622 0 
L 1034 0 
z
" transform="scale(0.015625)"/>
     </defs>
     <use xlink:href="#ArialMT-54"/>
     <use xlink:href="#ArialMT-69" x="57.333984"/>
     <use xlink:href="#ArialMT-6d" x="79.550781"/>
     <use xlink:href="#ArialMT-65" x="162.851562"/>
     <use xlink:href="#ArialMT-6c" x="218.466797"/>
     <use xlink:href="#ArialMT-69" x="240.683594"/>
     <use xlink:href="#ArialMT-6e" x="262.900391"/>
     <use xlink:href="#ArialMT-65" x="318.515625"/>
     <use xlink:href="#ArialMT-20" x="374.130859"/>
     <use xlink:href="#ArialMT-66" x="401.914062"/>
     <use xlink:href="#ArialMT-6f" x="429.697266"/>
     <use xlink:href="#ArialMT-72" x="485.3125"/>
     <use xlink:href="#ArialMT-20" x="518.613281"/>
     <use xlink:href="#ArialMT-67" x="546.396484"/>
     <use xlink:href="#ArialMT-65" x="602.011719"/>
     <use xlink:href="#ArialMT-6e" x="657.626953"/>
     <use xlink:href="#ArialMT-72" x="713.242188"/>
     <use xlink:href="#ArialMT-65" x="746.542969"/>
     <use xlink:href="#ArialMT-73" x="802.158203"/>
     <use xlink:href="#ArialMT-20" x="852.158203"/>
     <use xlink:href="#ArialMT-69" x="879.941406"/>
     <use xlink:href="#ArialMT-6e" x="902.158203"/>
     <use xlink:href="#ArialMT-20" x="957.773438"/>
     <use xlink:href="#ArialMT-63" x="985.556641"/>
     <use xlink:href="#ArialMT-61" x="1035.556641"/>
     <use xlink:href="#ArialMT-74" x="1091.171875"/>
     <use xlink:href="#ArialMT-20" x="1118.955078"/>
     <use xlink:href="#ArialMT-38" x="1146.738281"/>
     <use xlink:href="#ArialMT-5f" x="1202.353516"/>
     <use xlink:href="#ArialMT-73" x="1257.96875"/>
     <use xlink:href="#ArialMT-74" x="1307.96875"/>
     <use xlink:href="#ArialMT-61" x="1335.751953"/>
     <use xlink:href="#ArialMT-74" x="1391.367188"/>
     <use xlink:href="#ArialMT-20" x="1419.150391"/>
     <use xlink:href="#ArialMT-5f" x="1446.933594"/>
     <use xlink:href="#ArialMT-5b" x="1502.548828"/>
     <use xlink:href="#ArialMT-27" x="1530.332031"/>
     <use xlink:href="#ArialMT-4a" x="1549.423828"/>
     <use xlink:href="#ArialMT-61" x="1599.423828"/>
     <use xlink:href="#ArialMT-70" x="1655.039062"/>
     <use xlink:href="#ArialMT-61" x="1710.654297"/>
     <use xlink:href="#ArialMT-6e" x="1766.269531"/>
     <use xlink:href="#ArialMT-27" x="1821.884766"/>
     <use xlink:href="#ArialMT-5d" x="1840.976562"/>
     <use xlink:href="#ArialMT-20" x="1868.759766"/>
     <use xlink:href="#ArialMT-20" x="1896.542969"/>
     <use xlink:href="#ArialMT-61" x="1924.326172"/>
     <use xlink:href="#ArialMT-62" x="1979.941406"/>
     <use xlink:href="#ArialMT-6f" x="2035.556641"/>
     <use xlink:href="#ArialMT-76" x="2091.171875"/>
     <use xlink:href="#ArialMT-65" x="2141.171875"/>
     <use xlink:href="#ArialMT-20" x="2196.787109"/>
     <use xlink:href="#ArialMT-74" x="2224.570312"/>
     <use xlink:href="#ArialMT-68" x="2252.353516"/>
     <use xlink:href="#ArialMT-72" x="2307.96875"/>
     <use xlink:href="#ArialMT-65" x="2341.269531"/>
     <use xlink:href="#ArialMT-73" x="2396.884766"/>
     <use xlink:href="#ArialMT-68" x="2446.884766"/>
     <use xlink:href="#ArialMT-6f" x="2502.5"/>
     <use xlink:href="#ArialMT-6c" x="2558.115234"/>
     <use xlink:href="#ArialMT-64" x="2580.332031"/>
     <use xlink:href="#ArialMT-20" x="2635.947266"/>
     <use xlink:href="#ArialMT-3d" x="2663.730469"/>
     <use xlink:href="#ArialMT-20" x="2722.128906"/>
     <use xlink:href="#ArialMT-30" x="2749.912109"/>
     <use xlink:href="#ArialMT-2e" x="2805.527344"/>
     <use xlink:href="#ArialMT-30" x="2833.310547"/>
     <use xlink:href="#ArialMT-35" x="2888.925781"/>
     <use xlink:href="#ArialMT-20" x="2944.541016"/>
     <use xlink:href="#ArialMT-6f" x="2972.324219"/>
     <use xlink:href="#ArialMT-66" x="3027.939453"/>
     <use xlink:href="#ArialMT-20" x="3055.722656"/>
     <use xlink:href="#ArialMT-74" x="3083.505859"/>
     <use xlink:href="#ArialMT-6f" x="3111.289062"/>
     <use xlink:href="#ArialMT-74" x="3166.904297"/>
     <use xlink:href="#ArialMT-61" x="3194.6875"/>
     <use xlink:href="#ArialMT-6c" x="3250.302734"/>
     <use xlink:href="#ArialMT-20" x="3272.519531"/>
     <use xlink:href="#ArialMT-3d" x="3300.302734"/>
     <use xlink:href="#ArialMT-20" x="3358.701172"/>
     <use xlink:href="#ArialMT-31" x="3386.484375"/>
     <use xlink:href="#ArialMT-30" x="3442.099609"/>
     <use xlink:href="#ArialMT-33" x="3497.714844"/>
     <use xlink:href="#ArialMT-38" x="3553.330078"/>
     <use xlink:href="#ArialMT-2e" x="3608.945312"/>
     <use xlink:href="#ArialMT-30" x="3636.728516"/>
     <use xlink:href="#ArialMT-20" x="3692.34375"/>
     <use xlink:href="#ArialMT-66" x="3720.126953"/>
     <use xlink:href="#ArialMT-6f" x="3747.910156"/>
     <use xlink:href="#ArialMT-72" x="3803.525391"/>
     <use xlink:href="#ArialMT-20" x="3836.826172"/>
     <use xlink:href="#ArialMT-70" x="3864.609375"/>
     <use xlink:href="#ArialMT-6c" x="3920.224609"/>
     <use xlink:href="#ArialMT-61" x="3942.441406"/>
     <use xlink:href="#ArialMT-74" x="3998.056641"/>
     <use xlink:href="#ArialMT-66" x="4025.839844"/>
     <use xlink:href="#ArialMT-6f" x="4053.623047"/>
     <use xlink:href="#ArialMT-72" x="4109.238281"/>
     <use xlink:href="#ArialMT-6d" x="4142.539062"/>
     <use xlink:href="#ArialMT-73" x="4225.839844"/>
     <use xlink:href="#ArialMT-20" x="4275.839844"/>
     <use xlink:href="#ArialMT-5b" x="4303.623047"/>
     <use xlink:href="#ArialMT-27" x="4331.40625"/>
     <use xlink:href="#ArialMT-41" x="4350.498047"/>
     <use xlink:href="#ArialMT-74" x="4417.197266"/>
     <use xlink:href="#ArialMT-61" x="4444.980469"/>
     <use xlink:href="#ArialMT-72" x="4500.595703"/>
     <use xlink:href="#ArialMT-69" x="4533.896484"/>
     <use xlink:href="#ArialMT-27" x="4556.113281"/>
     <use xlink:href="#ArialMT-2c" x="4575.205078"/>
     <use xlink:href="#ArialMT-20" x="4602.988281"/>
     <use xlink:href="#ArialMT-27" x="4630.771484"/>
     <use xlink:href="#ArialMT-41" x="4649.863281"/>
     <use xlink:href="#ArialMT-74" x="4716.5625"/>
     <use xlink:href="#ArialMT-61" x="4744.345703"/>
     <use xlink:href="#ArialMT-72" x="4799.960938"/>
     <use xlink:href="#ArialMT-69" x="4833.261719"/>
     <use xlink:href="#ArialMT-20" x="4855.478516"/>
     <use xlink:href="#ArialMT-53" x="4883.261719"/>
     <use xlink:href="#ArialMT-54" x="4949.960938"/>
     <use xlink:href="#ArialMT-27" x="5011.044922"/>
     <use xlink:href="#ArialMT-2c" x="5030.136719"/>
     <use xlink:href="#ArialMT-20" x="5057.919922"/>
     <use xlink:href="#ArialMT-27" x="5085.703125"/>
     <use xlink:href="#ArialMT-4e" x="5104.794922"/>
     <use xlink:href="#ArialMT-45" x="5177.011719"/>
     <use xlink:href="#ArialMT-53" x="5243.710938"/>
     <use xlink:href="#ArialMT-27" x="5310.410156"/>
     <use xlink:href="#ArialMT-2c" x="5329.501953"/>
     <use xlink:href="#ArialMT-20" x="5357.285156"/>
     <use xlink:href="#ArialMT-27" x="5385.068359"/>
     <use xlink:href="#ArialMT-47" x="5404.160156"/>
     <use xlink:href="#ArialMT-65" x="5481.943359"/>
     <use xlink:href="#ArialMT-6e" x="5537.558594"/>
     <use xlink:href="#ArialMT-65" x="5593.173828"/>
     <use xlink:href="#ArialMT-73" x="5648.789062"/>
     <use xlink:href="#ArialMT-69" x="5698.789062"/>
     <use xlink:href="#ArialMT-73" x="5721.005859"/>
     <use xlink:href="#ArialMT-27" x="5771.005859"/>
     <use xlink:href="#ArialMT-2c" x="5790.097656"/>
     <use xlink:href="#ArialMT-20" x="5817.880859"/>
     <use xlink:href="#ArialMT-27" x="5845.664062"/>
     <use xlink:href="#ArialMT-53" x="5864.755859"/>
     <use xlink:href="#ArialMT-4e" x="5931.455078"/>
     <use xlink:href="#ArialMT-45" x="6003.671875"/>
     <use xlink:href="#ArialMT-53" x="6070.371094"/>
     <use xlink:href="#ArialMT-27" x="6137.070312"/>
     <use xlink:href="#ArialMT-2c" x="6156.162109"/>
     <use xlink:href="#ArialMT-20" x="6183.945312"/>
     <use xlink:href="#ArialMT-27" x="6211.728516"/>
     <use xlink:href="#ArialMT-50" x="6230.820312"/>
     <use xlink:href="#ArialMT-6c" x="6297.519531"/>
     <use xlink:href="#ArialMT-61" x="6319.736328"/>
     <use xlink:href="#ArialMT-79" x="6375.351562"/>
     <use xlink:href="#ArialMT-53" x="6425.351562"/>
     <use xlink:href="#ArialMT-74" x="6492.050781"/>
     <use xlink:href="#ArialMT-61" x="6519.833984"/>
     <use xlink:href="#ArialMT-74" x="6575.449219"/>
     <use xlink:href="#ArialMT-69" x="6603.232422"/>
     <use xlink:href="#ArialMT-6f" x="6625.449219"/>
     <use xlink:href="#ArialMT-6e" x="6681.064453"/>
     <use xlink:href="#ArialMT-27" x="6736.679688"/>
     <use xlink:href="#ArialMT-2c" x="6755.771484"/>
     <use xlink:href="#ArialMT-20" x="6783.554688"/>
     <use xlink:href="#ArialMT-27" x="6811.337891"/>
     <use xlink:href="#ArialMT-53" x="6830.429688"/>
     <use xlink:href="#ArialMT-45" x="6897.128906"/>
     <use xlink:href="#ArialMT-47" x="6963.828125"/>
     <use xlink:href="#ArialMT-41" x="7041.611328"/>
     <use xlink:href="#ArialMT-20" x="7102.810547"/>
     <use xlink:href="#ArialMT-53" x="7130.59375"/>
     <use xlink:href="#ArialMT-61" x="7197.292969"/>
     <use xlink:href="#ArialMT-74" x="7252.908203"/>
     <use xlink:href="#ArialMT-75" x="7280.691406"/>
     <use xlink:href="#ArialMT-72" x="7336.306641"/>
     <use xlink:href="#ArialMT-6e" x="7369.607422"/>
     <use xlink:href="#ArialMT-27" x="7425.222656"/>
     <use xlink:href="#ArialMT-2c" x="7444.314453"/>
     <use xlink:href="#ArialMT-20" x="7472.097656"/>
     <use xlink:href="#ArialMT-27" x="7499.880859"/>
     <use xlink:href="#ArialMT-50" x="7518.972656"/>
     <use xlink:href="#ArialMT-6c" x="7585.671875"/>
     <use xlink:href="#ArialMT-61" x="7607.888672"/>
     <use xlink:href="#ArialMT-79" x="7663.503906"/>
     <use xlink:href="#ArialMT-53" x="7713.503906"/>
     <use xlink:href="#ArialMT-74" x="7780.203125"/>
     <use xlink:href="#ArialMT-61" x="7807.986328"/>
     <use xlink:href="#ArialMT-74" x="7863.601562"/>
     <use xlink:href="#ArialMT-69" x="7891.384766"/>
     <use xlink:href="#ArialMT-6f" x="7913.601562"/>
     <use xlink:href="#ArialMT-6e" x="7969.216797"/>
     <use xlink:href="#ArialMT-20" x="8024.832031"/>
     <use xlink:href="#ArialMT-32" x="8052.615234"/>
     <use xlink:href="#ArialMT-27" x="8108.230469"/>
     <use xlink:href="#ArialMT-2c" x="8127.322266"/>
     <use xlink:href="#ArialMT-20" x="8155.105469"/>
     <use xlink:href="#ArialMT-27" x="8182.888672"/>
     <use xlink:href="#ArialMT-58" x="8201.980469"/>
     <use xlink:href="#ArialMT-62" x="8268.679688"/>
     <use xlink:href="#ArialMT-6f" x="8324.294922"/>
     <use xlink:href="#ArialMT-78" x="8379.910156"/>
     <use xlink:href="#ArialMT-27" x="8429.910156"/>
     <use xlink:href="#ArialMT-2c" x="8449.001953"/>
     <use xlink:href="#ArialMT-20" x="8476.785156"/>
     <use xlink:href="#ArialMT-27" x="8504.568359"/>
     <use xlink:href="#ArialMT-50" x="8523.660156"/>
     <use xlink:href="#ArialMT-6c" x="8590.359375"/>
     <use xlink:href="#ArialMT-61" x="8612.576172"/>
     <use xlink:href="#ArialMT-79" x="8668.191406"/>
     <use xlink:href="#ArialMT-53" x="8718.191406"/>
     <use xlink:href="#ArialMT-74" x="8784.890625"/>
     <use xlink:href="#ArialMT-61" x="8812.673828"/>
     <use xlink:href="#ArialMT-74" x="8868.289062"/>
     <use xlink:href="#ArialMT-69" x="8896.072266"/>
     <use xlink:href="#ArialMT-6f" x="8918.289062"/>
     <use xlink:href="#ArialMT-6e" x="8973.904297"/>
     <use xlink:href="#ArialMT-20" x="9029.519531"/>
     <use xlink:href="#ArialMT-33" x="9057.302734"/>
     <use xlink:href="#ArialMT-27" x="9112.917969"/>
     <use xlink:href="#ArialMT-2c" x="9132.009766"/>
     <use xlink:href="#ArialMT-20" x="9159.792969"/>
     <use xlink:href="#ArialMT-27" x="9187.576172"/>
     <use xlink:href="#ArialMT-58" x="9206.667969"/>
     <use xlink:href="#ArialMT-62" x="9273.367188"/>
     <use xlink:href="#ArialMT-6f" x="9328.982422"/>
     <use xlink:href="#ArialMT-78" x="9384.597656"/>
     <use xlink:href="#ArialMT-20" x="9434.597656"/>
     <use xlink:href="#ArialMT-33" x="9462.380859"/>
     <use xlink:href="#ArialMT-36" x="9517.996094"/>
     <use xlink:href="#ArialMT-30" x="9573.611328"/>
     <use xlink:href="#ArialMT-27" x="9629.226562"/>
     <use xlink:href="#ArialMT-2c" x="9648.318359"/>
     <use xlink:href="#ArialMT-20" x="9676.101562"/>
     <use xlink:href="#ArialMT-27" x="9703.884766"/>
     <use xlink:href="#ArialMT-57" x="9722.976562"/>
     <use xlink:href="#ArialMT-69" x="9817.361328"/>
     <use xlink:href="#ArialMT-69" x="9839.578125"/>
     <use xlink:href="#ArialMT-27" x="9861.794922"/>
     <use xlink:href="#ArialMT-2c" x="9880.886719"/>
     <use xlink:href="#ArialMT-20" x="9908.669922"/>
     <use xlink:href="#ArialMT-27" x="9936.453125"/>
     <use xlink:href="#ArialMT-50" x="9955.544922"/>
     <use xlink:href="#ArialMT-6c" x="10022.244141"/>
     <use xlink:href="#ArialMT-61" x="10044.460938"/>
     <use xlink:href="#ArialMT-79" x="10100.076172"/>
     <use xlink:href="#ArialMT-53" x="10150.076172"/>
     <use xlink:href="#ArialMT-74" x="10216.775391"/>
     <use xlink:href="#ArialMT-61" x="10244.558594"/>
     <use xlink:href="#ArialMT-74" x="10300.173828"/>
     <use xlink:href="#ArialMT-69" x="10327.957031"/>
     <use xlink:href="#ArialMT-6f" x="10350.173828"/>
     <use xlink:href="#ArialMT-6e" x="10405.789062"/>
     <use xlink:href="#ArialMT-20" x="10461.404297"/>
     <use xlink:href="#ArialMT-34" x="10489.1875"/>
     <use xlink:href="#ArialMT-27" x="10544.802734"/>
     <use xlink:href="#ArialMT-2c" x="10563.894531"/>
     <use xlink:href="#ArialMT-20" x="10591.677734"/>
     <use xlink:href="#ArialMT-27" x="10619.460938"/>
     <use xlink:href="#ArialMT-57" x="10638.552734"/>
     <use xlink:href="#ArialMT-69" x="10732.9375"/>
     <use xlink:href="#ArialMT-69" x="10755.154297"/>
     <use xlink:href="#ArialMT-20" x="10777.371094"/>
     <use xlink:href="#ArialMT-55" x="10805.154297"/>
     <use xlink:href="#ArialMT-27" x="10877.371094"/>
     <use xlink:href="#ArialMT-2c" x="10896.462891"/>
     <use xlink:href="#ArialMT-20" x="10924.246094"/>
     <use xlink:href="#ArialMT-27" x="10952.029297"/>
     <use xlink:href="#ArialMT-4e" x="10971.121094"/>
     <use xlink:href="#ArialMT-69" x="11043.337891"/>
     <use xlink:href="#ArialMT-6e" x="11065.554688"/>
     <use xlink:href="#ArialMT-74" x="11121.169922"/>
     <use xlink:href="#ArialMT-65" x="11148.953125"/>
     <use xlink:href="#ArialMT-6e" x="11204.568359"/>
     <use xlink:href="#ArialMT-64" x="11260.183594"/>
     <use xlink:href="#ArialMT-6f" x="11315.798828"/>
     <use xlink:href="#ArialMT-20" x="11371.414062"/>
     <use xlink:href="#ArialMT-53" x="11399.197266"/>
     <use xlink:href="#ArialMT-77" x="11465.896484"/>
     <use xlink:href="#ArialMT-69" x="11538.113281"/>
     <use xlink:href="#ArialMT-74" x="11560.330078"/>
     <use xlink:href="#ArialMT-63" x="11588.113281"/>
     <use xlink:href="#ArialMT-68" x="11638.113281"/>
     <use xlink:href="#ArialMT-27" x="11693.728516"/>
     <use xlink:href="#ArialMT-5d" x="11712.820312"/>
    </g>
   </g>
   <g id="legend_1">
    <g id="patch_7">
     <path d="M 331.7 198.867656 
L 460.417188 198.867656 
Q 462.617188 198.867656 462.617188 196.667656 
L 462.617188 72.5 
Q 462.617188 70.3 460.417188 70.3 
L 331.7 70.3 
Q 329.5 70.3 329.5 72.5 
L 329.5 196.667656 
Q 329.5 198.867656 331.7 198.867656 
z
" style="fill: #eaeaf2; opacity: 0.8; stroke: #cccccc; stroke-linejoin: miter"/>
    </g>
    <g id="line2d_51">
     <path d="M 333.9 78.723594 
L 344.9 78.723594 
L 355.9 78.723594 
" style="fill: none; stroke: #4c72b0; stroke-width: 1.5; stroke-linecap: round"/>
    </g>
    <g id="text_44">
     <!-- War -->
     <g style="fill: #262626" transform="translate(364.7 82.573594)scale(0.11 -0.11)">
      <use xlink:href="#ArialMT-57"/>
      <use xlink:href="#ArialMT-61" x="90.634766"/>
      <use xlink:href="#ArialMT-72" x="146.25"/>
     </g>
    </g>
    <g id="line2d_52">
     <path d="M 333.9 94.283438 
L 344.9 94.283438 
L 355.9 94.283438 
" style="fill: none; stroke: #dd8452; stroke-width: 1.5; stroke-linecap: round"/>
    </g>
    <g id="text_45">
     <!-- Crime -->
     <g style="fill: #262626" transform="translate(364.7 98.133438)scale(0.11 -0.11)">
      <defs>
       <path id="ArialMT-43" d="M 3763 1606 
L 4369 1453 
Q 4178 706 3683 314 
Q 3188 -78 2472 -78 
Q 1731 -78 1267 223 
Q 803 525 561 1097 
Q 319 1669 319 2325 
Q 319 3041 592 3573 
Q 866 4106 1370 4382 
Q 1875 4659 2481 4659 
Q 3169 4659 3637 4309 
Q 4106 3959 4291 3325 
L 3694 3184 
Q 3534 3684 3231 3912 
Q 2928 4141 2469 4141 
Q 1941 4141 1586 3887 
Q 1231 3634 1087 3207 
Q 944 2781 944 2328 
Q 944 1744 1114 1308 
Q 1284 872 1643 656 
Q 2003 441 2422 441 
Q 2931 441 3284 734 
Q 3638 1028 3763 1606 
z
" transform="scale(0.015625)"/>
      </defs>
      <use xlink:href="#ArialMT-43"/>
      <use xlink:href="#ArialMT-72" x="72.216797"/>
      <use xlink:href="#ArialMT-69" x="105.517578"/>
      <use xlink:href="#ArialMT-6d" x="127.734375"/>
      <use xlink:href="#ArialMT-65" x="211.035156"/>
     </g>
    </g>
    <g id="line2d_53">
     <path d="M 333.9 109.843281 
L 344.9 109.843281 
L 355.9 109.843281 
" style="fill: none; stroke: #55a868; stroke-width: 1.5; stroke-linecap: round"/>
    </g>
    <g id="text_46">
     <!-- Horror -->
     <g style="fill: #262626" transform="translate(364.7 113.693281)scale(0.11 -0.11)">
      <defs>
       <path id="ArialMT-48" d="M 513 0 
L 513 4581 
L 1119 4581 
L 1119 2700 
L 3500 2700 
L 3500 4581 
L 4106 4581 
L 4106 0 
L 3500 0 
L 3500 2159 
L 1119 2159 
L 1119 0 
L 513 0 
z
" transform="scale(0.015625)"/>
      </defs>
      <use xlink:href="#ArialMT-48"/>
      <use xlink:href="#ArialMT-6f" x="72.216797"/>
      <use xlink:href="#ArialMT-72" x="127.832031"/>
      <use xlink:href="#ArialMT-72" x="161.132812"/>
      <use xlink:href="#ArialMT-6f" x="194.433594"/>
      <use xlink:href="#ArialMT-72" x="250.048828"/>
     </g>
    </g>
    <g id="line2d_54">
     <path d="M 333.9 125.537187 
L 344.9 125.537187 
L 355.9 125.537187 
" style="fill: none; stroke: #c44e52; stroke-width: 1.5; stroke-linecap: round"/>
    </g>
    <g id="text_47">
     <!-- Detective / Mystery -->
     <g style="fill: #262626" transform="translate(364.7 129.387187)scale(0.11 -0.11)">
      <defs>
       <path id="ArialMT-44" d="M 494 0 
L 494 4581 
L 2072 4581 
Q 2606 4581 2888 4516 
Q 3281 4425 3559 4188 
Q 3922 3881 4101 3404 
Q 4281 2928 4281 2316 
Q 4281 1794 4159 1391 
Q 4038 988 3847 723 
Q 3656 459 3429 307 
Q 3203 156 2883 78 
Q 2563 0 2147 0 
L 494 0 
z
M 1100 541 
L 2078 541 
Q 2531 541 2789 625 
Q 3047 709 3200 863 
Q 3416 1078 3536 1442 
Q 3656 1806 3656 2325 
Q 3656 3044 3420 3430 
Q 3184 3816 2847 3947 
Q 2603 4041 2063 4041 
L 1100 4041 
L 1100 541 
z
" transform="scale(0.015625)"/>
       <path id="ArialMT-2f" d="M 0 -78 
L 1328 4659 
L 1778 4659 
L 453 -78 
L 0 -78 
z
" transform="scale(0.015625)"/>
       <path id="ArialMT-4d" d="M 475 0 
L 475 4581 
L 1388 4581 
L 2472 1338 
Q 2622 884 2691 659 
Q 2769 909 2934 1394 
L 4031 4581 
L 4847 4581 
L 4847 0 
L 4263 0 
L 4263 3834 
L 2931 0 
L 2384 0 
L 1059 3900 
L 1059 0 
L 475 0 
z
" transform="scale(0.015625)"/>
      </defs>
      <use xlink:href="#ArialMT-44"/>
      <use xlink:href="#ArialMT-65" x="72.216797"/>
      <use xlink:href="#ArialMT-74" x="127.832031"/>
      <use xlink:href="#ArialMT-65" x="155.615234"/>
      <use xlink:href="#ArialMT-63" x="211.230469"/>
      <use xlink:href="#ArialMT-74" x="261.230469"/>
      <use xlink:href="#ArialMT-69" x="289.013672"/>
      <use xlink:href="#ArialMT-76" x="311.230469"/>
      <use xlink:href="#ArialMT-65" x="361.230469"/>
      <use xlink:href="#ArialMT-20" x="416.845703"/>
      <use xlink:href="#ArialMT-2f" x="444.628906"/>
      <use xlink:href="#ArialMT-20" x="472.412109"/>
      <use xlink:href="#ArialMT-4d" x="500.195312"/>
      <use xlink:href="#ArialMT-79" x="583.496094"/>
      <use xlink:href="#ArialMT-73" x="633.496094"/>
      <use xlink:href="#ArialMT-74" x="683.496094"/>
      <use xlink:href="#ArialMT-65" x="711.279297"/>
      <use xlink:href="#ArialMT-72" x="766.894531"/>
      <use xlink:href="#ArialMT-79" x="800.195312"/>
     </g>
    </g>
    <g id="line2d_55">
     <path d="M 333.9 141.36 
L 344.9 141.36 
L 355.9 141.36 
" style="fill: none; stroke: #8172b3; stroke-width: 1.5; stroke-linecap: round"/>
    </g>
    <g id="text_48">
     <!-- Comedy -->
     <g style="fill: #262626" transform="translate(364.7 145.21)scale(0.11 -0.11)">
      <use xlink:href="#ArialMT-43"/>
      <use xlink:href="#ArialMT-6f" x="72.216797"/>
      <use xlink:href="#ArialMT-6d" x="127.832031"/>
      <use xlink:href="#ArialMT-65" x="211.132812"/>
      <use xlink:href="#ArialMT-64" x="266.748047"/>
      <use xlink:href="#ArialMT-79" x="322.363281"/>
     </g>
    </g>
    <g id="line2d_56">
     <path d="M 333.9 157.04875 
L 344.9 157.04875 
L 355.9 157.04875 
" style="fill: none; stroke: #937860; stroke-width: 1.5; stroke-linecap: round"/>
    </g>
    <g id="text_49">
     <!-- Adult -->
     <g style="fill: #262626" transform="translate(364.7 160.89875)scale(0.11 -0.11)">
      <use xlink:href="#ArialMT-41"/>
      <use xlink:href="#ArialMT-64" x="66.699219"/>
      <use xlink:href="#ArialMT-75" x="122.314453"/>
      <use xlink:href="#ArialMT-6c" x="177.929688"/>
      <use xlink:href="#ArialMT-74" x="200.146484"/>
     </g>
    </g>
    <g id="line2d_57">
     <path d="M 333.9 172.742656 
L 344.9 172.742656 
L 355.9 172.742656 
" style="fill: none; stroke: #da8bc3; stroke-width: 1.5; stroke-linecap: round"/>
    </g>
    <g id="text_50">
     <!-- Spy / Espionage -->
     <g style="fill: #262626" transform="translate(364.7 176.592656)scale(0.11 -0.11)">
      <use xlink:href="#ArialMT-53"/>
      <use xlink:href="#ArialMT-70" x="66.699219"/>
      <use xlink:href="#ArialMT-79" x="122.314453"/>
      <use xlink:href="#ArialMT-20" x="172.314453"/>
      <use xlink:href="#ArialMT-2f" x="200.097656"/>
      <use xlink:href="#ArialMT-20" x="227.880859"/>
      <use xlink:href="#ArialMT-45" x="255.664062"/>
      <use xlink:href="#ArialMT-73" x="322.363281"/>
      <use xlink:href="#ArialMT-70" x="372.363281"/>
      <use xlink:href="#ArialMT-69" x="427.978516"/>
      <use xlink:href="#ArialMT-6f" x="450.195312"/>
      <use xlink:href="#ArialMT-6e" x="505.810547"/>
      <use xlink:href="#ArialMT-61" x="561.425781"/>
      <use xlink:href="#ArialMT-67" x="617.041016"/>
      <use xlink:href="#ArialMT-65" x="672.65625"/>
     </g>
    </g>
    <g id="line2d_58">
     <path d="M 333.9 188.431406 
L 344.9 188.431406 
L 355.9 188.431406 
" style="fill: none; stroke: #8c8c8c; stroke-width: 1.5; stroke-linecap: round"/>
    </g>
    <g id="text_51">
     <!-- Romance -->
     <g style="fill: #262626" transform="translate(364.7 192.281406)scale(0.11 -0.11)">
      <defs>
       <path id="ArialMT-52" d="M 503 0 
L 503 4581 
L 2534 4581 
Q 3147 4581 3465 4457 
Q 3784 4334 3975 4021 
Q 4166 3709 4166 3331 
Q 4166 2844 3850 2509 
Q 3534 2175 2875 2084 
Q 3116 1969 3241 1856 
Q 3506 1613 3744 1247 
L 4541 0 
L 3778 0 
L 3172 953 
Q 2906 1366 2734 1584 
Q 2563 1803 2427 1890 
Q 2291 1978 2150 2013 
Q 2047 2034 1813 2034 
L 1109 2034 
L 1109 0 
L 503 0 
z
M 1109 2559 
L 2413 2559 
Q 2828 2559 3062 2645 
Q 3297 2731 3419 2920 
Q 3541 3109 3541 3331 
Q 3541 3656 3305 3865 
Q 3069 4075 2559 4075 
L 1109 4075 
L 1109 2559 
z
" transform="scale(0.015625)"/>
      </defs>
      <use xlink:href="#ArialMT-52"/>
      <use xlink:href="#ArialMT-6f" x="72.216797"/>
      <use xlink:href="#ArialMT-6d" x="127.832031"/>
      <use xlink:href="#ArialMT-61" x="211.132812"/>
      <use xlink:href="#ArialMT-6e" x="266.748047"/>
      <use xlink:href="#ArialMT-63" x="322.363281"/>
      <use xlink:href="#ArialMT-65" x="372.363281"/>
     </g>
    </g>
   </g>
  </g>
 </g>
 <defs>
  <clipPath id="p0071cbf721">
   <rect x="324" y="64.8" width="2008.8" height="407.7"/>
  </clipPath>
 </defs>
</svg>
