<?xml version="1.0" encoding="utf-8" standalone="no"?>
<!DOCTYPE svg PUBLIC "-//W3C//DTD SVG 1.1//EN"
  "http://www.w3.org/Graphics/SVG/1.1/DTD/svg11.dtd">
<svg xmlns:xlink="http://www.w3.org/1999/xlink" width="3168pt" height="540pt" viewBox="0 0 3168 540" xmlns="http://www.w3.org/2000/svg" version="1.1">
 <metadata>
  <rdf:RDF xmlns:dc="http://purl.org/dc/elements/1.1/" xmlns:cc="http://creativecommons.org/ns#" xmlns:rdf="http://www.w3.org/1999/02/22-rdf-syntax-ns#">
   <cc:Work>
    <dc:type rdf:resource="http://purl.org/dc/dcmitype/StillImage"/>
    <dc:date>2022-04-03T17:17:34.829029</dc:date>
    <dc:format>image/svg+xml</dc:format>
    <dc:creator>
     <cc:Agent>
      <dc:title>Matplotlib v3.5.1, https://matplotlib.org/</dc:title>
     </cc:Agent>
    </dc:creator>
   </cc:Work>
  </rdf:RDF>
 </metadata>
 <defs>
  <style type="text/css">*{stroke-linejoin: round; stroke-linecap: butt}</style>
 </defs>
 <g id="figure_1">
  <g id="patch_1">
   <path d="M 0 540 
L 3168 540 
L 3168 0 
L 0 0 
z
" style="fill: #ffffff"/>
  </g>
  <g id="axes_1">
   <g id="patch_2">
    <path d="M 396 472.5 
L 2851.2 472.5 
L 2851.2 64.8 
L 396 64.8 
z
" style="fill: #eaeaf2"/>
   </g>
   <g id="matplotlib.axis_1">
    <g id="xtick_1">
     <g id="line2d_1">
      <path d="M 507.6 472.5 
L 507.6 64.8 
" clip-path="url(#p34d82cc958)" style="fill: none; stroke: #ffffff; stroke-linecap: round"/>
     </g>
     <g id="text_1">
      <!-- 1974 -->
      <g style="fill: #262626" transform="translate(493.472589 507.126815)rotate(-60)scale(0.11 -0.11)">
       <defs>
        <path id="ArialMT-31" d="M 2384 0 
L 1822 0 
L 1822 3584 
Q 1619 3391 1289 3197 
Q 959 3003 697 2906 
L 697 3450 
Q 1169 3672 1522 3987 
Q 1875 4303 2022 4600 
L 2384 4600 
L 2384 0 
z
" transform="scale(0.015625)"/>
        <path id="ArialMT-39" d="M 350 1059 
L 891 1109 
Q 959 728 1153 556 
Q 1347 384 1650 384 
Q 1909 384 2104 503 
Q 2300 622 2425 820 
Q 2550 1019 2634 1356 
Q 2719 1694 2719 2044 
Q 2719 2081 2716 2156 
Q 2547 1888 2255 1720 
Q 1963 1553 1622 1553 
Q 1053 1553 659 1965 
Q 266 2378 266 3053 
Q 266 3750 677 4175 
Q 1088 4600 1706 4600 
Q 2153 4600 2523 4359 
Q 2894 4119 3086 3673 
Q 3278 3228 3278 2384 
Q 3278 1506 3087 986 
Q 2897 466 2520 194 
Q 2144 -78 1638 -78 
Q 1100 -78 759 220 
Q 419 519 350 1059 
z
M 2653 3081 
Q 2653 3566 2395 3850 
Q 2138 4134 1775 4134 
Q 1400 4134 1122 3828 
Q 844 3522 844 3034 
Q 844 2597 1108 2323 
Q 1372 2050 1759 2050 
Q 2150 2050 2401 2323 
Q 2653 2597 2653 3081 
z
" transform="scale(0.015625)"/>
        <path id="ArialMT-37" d="M 303 3981 
L 303 4522 
L 3269 4522 
L 3269 4084 
Q 2831 3619 2401 2847 
Q 1972 2075 1738 1259 
Q 1569 684 1522 0 
L 944 0 
Q 953 541 1156 1306 
Q 1359 2072 1739 2783 
Q 2119 3494 2547 3981 
L 303 3981 
z
" transform="scale(0.015625)"/>
        <path id="ArialMT-34" d="M 2069 0 
L 2069 1097 
L 81 1097 
L 81 1613 
L 2172 4581 
L 2631 4581 
L 2631 1613 
L 3250 1613 
L 3250 1097 
L 2631 1097 
L 2631 0 
L 2069 0 
z
M 2069 1613 
L 2069 3678 
L 634 1613 
L 2069 1613 
z
" transform="scale(0.015625)"/>
       </defs>
       <use xlink:href="#ArialMT-31"/>
       <use xlink:href="#ArialMT-39" x="55.615234"/>
       <use xlink:href="#ArialMT-37" x="111.230469"/>
       <use xlink:href="#ArialMT-34" x="166.845703"/>
      </g>
     </g>
    </g>
    <g id="xtick_2">
     <g id="line2d_2">
      <path d="M 559.506977 472.5 
L 559.506977 64.8 
" clip-path="url(#p34d82cc958)" style="fill: none; stroke: #ffffff; stroke-linecap: round"/>
     </g>
     <g id="text_2">
      <!-- 1975 -->
      <g style="fill: #262626" transform="translate(545.379566 507.126815)rotate(-60)scale(0.11 -0.11)">
       <defs>
        <path id="ArialMT-35" d="M 266 1200 
L 856 1250 
Q 922 819 1161 601 
Q 1400 384 1738 384 
Q 2144 384 2425 690 
Q 2706 997 2706 1503 
Q 2706 1984 2436 2262 
Q 2166 2541 1728 2541 
Q 1456 2541 1237 2417 
Q 1019 2294 894 2097 
L 366 2166 
L 809 4519 
L 3088 4519 
L 3088 3981 
L 1259 3981 
L 1013 2750 
Q 1425 3038 1878 3038 
Q 2478 3038 2890 2622 
Q 3303 2206 3303 1553 
Q 3303 931 2941 478 
Q 2500 -78 1738 -78 
Q 1113 -78 717 272 
Q 322 622 266 1200 
z
" transform="scale(0.015625)"/>
       </defs>
       <use xlink:href="#ArialMT-31"/>
       <use xlink:href="#ArialMT-39" x="55.615234"/>
       <use xlink:href="#ArialMT-37" x="111.230469"/>
       <use xlink:href="#ArialMT-35" x="166.845703"/>
      </g>
     </g>
    </g>
    <g id="xtick_3">
     <g id="line2d_3">
      <path d="M 611.413953 472.5 
L 611.413953 64.8 
" clip-path="url(#p34d82cc958)" style="fill: none; stroke: #ffffff; stroke-linecap: round"/>
     </g>
     <g id="text_3">
      <!-- 1977 -->
      <g style="fill: #262626" transform="translate(597.286543 507.126815)rotate(-60)scale(0.11 -0.11)">
       <use xlink:href="#ArialMT-31"/>
       <use xlink:href="#ArialMT-39" x="55.615234"/>
       <use xlink:href="#ArialMT-37" x="111.230469"/>
       <use xlink:href="#ArialMT-37" x="166.845703"/>
      </g>
     </g>
    </g>
    <g id="xtick_4">
     <g id="line2d_4">
      <path d="M 663.32093 472.5 
L 663.32093 64.8 
" clip-path="url(#p34d82cc958)" style="fill: none; stroke: #ffffff; stroke-linecap: round"/>
     </g>
     <g id="text_4">
      <!-- 1978 -->
      <g style="fill: #262626" transform="translate(649.19352 507.126815)rotate(-60)scale(0.11 -0.11)">
       <defs>
        <path id="ArialMT-38" d="M 1131 2484 
Q 781 2613 612 2850 
Q 444 3088 444 3419 
Q 444 3919 803 4259 
Q 1163 4600 1759 4600 
Q 2359 4600 2725 4251 
Q 3091 3903 3091 3403 
Q 3091 3084 2923 2848 
Q 2756 2613 2416 2484 
Q 2838 2347 3058 2040 
Q 3278 1734 3278 1309 
Q 3278 722 2862 322 
Q 2447 -78 1769 -78 
Q 1091 -78 675 323 
Q 259 725 259 1325 
Q 259 1772 486 2073 
Q 713 2375 1131 2484 
z
M 1019 3438 
Q 1019 3113 1228 2906 
Q 1438 2700 1772 2700 
Q 2097 2700 2305 2904 
Q 2513 3109 2513 3406 
Q 2513 3716 2298 3927 
Q 2084 4138 1766 4138 
Q 1444 4138 1231 3931 
Q 1019 3725 1019 3438 
z
M 838 1322 
Q 838 1081 952 856 
Q 1066 631 1291 507 
Q 1516 384 1775 384 
Q 2178 384 2440 643 
Q 2703 903 2703 1303 
Q 2703 1709 2433 1975 
Q 2163 2241 1756 2241 
Q 1359 2241 1098 1978 
Q 838 1716 838 1322 
z
" transform="scale(0.015625)"/>
       </defs>
       <use xlink:href="#ArialMT-31"/>
       <use xlink:href="#ArialMT-39" x="55.615234"/>
       <use xlink:href="#ArialMT-37" x="111.230469"/>
       <use xlink:href="#ArialMT-38" x="166.845703"/>
      </g>
     </g>
    </g>
    <g id="xtick_5">
     <g id="line2d_5">
      <path d="M 715.227907 472.5 
L 715.227907 64.8 
" clip-path="url(#p34d82cc958)" style="fill: none; stroke: #ffffff; stroke-linecap: round"/>
     </g>
     <g id="text_5">
      <!-- 1979 -->
      <g style="fill: #262626" transform="translate(701.100496 507.126815)rotate(-60)scale(0.11 -0.11)">
       <use xlink:href="#ArialMT-31"/>
       <use xlink:href="#ArialMT-39" x="55.615234"/>
       <use xlink:href="#ArialMT-37" x="111.230469"/>
       <use xlink:href="#ArialMT-39" x="166.845703"/>
      </g>
     </g>
    </g>
    <g id="xtick_6">
     <g id="line2d_6">
      <path d="M 767.134884 472.5 
L 767.134884 64.8 
" clip-path="url(#p34d82cc958)" style="fill: none; stroke: #ffffff; stroke-linecap: round"/>
     </g>
     <g id="text_6">
      <!-- 1981 -->
      <g style="fill: #262626" transform="translate(753.007473 507.126815)rotate(-60)scale(0.11 -0.11)">
       <use xlink:href="#ArialMT-31"/>
       <use xlink:href="#ArialMT-39" x="55.615234"/>
       <use xlink:href="#ArialMT-38" x="111.230469"/>
       <use xlink:href="#ArialMT-31" x="166.845703"/>
      </g>
     </g>
    </g>
    <g id="xtick_7">
     <g id="line2d_7">
      <path d="M 819.04186 472.5 
L 819.04186 64.8 
" clip-path="url(#p34d82cc958)" style="fill: none; stroke: #ffffff; stroke-linecap: round"/>
     </g>
     <g id="text_7">
      <!-- 1982 -->
      <g style="fill: #262626" transform="translate(804.91445 507.126815)rotate(-60)scale(0.11 -0.11)">
       <defs>
        <path id="ArialMT-32" d="M 3222 541 
L 3222 0 
L 194 0 
Q 188 203 259 391 
Q 375 700 629 1000 
Q 884 1300 1366 1694 
Q 2113 2306 2375 2664 
Q 2638 3022 2638 3341 
Q 2638 3675 2398 3904 
Q 2159 4134 1775 4134 
Q 1369 4134 1125 3890 
Q 881 3647 878 3216 
L 300 3275 
Q 359 3922 746 4261 
Q 1134 4600 1788 4600 
Q 2447 4600 2831 4234 
Q 3216 3869 3216 3328 
Q 3216 3053 3103 2787 
Q 2991 2522 2730 2228 
Q 2469 1934 1863 1422 
Q 1356 997 1212 845 
Q 1069 694 975 541 
L 3222 541 
z
" transform="scale(0.015625)"/>
       </defs>
       <use xlink:href="#ArialMT-31"/>
       <use xlink:href="#ArialMT-39" x="55.615234"/>
       <use xlink:href="#ArialMT-38" x="111.230469"/>
       <use xlink:href="#ArialMT-32" x="166.845703"/>
      </g>
     </g>
    </g>
    <g id="xtick_8">
     <g id="line2d_8">
      <path d="M 870.948837 472.5 
L 870.948837 64.8 
" clip-path="url(#p34d82cc958)" style="fill: none; stroke: #ffffff; stroke-linecap: round"/>
     </g>
     <g id="text_8">
      <!-- 1983 -->
      <g style="fill: #262626" transform="translate(856.821427 507.126815)rotate(-60)scale(0.11 -0.11)">
       <defs>
        <path id="ArialMT-33" d="M 269 1209 
L 831 1284 
Q 928 806 1161 595 
Q 1394 384 1728 384 
Q 2125 384 2398 659 
Q 2672 934 2672 1341 
Q 2672 1728 2419 1979 
Q 2166 2231 1775 2231 
Q 1616 2231 1378 2169 
L 1441 2663 
Q 1497 2656 1531 2656 
Q 1891 2656 2178 2843 
Q 2466 3031 2466 3422 
Q 2466 3731 2256 3934 
Q 2047 4138 1716 4138 
Q 1388 4138 1169 3931 
Q 950 3725 888 3313 
L 325 3413 
Q 428 3978 793 4289 
Q 1159 4600 1703 4600 
Q 2078 4600 2393 4439 
Q 2709 4278 2876 4000 
Q 3044 3722 3044 3409 
Q 3044 3113 2884 2869 
Q 2725 2625 2413 2481 
Q 2819 2388 3044 2092 
Q 3269 1797 3269 1353 
Q 3269 753 2831 336 
Q 2394 -81 1725 -81 
Q 1122 -81 723 278 
Q 325 638 269 1209 
z
" transform="scale(0.015625)"/>
       </defs>
       <use xlink:href="#ArialMT-31"/>
       <use xlink:href="#ArialMT-39" x="55.615234"/>
       <use xlink:href="#ArialMT-38" x="111.230469"/>
       <use xlink:href="#ArialMT-33" x="166.845703"/>
      </g>
     </g>
    </g>
    <g id="xtick_9">
     <g id="line2d_9">
      <path d="M 922.855814 472.5 
L 922.855814 64.8 
" clip-path="url(#p34d82cc958)" style="fill: none; stroke: #ffffff; stroke-linecap: round"/>
     </g>
     <g id="text_9">
      <!-- 1984 -->
      <g style="fill: #262626" transform="translate(908.728403 507.126815)rotate(-60)scale(0.11 -0.11)">
       <use xlink:href="#ArialMT-31"/>
       <use xlink:href="#ArialMT-39" x="55.615234"/>
       <use xlink:href="#ArialMT-38" x="111.230469"/>
       <use xlink:href="#ArialMT-34" x="166.845703"/>
      </g>
     </g>
    </g>
    <g id="xtick_10">
     <g id="line2d_10">
      <path d="M 974.762791 472.5 
L 974.762791 64.8 
" clip-path="url(#p34d82cc958)" style="fill: none; stroke: #ffffff; stroke-linecap: round"/>
     </g>
     <g id="text_10">
      <!-- 1985 -->
      <g style="fill: #262626" transform="translate(960.63538 507.126815)rotate(-60)scale(0.11 -0.11)">
       <use xlink:href="#ArialMT-31"/>
       <use xlink:href="#ArialMT-39" x="55.615234"/>
       <use xlink:href="#ArialMT-38" x="111.230469"/>
       <use xlink:href="#ArialMT-35" x="166.845703"/>
      </g>
     </g>
    </g>
    <g id="xtick_11">
     <g id="line2d_11">
      <path d="M 1026.669767 472.5 
L 1026.669767 64.8 
" clip-path="url(#p34d82cc958)" style="fill: none; stroke: #ffffff; stroke-linecap: round"/>
     </g>
     <g id="text_11">
      <!-- 1986 -->
      <g style="fill: #262626" transform="translate(1012.542357 507.126815)rotate(-60)scale(0.11 -0.11)">
       <defs>
        <path id="ArialMT-36" d="M 3184 3459 
L 2625 3416 
Q 2550 3747 2413 3897 
Q 2184 4138 1850 4138 
Q 1581 4138 1378 3988 
Q 1113 3794 959 3422 
Q 806 3050 800 2363 
Q 1003 2672 1297 2822 
Q 1591 2972 1913 2972 
Q 2475 2972 2870 2558 
Q 3266 2144 3266 1488 
Q 3266 1056 3080 686 
Q 2894 316 2569 119 
Q 2244 -78 1831 -78 
Q 1128 -78 684 439 
Q 241 956 241 2144 
Q 241 3472 731 4075 
Q 1159 4600 1884 4600 
Q 2425 4600 2770 4297 
Q 3116 3994 3184 3459 
z
M 888 1484 
Q 888 1194 1011 928 
Q 1134 663 1356 523 
Q 1578 384 1822 384 
Q 2178 384 2434 671 
Q 2691 959 2691 1453 
Q 2691 1928 2437 2201 
Q 2184 2475 1800 2475 
Q 1419 2475 1153 2201 
Q 888 1928 888 1484 
z
" transform="scale(0.015625)"/>
       </defs>
       <use xlink:href="#ArialMT-31"/>
       <use xlink:href="#ArialMT-39" x="55.615234"/>
       <use xlink:href="#ArialMT-38" x="111.230469"/>
       <use xlink:href="#ArialMT-36" x="166.845703"/>
      </g>
     </g>
    </g>
    <g id="xtick_12">
     <g id="line2d_12">
      <path d="M 1078.576744 472.5 
L 1078.576744 64.8 
" clip-path="url(#p34d82cc958)" style="fill: none; stroke: #ffffff; stroke-linecap: round"/>
     </g>
     <g id="text_12">
      <!-- 1987 -->
      <g style="fill: #262626" transform="translate(1064.449334 507.126815)rotate(-60)scale(0.11 -0.11)">
       <use xlink:href="#ArialMT-31"/>
       <use xlink:href="#ArialMT-39" x="55.615234"/>
       <use xlink:href="#ArialMT-38" x="111.230469"/>
       <use xlink:href="#ArialMT-37" x="166.845703"/>
      </g>
     </g>
    </g>
    <g id="xtick_13">
     <g id="line2d_13">
      <path d="M 1130.483721 472.5 
L 1130.483721 64.8 
" clip-path="url(#p34d82cc958)" style="fill: none; stroke: #ffffff; stroke-linecap: round"/>
     </g>
     <g id="text_13">
      <!-- 1988 -->
      <g style="fill: #262626" transform="translate(1116.35631 507.126815)rotate(-60)scale(0.11 -0.11)">
       <use xlink:href="#ArialMT-31"/>
       <use xlink:href="#ArialMT-39" x="55.615234"/>
       <use xlink:href="#ArialMT-38" x="111.230469"/>
       <use xlink:href="#ArialMT-38" x="166.845703"/>
      </g>
     </g>
    </g>
    <g id="xtick_14">
     <g id="line2d_14">
      <path d="M 1182.390698 472.5 
L 1182.390698 64.8 
" clip-path="url(#p34d82cc958)" style="fill: none; stroke: #ffffff; stroke-linecap: round"/>
     </g>
     <g id="text_14">
      <!-- 1989 -->
      <g style="fill: #262626" transform="translate(1168.263287 507.126815)rotate(-60)scale(0.11 -0.11)">
       <use xlink:href="#ArialMT-31"/>
       <use xlink:href="#ArialMT-39" x="55.615234"/>
       <use xlink:href="#ArialMT-38" x="111.230469"/>
       <use xlink:href="#ArialMT-39" x="166.845703"/>
      </g>
     </g>
    </g>
    <g id="xtick_15">
     <g id="line2d_15">
      <path d="M 1234.297674 472.5 
L 1234.297674 64.8 
" clip-path="url(#p34d82cc958)" style="fill: none; stroke: #ffffff; stroke-linecap: round"/>
     </g>
     <g id="text_15">
      <!-- 1990 -->
      <g style="fill: #262626" transform="translate(1220.170264 507.126815)rotate(-60)scale(0.11 -0.11)">
       <defs>
        <path id="ArialMT-30" d="M 266 2259 
Q 266 3072 433 3567 
Q 600 4063 929 4331 
Q 1259 4600 1759 4600 
Q 2128 4600 2406 4451 
Q 2684 4303 2865 4023 
Q 3047 3744 3150 3342 
Q 3253 2941 3253 2259 
Q 3253 1453 3087 958 
Q 2922 463 2592 192 
Q 2263 -78 1759 -78 
Q 1097 -78 719 397 
Q 266 969 266 2259 
z
M 844 2259 
Q 844 1131 1108 757 
Q 1372 384 1759 384 
Q 2147 384 2411 759 
Q 2675 1134 2675 2259 
Q 2675 3391 2411 3762 
Q 2147 4134 1753 4134 
Q 1366 4134 1134 3806 
Q 844 3388 844 2259 
z
" transform="scale(0.015625)"/>
       </defs>
       <use xlink:href="#ArialMT-31"/>
       <use xlink:href="#ArialMT-39" x="55.615234"/>
       <use xlink:href="#ArialMT-39" x="111.230469"/>
       <use xlink:href="#ArialMT-30" x="166.845703"/>
      </g>
     </g>
    </g>
    <g id="xtick_16">
     <g id="line2d_16">
      <path d="M 1286.204651 472.5 
L 1286.204651 64.8 
" clip-path="url(#p34d82cc958)" style="fill: none; stroke: #ffffff; stroke-linecap: round"/>
     </g>
     <g id="text_16">
      <!-- 1991 -->
      <g style="fill: #262626" transform="translate(1272.077241 507.126815)rotate(-60)scale(0.11 -0.11)">
       <use xlink:href="#ArialMT-31"/>
       <use xlink:href="#ArialMT-39" x="55.615234"/>
       <use xlink:href="#ArialMT-39" x="111.230469"/>
       <use xlink:href="#ArialMT-31" x="166.845703"/>
      </g>
     </g>
    </g>
    <g id="xtick_17">
     <g id="line2d_17">
      <path d="M 1338.111628 472.5 
L 1338.111628 64.8 
" clip-path="url(#p34d82cc958)" style="fill: none; stroke: #ffffff; stroke-linecap: round"/>
     </g>
     <g id="text_17">
      <!-- 1992 -->
      <g style="fill: #262626" transform="translate(1323.984217 507.126815)rotate(-60)scale(0.11 -0.11)">
       <use xlink:href="#ArialMT-31"/>
       <use xlink:href="#ArialMT-39" x="55.615234"/>
       <use xlink:href="#ArialMT-39" x="111.230469"/>
       <use xlink:href="#ArialMT-32" x="166.845703"/>
      </g>
     </g>
    </g>
    <g id="xtick_18">
     <g id="line2d_18">
      <path d="M 1390.018605 472.5 
L 1390.018605 64.8 
" clip-path="url(#p34d82cc958)" style="fill: none; stroke: #ffffff; stroke-linecap: round"/>
     </g>
     <g id="text_18">
      <!-- 1993 -->
      <g style="fill: #262626" transform="translate(1375.891194 507.126815)rotate(-60)scale(0.11 -0.11)">
       <use xlink:href="#ArialMT-31"/>
       <use xlink:href="#ArialMT-39" x="55.615234"/>
       <use xlink:href="#ArialMT-39" x="111.230469"/>
       <use xlink:href="#ArialMT-33" x="166.845703"/>
      </g>
     </g>
    </g>
    <g id="xtick_19">
     <g id="line2d_19">
      <path d="M 1441.925581 472.5 
L 1441.925581 64.8 
" clip-path="url(#p34d82cc958)" style="fill: none; stroke: #ffffff; stroke-linecap: round"/>
     </g>
     <g id="text_19">
      <!-- 1994 -->
      <g style="fill: #262626" transform="translate(1427.798171 507.126815)rotate(-60)scale(0.11 -0.11)">
       <use xlink:href="#ArialMT-31"/>
       <use xlink:href="#ArialMT-39" x="55.615234"/>
       <use xlink:href="#ArialMT-39" x="111.230469"/>
       <use xlink:href="#ArialMT-34" x="166.845703"/>
      </g>
     </g>
    </g>
    <g id="xtick_20">
     <g id="line2d_20">
      <path d="M 1493.832558 472.5 
L 1493.832558 64.8 
" clip-path="url(#p34d82cc958)" style="fill: none; stroke: #ffffff; stroke-linecap: round"/>
     </g>
     <g id="text_20">
      <!-- 1995 -->
      <g style="fill: #262626" transform="translate(1479.705148 507.126815)rotate(-60)scale(0.11 -0.11)">
       <use xlink:href="#ArialMT-31"/>
       <use xlink:href="#ArialMT-39" x="55.615234"/>
       <use xlink:href="#ArialMT-39" x="111.230469"/>
       <use xlink:href="#ArialMT-35" x="166.845703"/>
      </g>
     </g>
    </g>
    <g id="xtick_21">
     <g id="line2d_21">
      <path d="M 1545.739535 472.5 
L 1545.739535 64.8 
" clip-path="url(#p34d82cc958)" style="fill: none; stroke: #ffffff; stroke-linecap: round"/>
     </g>
     <g id="text_21">
      <!-- 1996 -->
      <g style="fill: #262626" transform="translate(1531.612124 507.126815)rotate(-60)scale(0.11 -0.11)">
       <use xlink:href="#ArialMT-31"/>
       <use xlink:href="#ArialMT-39" x="55.615234"/>
       <use xlink:href="#ArialMT-39" x="111.230469"/>
       <use xlink:href="#ArialMT-36" x="166.845703"/>
      </g>
     </g>
    </g>
    <g id="xtick_22">
     <g id="line2d_22">
      <path d="M 1597.646512 472.5 
L 1597.646512 64.8 
" clip-path="url(#p34d82cc958)" style="fill: none; stroke: #ffffff; stroke-linecap: round"/>
     </g>
     <g id="text_22">
      <!-- 1997 -->
      <g style="fill: #262626" transform="translate(1583.519101 507.126815)rotate(-60)scale(0.11 -0.11)">
       <use xlink:href="#ArialMT-31"/>
       <use xlink:href="#ArialMT-39" x="55.615234"/>
       <use xlink:href="#ArialMT-39" x="111.230469"/>
       <use xlink:href="#ArialMT-37" x="166.845703"/>
      </g>
     </g>
    </g>
    <g id="xtick_23">
     <g id="line2d_23">
      <path d="M 1649.553488 472.5 
L 1649.553488 64.8 
" clip-path="url(#p34d82cc958)" style="fill: none; stroke: #ffffff; stroke-linecap: round"/>
     </g>
     <g id="text_23">
      <!-- 1998 -->
      <g style="fill: #262626" transform="translate(1635.426078 507.126815)rotate(-60)scale(0.11 -0.11)">
       <use xlink:href="#ArialMT-31"/>
       <use xlink:href="#ArialMT-39" x="55.615234"/>
       <use xlink:href="#ArialMT-39" x="111.230469"/>
       <use xlink:href="#ArialMT-38" x="166.845703"/>
      </g>
     </g>
    </g>
    <g id="xtick_24">
     <g id="line2d_24">
      <path d="M 1701.460465 472.5 
L 1701.460465 64.8 
" clip-path="url(#p34d82cc958)" style="fill: none; stroke: #ffffff; stroke-linecap: round"/>
     </g>
     <g id="text_24">
      <!-- 1999 -->
      <g style="fill: #262626" transform="translate(1687.333055 507.126815)rotate(-60)scale(0.11 -0.11)">
       <use xlink:href="#ArialMT-31"/>
       <use xlink:href="#ArialMT-39" x="55.615234"/>
       <use xlink:href="#ArialMT-39" x="111.230469"/>
       <use xlink:href="#ArialMT-39" x="166.845703"/>
      </g>
     </g>
    </g>
    <g id="xtick_25">
     <g id="line2d_25">
      <path d="M 1753.367442 472.5 
L 1753.367442 64.8 
" clip-path="url(#p34d82cc958)" style="fill: none; stroke: #ffffff; stroke-linecap: round"/>
     </g>
     <g id="text_25">
      <!-- 2000 -->
      <g style="fill: #262626" transform="translate(1739.240031 507.126815)rotate(-60)scale(0.11 -0.11)">
       <use xlink:href="#ArialMT-32"/>
       <use xlink:href="#ArialMT-30" x="55.615234"/>
       <use xlink:href="#ArialMT-30" x="111.230469"/>
       <use xlink:href="#ArialMT-30" x="166.845703"/>
      </g>
     </g>
    </g>
    <g id="xtick_26">
     <g id="line2d_26">
      <path d="M 1805.274419 472.5 
L 1805.274419 64.8 
" clip-path="url(#p34d82cc958)" style="fill: none; stroke: #ffffff; stroke-linecap: round"/>
     </g>
     <g id="text_26">
      <!-- 2001 -->
      <g style="fill: #262626" transform="translate(1791.147008 507.126815)rotate(-60)scale(0.11 -0.11)">
       <use xlink:href="#ArialMT-32"/>
       <use xlink:href="#ArialMT-30" x="55.615234"/>
       <use xlink:href="#ArialMT-30" x="111.230469"/>
       <use xlink:href="#ArialMT-31" x="166.845703"/>
      </g>
     </g>
    </g>
    <g id="xtick_27">
     <g id="line2d_27">
      <path d="M 1857.181395 472.5 
L 1857.181395 64.8 
" clip-path="url(#p34d82cc958)" style="fill: none; stroke: #ffffff; stroke-linecap: round"/>
     </g>
     <g id="text_27">
      <!-- 2002 -->
      <g style="fill: #262626" transform="translate(1843.053985 507.126815)rotate(-60)scale(0.11 -0.11)">
       <use xlink:href="#ArialMT-32"/>
       <use xlink:href="#ArialMT-30" x="55.615234"/>
       <use xlink:href="#ArialMT-30" x="111.230469"/>
       <use xlink:href="#ArialMT-32" x="166.845703"/>
      </g>
     </g>
    </g>
    <g id="xtick_28">
     <g id="line2d_28">
      <path d="M 1909.088372 472.5 
L 1909.088372 64.8 
" clip-path="url(#p34d82cc958)" style="fill: none; stroke: #ffffff; stroke-linecap: round"/>
     </g>
     <g id="text_28">
      <!-- 2003 -->
      <g style="fill: #262626" transform="translate(1894.960962 507.126815)rotate(-60)scale(0.11 -0.11)">
       <use xlink:href="#ArialMT-32"/>
       <use xlink:href="#ArialMT-30" x="55.615234"/>
       <use xlink:href="#ArialMT-30" x="111.230469"/>
       <use xlink:href="#ArialMT-33" x="166.845703"/>
      </g>
     </g>
    </g>
    <g id="xtick_29">
     <g id="line2d_29">
      <path d="M 1960.995349 472.5 
L 1960.995349 64.8 
" clip-path="url(#p34d82cc958)" style="fill: none; stroke: #ffffff; stroke-linecap: round"/>
     </g>
     <g id="text_29">
      <!-- 2004 -->
      <g style="fill: #262626" transform="translate(1946.867938 507.126815)rotate(-60)scale(0.11 -0.11)">
       <use xlink:href="#ArialMT-32"/>
       <use xlink:href="#ArialMT-30" x="55.615234"/>
       <use xlink:href="#ArialMT-30" x="111.230469"/>
       <use xlink:href="#ArialMT-34" x="166.845703"/>
      </g>
     </g>
    </g>
    <g id="xtick_30">
     <g id="line2d_30">
      <path d="M 2012.902326 472.5 
L 2012.902326 64.8 
" clip-path="url(#p34d82cc958)" style="fill: none; stroke: #ffffff; stroke-linecap: round"/>
     </g>
     <g id="text_30">
      <!-- 2005 -->
      <g style="fill: #262626" transform="translate(1998.774915 507.126815)rotate(-60)scale(0.11 -0.11)">
       <use xlink:href="#ArialMT-32"/>
       <use xlink:href="#ArialMT-30" x="55.615234"/>
       <use xlink:href="#ArialMT-30" x="111.230469"/>
       <use xlink:href="#ArialMT-35" x="166.845703"/>
      </g>
     </g>
    </g>
    <g id="xtick_31">
     <g id="line2d_31">
      <path d="M 2064.809302 472.5 
L 2064.809302 64.8 
" clip-path="url(#p34d82cc958)" style="fill: none; stroke: #ffffff; stroke-linecap: round"/>
     </g>
     <g id="text_31">
      <!-- 2006 -->
      <g style="fill: #262626" transform="translate(2050.681892 507.126815)rotate(-60)scale(0.11 -0.11)">
       <use xlink:href="#ArialMT-32"/>
       <use xlink:href="#ArialMT-30" x="55.615234"/>
       <use xlink:href="#ArialMT-30" x="111.230469"/>
       <use xlink:href="#ArialMT-36" x="166.845703"/>
      </g>
     </g>
    </g>
    <g id="xtick_32">
     <g id="line2d_32">
      <path d="M 2116.716279 472.5 
L 2116.716279 64.8 
" clip-path="url(#p34d82cc958)" style="fill: none; stroke: #ffffff; stroke-linecap: round"/>
     </g>
     <g id="text_32">
      <!-- 2007 -->
      <g style="fill: #262626" transform="translate(2102.588869 507.126815)rotate(-60)scale(0.11 -0.11)">
       <use xlink:href="#ArialMT-32"/>
       <use xlink:href="#ArialMT-30" x="55.615234"/>
       <use xlink:href="#ArialMT-30" x="111.230469"/>
       <use xlink:href="#ArialMT-37" x="166.845703"/>
      </g>
     </g>
    </g>
    <g id="xtick_33">
     <g id="line2d_33">
      <path d="M 2168.623256 472.5 
L 2168.623256 64.8 
" clip-path="url(#p34d82cc958)" style="fill: none; stroke: #ffffff; stroke-linecap: round"/>
     </g>
     <g id="text_33">
      <!-- 2008 -->
      <g style="fill: #262626" transform="translate(2154.495845 507.126815)rotate(-60)scale(0.11 -0.11)">
       <use xlink:href="#ArialMT-32"/>
       <use xlink:href="#ArialMT-30" x="55.615234"/>
       <use xlink:href="#ArialMT-30" x="111.230469"/>
       <use xlink:href="#ArialMT-38" x="166.845703"/>
      </g>
     </g>
    </g>
    <g id="xtick_34">
     <g id="line2d_34">
      <path d="M 2220.530233 472.5 
L 2220.530233 64.8 
" clip-path="url(#p34d82cc958)" style="fill: none; stroke: #ffffff; stroke-linecap: round"/>
     </g>
     <g id="text_34">
      <!-- 2009 -->
      <g style="fill: #262626" transform="translate(2206.402822 507.126815)rotate(-60)scale(0.11 -0.11)">
       <use xlink:href="#ArialMT-32"/>
       <use xlink:href="#ArialMT-30" x="55.615234"/>
       <use xlink:href="#ArialMT-30" x="111.230469"/>
       <use xlink:href="#ArialMT-39" x="166.845703"/>
      </g>
     </g>
    </g>
    <g id="xtick_35">
     <g id="line2d_35">
      <path d="M 2272.437209 472.5 
L 2272.437209 64.8 
" clip-path="url(#p34d82cc958)" style="fill: none; stroke: #ffffff; stroke-linecap: round"/>
     </g>
     <g id="text_35">
      <!-- 2010 -->
      <g style="fill: #262626" transform="translate(2258.309799 507.126815)rotate(-60)scale(0.11 -0.11)">
       <use xlink:href="#ArialMT-32"/>
       <use xlink:href="#ArialMT-30" x="55.615234"/>
       <use xlink:href="#ArialMT-31" x="111.230469"/>
       <use xlink:href="#ArialMT-30" x="166.845703"/>
      </g>
     </g>
    </g>
    <g id="xtick_36">
     <g id="line2d_36">
      <path d="M 2324.344186 472.5 
L 2324.344186 64.8 
" clip-path="url(#p34d82cc958)" style="fill: none; stroke: #ffffff; stroke-linecap: round"/>
     </g>
     <g id="text_36">
      <!-- 2011 -->
      <g style="fill: #262626" transform="translate(2310.622401 506.424252)rotate(-60)scale(0.11 -0.11)">
       <use xlink:href="#ArialMT-32"/>
       <use xlink:href="#ArialMT-30" x="55.615234"/>
       <use xlink:href="#ArialMT-31" x="111.230469"/>
       <use xlink:href="#ArialMT-31" x="159.470703"/>
      </g>
     </g>
    </g>
    <g id="xtick_37">
     <g id="line2d_37">
      <path d="M 2376.251163 472.5 
L 2376.251163 64.8 
" clip-path="url(#p34d82cc958)" style="fill: none; stroke: #ffffff; stroke-linecap: round"/>
     </g>
     <g id="text_37">
      <!-- 2012 -->
      <g style="fill: #262626" transform="translate(2362.123752 507.126815)rotate(-60)scale(0.11 -0.11)">
       <use xlink:href="#ArialMT-32"/>
       <use xlink:href="#ArialMT-30" x="55.615234"/>
       <use xlink:href="#ArialMT-31" x="111.230469"/>
       <use xlink:href="#ArialMT-32" x="166.845703"/>
      </g>
     </g>
    </g>
    <g id="xtick_38">
     <g id="line2d_38">
      <path d="M 2428.15814 472.5 
L 2428.15814 64.8 
" clip-path="url(#p34d82cc958)" style="fill: none; stroke: #ffffff; stroke-linecap: round"/>
     </g>
     <g id="text_38">
      <!-- 2013 -->
      <g style="fill: #262626" transform="translate(2414.030729 507.126815)rotate(-60)scale(0.11 -0.11)">
       <use xlink:href="#ArialMT-32"/>
       <use xlink:href="#ArialMT-30" x="55.615234"/>
       <use xlink:href="#ArialMT-31" x="111.230469"/>
       <use xlink:href="#ArialMT-33" x="166.845703"/>
      </g>
     </g>
    </g>
    <g id="xtick_39">
     <g id="line2d_39">
      <path d="M 2480.065116 472.5 
L 2480.065116 64.8 
" clip-path="url(#p34d82cc958)" style="fill: none; stroke: #ffffff; stroke-linecap: round"/>
     </g>
     <g id="text_39">
      <!-- 2014 -->
      <g style="fill: #262626" transform="translate(2465.937706 507.126815)rotate(-60)scale(0.11 -0.11)">
       <use xlink:href="#ArialMT-32"/>
       <use xlink:href="#ArialMT-30" x="55.615234"/>
       <use xlink:href="#ArialMT-31" x="111.230469"/>
       <use xlink:href="#ArialMT-34" x="166.845703"/>
      </g>
     </g>
    </g>
    <g id="xtick_40">
     <g id="line2d_40">
      <path d="M 2531.972093 472.5 
L 2531.972093 64.8 
" clip-path="url(#p34d82cc958)" style="fill: none; stroke: #ffffff; stroke-linecap: round"/>
     </g>
     <g id="text_40">
      <!-- 2015 -->
      <g style="fill: #262626" transform="translate(2517.844682 507.126815)rotate(-60)scale(0.11 -0.11)">
       <use xlink:href="#ArialMT-32"/>
       <use xlink:href="#ArialMT-30" x="55.615234"/>
       <use xlink:href="#ArialMT-31" x="111.230469"/>
       <use xlink:href="#ArialMT-35" x="166.845703"/>
      </g>
     </g>
    </g>
    <g id="xtick_41">
     <g id="line2d_41">
      <path d="M 2583.87907 472.5 
L 2583.87907 64.8 
" clip-path="url(#p34d82cc958)" style="fill: none; stroke: #ffffff; stroke-linecap: round"/>
     </g>
     <g id="text_41">
      <!-- 2016 -->
      <g style="fill: #262626" transform="translate(2569.751659 507.126815)rotate(-60)scale(0.11 -0.11)">
       <use xlink:href="#ArialMT-32"/>
       <use xlink:href="#ArialMT-30" x="55.615234"/>
       <use xlink:href="#ArialMT-31" x="111.230469"/>
       <use xlink:href="#ArialMT-36" x="166.845703"/>
      </g>
     </g>
    </g>
    <g id="xtick_42">
     <g id="line2d_42">
      <path d="M 2635.786047 472.5 
L 2635.786047 64.8 
" clip-path="url(#p34d82cc958)" style="fill: none; stroke: #ffffff; stroke-linecap: round"/>
     </g>
     <g id="text_42">
      <!-- 2017 -->
      <g style="fill: #262626" transform="translate(2621.658636 507.126815)rotate(-60)scale(0.11 -0.11)">
       <use xlink:href="#ArialMT-32"/>
       <use xlink:href="#ArialMT-30" x="55.615234"/>
       <use xlink:href="#ArialMT-31" x="111.230469"/>
       <use xlink:href="#ArialMT-37" x="166.845703"/>
      </g>
     </g>
    </g>
    <g id="xtick_43">
     <g id="line2d_43">
      <path d="M 2687.693023 472.5 
L 2687.693023 64.8 
" clip-path="url(#p34d82cc958)" style="fill: none; stroke: #ffffff; stroke-linecap: round"/>
     </g>
     <g id="text_43">
      <!-- 2018 -->
      <g style="fill: #262626" transform="translate(2673.565613 507.126815)rotate(-60)scale(0.11 -0.11)">
       <use xlink:href="#ArialMT-32"/>
       <use xlink:href="#ArialMT-30" x="55.615234"/>
       <use xlink:href="#ArialMT-31" x="111.230469"/>
       <use xlink:href="#ArialMT-38" x="166.845703"/>
      </g>
     </g>
    </g>
    <g id="xtick_44">
     <g id="line2d_44">
      <path d="M 2739.6 472.5 
L 2739.6 64.8 
" clip-path="url(#p34d82cc958)" style="fill: none; stroke: #ffffff; stroke-linecap: round"/>
     </g>
     <g id="text_44">
      <!-- 2019 -->
      <g style="fill: #262626" transform="translate(2725.472589 507.126815)rotate(-60)scale(0.11 -0.11)">
       <use xlink:href="#ArialMT-32"/>
       <use xlink:href="#ArialMT-30" x="55.615234"/>
       <use xlink:href="#ArialMT-31" x="111.230469"/>
       <use xlink:href="#ArialMT-39" x="166.845703"/>
      </g>
     </g>
    </g>
   </g>
   <g id="matplotlib.axis_2">
    <g id="ytick_1">
     <g id="line2d_45">
      <path d="M 396 453.968182 
L 2851.2 453.968182 
" clip-path="url(#p34d82cc958)" style="fill: none; stroke: #ffffff; stroke-linecap: round"/>
     </g>
     <g id="text_45">
      <!-- 0 -->
      <g style="fill: #262626" transform="translate(380.382969 457.904979)scale(0.11 -0.11)">
       <use xlink:href="#ArialMT-30"/>
      </g>
     </g>
    </g>
    <g id="ytick_2">
     <g id="line2d_46">
      <path d="M 396 401.02013 
L 2851.2 401.02013 
" clip-path="url(#p34d82cc958)" style="fill: none; stroke: #ffffff; stroke-linecap: round"/>
     </g>
     <g id="text_46">
      <!-- 20 -->
      <g style="fill: #262626" transform="translate(374.265938 404.956927)scale(0.11 -0.11)">
       <use xlink:href="#ArialMT-32"/>
       <use xlink:href="#ArialMT-30" x="55.615234"/>
      </g>
     </g>
    </g>
    <g id="ytick_3">
     <g id="line2d_47">
      <path d="M 396 348.072078 
L 2851.2 348.072078 
" clip-path="url(#p34d82cc958)" style="fill: none; stroke: #ffffff; stroke-linecap: round"/>
     </g>
     <g id="text_47">
      <!-- 40 -->
      <g style="fill: #262626" transform="translate(374.265938 352.008875)scale(0.11 -0.11)">
       <use xlink:href="#ArialMT-34"/>
       <use xlink:href="#ArialMT-30" x="55.615234"/>
      </g>
     </g>
    </g>
    <g id="ytick_4">
     <g id="line2d_48">
      <path d="M 396 295.124026 
L 2851.2 295.124026 
" clip-path="url(#p34d82cc958)" style="fill: none; stroke: #ffffff; stroke-linecap: round"/>
     </g>
     <g id="text_48">
      <!-- 60 -->
      <g style="fill: #262626" transform="translate(374.265938 299.060823)scale(0.11 -0.11)">
       <use xlink:href="#ArialMT-36"/>
       <use xlink:href="#ArialMT-30" x="55.615234"/>
      </g>
     </g>
    </g>
    <g id="ytick_5">
     <g id="line2d_49">
      <path d="M 396 242.175974 
L 2851.2 242.175974 
" clip-path="url(#p34d82cc958)" style="fill: none; stroke: #ffffff; stroke-linecap: round"/>
     </g>
     <g id="text_49">
      <!-- 80 -->
      <g style="fill: #262626" transform="translate(374.265938 246.112771)scale(0.11 -0.11)">
       <use xlink:href="#ArialMT-38"/>
       <use xlink:href="#ArialMT-30" x="55.615234"/>
      </g>
     </g>
    </g>
    <g id="ytick_6">
     <g id="line2d_50">
      <path d="M 396 189.227922 
L 2851.2 189.227922 
" clip-path="url(#p34d82cc958)" style="fill: none; stroke: #ffffff; stroke-linecap: round"/>
     </g>
     <g id="text_50">
      <!-- 100 -->
      <g style="fill: #262626" transform="translate(368.148906 193.164719)scale(0.11 -0.11)">
       <use xlink:href="#ArialMT-31"/>
       <use xlink:href="#ArialMT-30" x="55.615234"/>
       <use xlink:href="#ArialMT-30" x="111.230469"/>
      </g>
     </g>
    </g>
    <g id="ytick_7">
     <g id="line2d_51">
      <path d="M 396 136.27987 
L 2851.2 136.27987 
" clip-path="url(#p34d82cc958)" style="fill: none; stroke: #ffffff; stroke-linecap: round"/>
     </g>
     <g id="text_51">
      <!-- 120 -->
      <g style="fill: #262626" transform="translate(368.148906 140.216667)scale(0.11 -0.11)">
       <use xlink:href="#ArialMT-31"/>
       <use xlink:href="#ArialMT-32" x="55.615234"/>
       <use xlink:href="#ArialMT-30" x="111.230469"/>
      </g>
     </g>
    </g>
    <g id="ytick_8">
     <g id="line2d_52">
      <path d="M 396 83.331818 
L 2851.2 83.331818 
" clip-path="url(#p34d82cc958)" style="fill: none; stroke: #ffffff; stroke-linecap: round"/>
     </g>
     <g id="text_52">
      <!-- 140 -->
      <g style="fill: #262626" transform="translate(368.148906 87.268615)scale(0.11 -0.11)">
       <use xlink:href="#ArialMT-31"/>
       <use xlink:href="#ArialMT-34" x="55.615234"/>
       <use xlink:href="#ArialMT-30" x="111.230469"/>
      </g>
     </g>
    </g>
   </g>
   <g id="line2d_53">
    <path d="M 507.6 453.968182 
L 559.506977 453.968182 
L 611.413953 453.968182 
L 663.32093 453.968182 
L 715.227907 453.968182 
L 767.134884 453.968182 
L 819.04186 453.968182 
L 870.948837 453.968182 
L 922.855814 446.025974 
L 974.762791 451.320779 
L 1026.669767 446.025974 
L 1078.576744 435.436364 
L 1130.483721 403.667532 
L 1182.390698 371.898701 
L 1234.297674 369.251299 
L 1286.204651 334.835065 
L 1338.111628 358.661688 
L 1390.018605 348.072078 
L 1441.925581 295.124026 
L 1493.832558 303.066234 
L 1545.739535 308.361039 
L 1597.646512 369.251299 
L 1649.553488 390.430519 
L 1701.460465 348.072078 
L 1753.367442 321.598052 
L 1805.274419 345.424675 
L 1857.181395 350.719481 
L 1909.088372 324.245455 
L 1960.995349 305.713636 
L 2012.902326 308.361039 
L 2064.809302 300.418831 
L 2116.716279 316.303247 
L 2168.623256 308.361039 
L 2220.530233 303.066234 
L 2272.437209 300.418831 
L 2324.344186 305.713636 
L 2376.251163 348.072078 
L 2428.15814 414.257143 
L 2480.065116 393.077922 
L 2531.972093 419.551948 
L 2583.87907 430.141558 
L 2635.786047 438.083766 
L 2687.693023 438.083766 
L 2739.6 432.788961 
" clip-path="url(#p34d82cc958)" style="fill: none; stroke: #4c72b0; stroke-width: 1.5; stroke-linecap: round"/>
   </g>
   <g id="line2d_54">
    <path d="M 507.6 453.968182 
L 559.506977 451.320779 
L 611.413953 432.788961 
L 663.32093 432.788961 
L 715.227907 453.968182 
L 767.134884 448.673377 
L 819.04186 451.320779 
L 870.948837 416.904545 
L 922.855814 358.661688 
L 974.762791 382.488312 
L 1026.669767 348.072078 
L 1078.576744 236.881169 
L 1130.483721 215.701948 
L 1182.390698 83.331818 
L 1234.297674 146.869481 
L 1286.204651 136.27987 
L 1338.111628 247.470779 
L 1390.018605 292.476623 
L 1441.925581 311.008442 
L 1493.832558 305.713636 
L 1545.739535 324.245455 
L 1597.646512 311.008442 
L 1649.553488 385.135714 
L 1701.460465 350.719481 
L 1753.367442 334.835065 
L 1805.274419 363.956494 
L 1857.181395 350.719481 
L 1909.088372 345.424675 
L 1960.995349 342.777273 
L 2012.902326 342.777273 
L 2064.809302 316.303247 
L 2116.716279 263.355195 
L 2168.623256 324.245455 
L 2220.530233 369.251299 
L 2272.437209 326.892857 
L 2324.344186 401.02013 
L 2376.251163 395.725325 
L 2428.15814 419.551948 
L 2480.065116 430.141558 
L 2531.972093 424.846753 
L 2583.87907 446.025974 
L 2635.786047 427.494156 
L 2687.693023 358.661688 
L 2739.6 356.014286 
" clip-path="url(#p34d82cc958)" style="fill: none; stroke: #dd8452; stroke-width: 1.5; stroke-linecap: round"/>
   </g>
   <g id="line2d_55">
    <path d="M 507.6 453.968182 
L 559.506977 453.968182 
L 611.413953 443.378571 
L 663.32093 446.025974 
L 715.227907 453.968182 
L 767.134884 451.320779 
L 819.04186 453.968182 
L 870.948837 438.083766 
L 922.855814 411.60974 
L 974.762791 424.846753 
L 1026.669767 379.840909 
L 1078.576744 273.944805 
L 1130.483721 289.829221 
L 1182.390698 194.522727 
L 1234.297674 194.522727 
L 1286.204651 231.586364 
L 1338.111628 305.713636 
L 1390.018605 342.777273 
L 1441.925581 297.771429 
L 1493.832558 318.950649 
L 1545.739535 258.06039 
L 1597.646512 273.944805 
L 1649.553488 350.719481 
L 1701.460465 337.482468 
L 1753.367442 273.944805 
L 1805.274419 305.713636 
L 1857.181395 252.765584 
L 1909.088372 136.27987 
L 1960.995349 88.626623 
L 2012.902326 136.27987 
L 2064.809302 162.753896 
L 2116.716279 133.632468 
L 2168.623256 149.516883 
L 2220.530233 234.233766 
L 2272.437209 220.996753 
L 2324.344186 228.938961 
L 2376.251163 213.054545 
L 2428.15814 308.361039 
L 2480.065116 287.181818 
L 2531.972093 353.366883 
L 2583.87907 382.488312 
L 2635.786047 387.783117 
L 2687.693023 361.309091 
L 2739.6 363.956494 
" clip-path="url(#p34d82cc958)" style="fill: none; stroke: #55a868; stroke-width: 1.5; stroke-linecap: round"/>
   </g>
   <g id="line2d_56">
    <path d="M 507.6 453.968182 
L 559.506977 453.968182 
L 611.413953 453.968182 
L 663.32093 453.968182 
L 715.227907 453.968182 
L 767.134884 453.968182 
L 819.04186 453.968182 
L 870.948837 446.025974 
L 922.855814 395.725325 
L 974.762791 435.436364 
L 1026.669767 408.962338 
L 1078.576744 382.488312 
L 1130.483721 374.546104 
L 1182.390698 305.713636 
L 1234.297674 273.944805 
L 1286.204651 250.118182 
L 1338.111628 255.412987 
L 1390.018605 231.586364 
L 1441.925581 276.592208 
L 1493.832558 345.424675 
L 1545.739535 356.014286 
L 1597.646512 358.661688 
L 1649.553488 408.962338 
L 1701.460465 401.02013 
L 1753.367442 403.667532 
L 1805.274419 406.314935 
L 1857.181395 390.430519 
L 1909.088372 340.12987 
L 1960.995349 316.303247 
L 2012.902326 313.655844 
L 2064.809302 358.661688 
L 2116.716279 300.418831 
L 2168.623256 311.008442 
L 2220.530233 311.008442 
L 2272.437209 266.002597 
L 2324.344186 337.482468 
L 2376.251163 382.488312 
L 2428.15814 387.783117 
L 2480.065116 366.603896 
L 2531.972093 369.251299 
L 2583.87907 416.904545 
L 2635.786047 366.603896 
L 2687.693023 350.719481 
L 2739.6 318.950649 
" clip-path="url(#p34d82cc958)" style="fill: none; stroke: #c44e52; stroke-width: 1.5; stroke-linecap: round"/>
   </g>
   <g id="line2d_57">
    <path d="M 507.6 453.968182 
L 559.506977 453.968182 
L 611.413953 453.968182 
L 663.32093 453.968182 
L 715.227907 453.968182 
L 767.134884 453.968182 
L 819.04186 453.968182 
L 870.948837 451.320779 
L 922.855814 448.673377 
L 974.762791 438.083766 
L 1026.669767 427.494156 
L 1078.576744 395.725325 
L 1130.483721 382.488312 
L 1182.390698 377.193506 
L 1234.297674 284.534416 
L 1286.204651 308.361039 
L 1338.111628 263.355195 
L 1390.018605 244.823377 
L 1441.925581 205.112338 
L 1493.832558 263.355195 
L 1545.739535 197.17013 
L 1597.646512 239.528571 
L 1649.553488 324.245455 
L 1701.460465 303.066234 
L 1753.367442 313.655844 
L 1805.274419 279.23961 
L 1857.181395 337.482468 
L 1909.088372 287.181818 
L 1960.995349 215.701948 
L 2012.902326 242.175974 
L 2064.809302 303.066234 
L 2116.716279 202.464935 
L 2168.623256 160.106494 
L 2220.530233 144.222078 
L 2272.437209 152.164286 
L 2324.344186 213.054545 
L 2376.251163 268.65 
L 2428.15814 276.592208 
L 2480.065116 332.187662 
L 2531.972093 361.309091 
L 2583.87907 374.546104 
L 2635.786047 395.725325 
L 2687.693023 393.077922 
L 2739.6 369.251299 
" clip-path="url(#p34d82cc958)" style="fill: none; stroke: #8172b3; stroke-width: 1.5; stroke-linecap: round"/>
   </g>
   <g id="patch_3">
    <path d="M 396 472.5 
L 396 64.8 
" style="fill: none; stroke: #ffffff; stroke-width: 1.25; stroke-linejoin: miter; stroke-linecap: square"/>
   </g>
   <g id="patch_4">
    <path d="M 2851.2 472.5 
L 2851.2 64.8 
" style="fill: none; stroke: #ffffff; stroke-width: 1.25; stroke-linejoin: miter; stroke-linecap: square"/>
   </g>
   <g id="patch_5">
    <path d="M 396 472.5 
L 2851.2 472.5 
" style="fill: none; stroke: #ffffff; stroke-width: 1.25; stroke-linejoin: miter; stroke-linecap: square"/>
   </g>
   <g id="patch_6">
    <path d="M 396 64.8 
L 2851.2 64.8 
" style="fill: none; stroke: #ffffff; stroke-width: 1.25; stroke-linejoin: miter; stroke-linecap: square"/>
   </g>
   <g id="text_53">
    <!-- Timeline for genres in cat 4_all _['Germany']  above threshold = 0.05 of total = 15220.0 for platforms ['Atari', 'Atari ST', 'NES', 'Genesis', 'SNES', 'PlayStation', 'SEGA Saturn', 'PlayStation 2', 'Xbox', 'PlayStation 3', 'Xbox 360', 'Wii', 'PlayStation 4', 'Wii U', 'Nintendo Switch', 'DOS', 'PC-88', 'MSX', 'Amiga', 'Commodore 64', 'Sharp X68000', 'Windows', 'PC-98', 'FM Towns', 'Macintosh', 'Game Boy Advance', 'PSP', 'Nintendo DS', 'Nintendo 3DS', 'PS Vita', 'Arcade'] -->
    <g style="fill: #262626" transform="translate(410.228438 58.8)scale(0.12 -0.12)">
     <defs>
      <path id="ArialMT-54" d="M 1659 0 
L 1659 4041 
L 150 4041 
L 150 4581 
L 3781 4581 
L 3781 4041 
L 2266 4041 
L 2266 0 
L 1659 0 
z
" transform="scale(0.015625)"/>
      <path id="ArialMT-69" d="M 425 3934 
L 425 4581 
L 988 4581 
L 988 3934 
L 425 3934 
z
M 425 0 
L 425 3319 
L 988 3319 
L 988 0 
L 425 0 
z
" transform="scale(0.015625)"/>
      <path id="ArialMT-6d" d="M 422 0 
L 422 3319 
L 925 3319 
L 925 2853 
Q 1081 3097 1340 3245 
Q 1600 3394 1931 3394 
Q 2300 3394 2536 3241 
Q 2772 3088 2869 2813 
Q 3263 3394 3894 3394 
Q 4388 3394 4653 3120 
Q 4919 2847 4919 2278 
L 4919 0 
L 4359 0 
L 4359 2091 
Q 4359 2428 4304 2576 
Q 4250 2725 4106 2815 
Q 3963 2906 3769 2906 
Q 3419 2906 3187 2673 
Q 2956 2441 2956 1928 
L 2956 0 
L 2394 0 
L 2394 2156 
Q 2394 2531 2256 2718 
Q 2119 2906 1806 2906 
Q 1569 2906 1367 2781 
Q 1166 2656 1075 2415 
Q 984 2175 984 1722 
L 984 0 
L 422 0 
z
" transform="scale(0.015625)"/>
      <path id="ArialMT-65" d="M 2694 1069 
L 3275 997 
Q 3138 488 2766 206 
Q 2394 -75 1816 -75 
Q 1088 -75 661 373 
Q 234 822 234 1631 
Q 234 2469 665 2931 
Q 1097 3394 1784 3394 
Q 2450 3394 2872 2941 
Q 3294 2488 3294 1666 
Q 3294 1616 3291 1516 
L 816 1516 
Q 847 969 1125 678 
Q 1403 388 1819 388 
Q 2128 388 2347 550 
Q 2566 713 2694 1069 
z
M 847 1978 
L 2700 1978 
Q 2663 2397 2488 2606 
Q 2219 2931 1791 2931 
Q 1403 2931 1139 2672 
Q 875 2413 847 1978 
z
" transform="scale(0.015625)"/>
      <path id="ArialMT-6c" d="M 409 0 
L 409 4581 
L 972 4581 
L 972 0 
L 409 0 
z
" transform="scale(0.015625)"/>
      <path id="ArialMT-6e" d="M 422 0 
L 422 3319 
L 928 3319 
L 928 2847 
Q 1294 3394 1984 3394 
Q 2284 3394 2536 3286 
Q 2788 3178 2913 3003 
Q 3038 2828 3088 2588 
Q 3119 2431 3119 2041 
L 3119 0 
L 2556 0 
L 2556 2019 
Q 2556 2363 2490 2533 
Q 2425 2703 2258 2804 
Q 2091 2906 1866 2906 
Q 1506 2906 1245 2678 
Q 984 2450 984 1813 
L 984 0 
L 422 0 
z
" transform="scale(0.015625)"/>
      <path id="ArialMT-20" transform="scale(0.015625)"/>
      <path id="ArialMT-66" d="M 556 0 
L 556 2881 
L 59 2881 
L 59 3319 
L 556 3319 
L 556 3672 
Q 556 4006 616 4169 
Q 697 4388 901 4523 
Q 1106 4659 1475 4659 
Q 1713 4659 2000 4603 
L 1916 4113 
Q 1741 4144 1584 4144 
Q 1328 4144 1222 4034 
Q 1116 3925 1116 3625 
L 1116 3319 
L 1763 3319 
L 1763 2881 
L 1116 2881 
L 1116 0 
L 556 0 
z
" transform="scale(0.015625)"/>
      <path id="ArialMT-6f" d="M 213 1659 
Q 213 2581 725 3025 
Q 1153 3394 1769 3394 
Q 2453 3394 2887 2945 
Q 3322 2497 3322 1706 
Q 3322 1066 3130 698 
Q 2938 331 2570 128 
Q 2203 -75 1769 -75 
Q 1072 -75 642 372 
Q 213 819 213 1659 
z
M 791 1659 
Q 791 1022 1069 705 
Q 1347 388 1769 388 
Q 2188 388 2466 706 
Q 2744 1025 2744 1678 
Q 2744 2294 2464 2611 
Q 2184 2928 1769 2928 
Q 1347 2928 1069 2612 
Q 791 2297 791 1659 
z
" transform="scale(0.015625)"/>
      <path id="ArialMT-72" d="M 416 0 
L 416 3319 
L 922 3319 
L 922 2816 
Q 1116 3169 1280 3281 
Q 1444 3394 1641 3394 
Q 1925 3394 2219 3213 
L 2025 2691 
Q 1819 2813 1613 2813 
Q 1428 2813 1281 2702 
Q 1134 2591 1072 2394 
Q 978 2094 978 1738 
L 978 0 
L 416 0 
z
" transform="scale(0.015625)"/>
      <path id="ArialMT-67" d="M 319 -275 
L 866 -356 
Q 900 -609 1056 -725 
Q 1266 -881 1628 -881 
Q 2019 -881 2231 -725 
Q 2444 -569 2519 -288 
Q 2563 -116 2559 434 
Q 2191 0 1641 0 
Q 956 0 581 494 
Q 206 988 206 1678 
Q 206 2153 378 2554 
Q 550 2956 876 3175 
Q 1203 3394 1644 3394 
Q 2231 3394 2613 2919 
L 2613 3319 
L 3131 3319 
L 3131 450 
Q 3131 -325 2973 -648 
Q 2816 -972 2473 -1159 
Q 2131 -1347 1631 -1347 
Q 1038 -1347 672 -1080 
Q 306 -813 319 -275 
z
M 784 1719 
Q 784 1066 1043 766 
Q 1303 466 1694 466 
Q 2081 466 2343 764 
Q 2606 1063 2606 1700 
Q 2606 2309 2336 2618 
Q 2066 2928 1684 2928 
Q 1309 2928 1046 2623 
Q 784 2319 784 1719 
z
" transform="scale(0.015625)"/>
      <path id="ArialMT-73" d="M 197 991 
L 753 1078 
Q 800 744 1014 566 
Q 1228 388 1613 388 
Q 2000 388 2187 545 
Q 2375 703 2375 916 
Q 2375 1106 2209 1216 
Q 2094 1291 1634 1406 
Q 1016 1563 777 1677 
Q 538 1791 414 1992 
Q 291 2194 291 2438 
Q 291 2659 392 2848 
Q 494 3038 669 3163 
Q 800 3259 1026 3326 
Q 1253 3394 1513 3394 
Q 1903 3394 2198 3281 
Q 2494 3169 2634 2976 
Q 2775 2784 2828 2463 
L 2278 2388 
Q 2241 2644 2061 2787 
Q 1881 2931 1553 2931 
Q 1166 2931 1000 2803 
Q 834 2675 834 2503 
Q 834 2394 903 2306 
Q 972 2216 1119 2156 
Q 1203 2125 1616 2013 
Q 2213 1853 2448 1751 
Q 2684 1650 2818 1456 
Q 2953 1263 2953 975 
Q 2953 694 2789 445 
Q 2625 197 2315 61 
Q 2006 -75 1616 -75 
Q 969 -75 630 194 
Q 291 463 197 991 
z
" transform="scale(0.015625)"/>
      <path id="ArialMT-63" d="M 2588 1216 
L 3141 1144 
Q 3050 572 2676 248 
Q 2303 -75 1759 -75 
Q 1078 -75 664 370 
Q 250 816 250 1647 
Q 250 2184 428 2587 
Q 606 2991 970 3192 
Q 1334 3394 1763 3394 
Q 2303 3394 2647 3120 
Q 2991 2847 3088 2344 
L 2541 2259 
Q 2463 2594 2264 2762 
Q 2066 2931 1784 2931 
Q 1359 2931 1093 2626 
Q 828 2322 828 1663 
Q 828 994 1084 691 
Q 1341 388 1753 388 
Q 2084 388 2306 591 
Q 2528 794 2588 1216 
z
" transform="scale(0.015625)"/>
      <path id="ArialMT-61" d="M 2588 409 
Q 2275 144 1986 34 
Q 1697 -75 1366 -75 
Q 819 -75 525 192 
Q 231 459 231 875 
Q 231 1119 342 1320 
Q 453 1522 633 1644 
Q 813 1766 1038 1828 
Q 1203 1872 1538 1913 
Q 2219 1994 2541 2106 
Q 2544 2222 2544 2253 
Q 2544 2597 2384 2738 
Q 2169 2928 1744 2928 
Q 1347 2928 1158 2789 
Q 969 2650 878 2297 
L 328 2372 
Q 403 2725 575 2942 
Q 747 3159 1072 3276 
Q 1397 3394 1825 3394 
Q 2250 3394 2515 3294 
Q 2781 3194 2906 3042 
Q 3031 2891 3081 2659 
Q 3109 2516 3109 2141 
L 3109 1391 
Q 3109 606 3145 398 
Q 3181 191 3288 0 
L 2700 0 
Q 2613 175 2588 409 
z
M 2541 1666 
Q 2234 1541 1622 1453 
Q 1275 1403 1131 1340 
Q 988 1278 909 1158 
Q 831 1038 831 891 
Q 831 666 1001 516 
Q 1172 366 1500 366 
Q 1825 366 2078 508 
Q 2331 650 2450 897 
Q 2541 1088 2541 1459 
L 2541 1666 
z
" transform="scale(0.015625)"/>
      <path id="ArialMT-74" d="M 1650 503 
L 1731 6 
Q 1494 -44 1306 -44 
Q 1000 -44 831 53 
Q 663 150 594 308 
Q 525 466 525 972 
L 525 2881 
L 113 2881 
L 113 3319 
L 525 3319 
L 525 4141 
L 1084 4478 
L 1084 3319 
L 1650 3319 
L 1650 2881 
L 1084 2881 
L 1084 941 
Q 1084 700 1114 631 
Q 1144 563 1211 522 
Q 1278 481 1403 481 
Q 1497 481 1650 503 
z
" transform="scale(0.015625)"/>
      <path id="ArialMT-5f" d="M -97 -1272 
L -97 -866 
L 3631 -866 
L 3631 -1272 
L -97 -1272 
z
" transform="scale(0.015625)"/>
      <path id="ArialMT-5b" d="M 434 -1272 
L 434 4581 
L 1675 4581 
L 1675 4116 
L 997 4116 
L 997 -806 
L 1675 -806 
L 1675 -1272 
L 434 -1272 
z
" transform="scale(0.015625)"/>
      <path id="ArialMT-27" d="M 425 2959 
L 281 3816 
L 281 4581 
L 922 4581 
L 922 3816 
L 772 2959 
L 425 2959 
z
" transform="scale(0.015625)"/>
      <path id="ArialMT-47" d="M 2638 1797 
L 2638 2334 
L 4578 2338 
L 4578 638 
Q 4131 281 3656 101 
Q 3181 -78 2681 -78 
Q 2006 -78 1454 211 
Q 903 500 622 1047 
Q 341 1594 341 2269 
Q 341 2938 620 3517 
Q 900 4097 1425 4378 
Q 1950 4659 2634 4659 
Q 3131 4659 3532 4498 
Q 3934 4338 4162 4050 
Q 4391 3763 4509 3300 
L 3963 3150 
Q 3859 3500 3706 3700 
Q 3553 3900 3268 4020 
Q 2984 4141 2638 4141 
Q 2222 4141 1919 4014 
Q 1616 3888 1430 3681 
Q 1244 3475 1141 3228 
Q 966 2803 966 2306 
Q 966 1694 1177 1281 
Q 1388 869 1791 669 
Q 2194 469 2647 469 
Q 3041 469 3416 620 
Q 3791 772 3984 944 
L 3984 1797 
L 2638 1797 
z
" transform="scale(0.015625)"/>
      <path id="ArialMT-79" d="M 397 -1278 
L 334 -750 
Q 519 -800 656 -800 
Q 844 -800 956 -737 
Q 1069 -675 1141 -563 
Q 1194 -478 1313 -144 
Q 1328 -97 1363 -6 
L 103 3319 
L 709 3319 
L 1400 1397 
Q 1534 1031 1641 628 
Q 1738 1016 1872 1384 
L 2581 3319 
L 3144 3319 
L 1881 -56 
Q 1678 -603 1566 -809 
Q 1416 -1088 1222 -1217 
Q 1028 -1347 759 -1347 
Q 597 -1347 397 -1278 
z
" transform="scale(0.015625)"/>
      <path id="ArialMT-5d" d="M 1363 -1272 
L 122 -1272 
L 122 -806 
L 800 -806 
L 800 4116 
L 122 4116 
L 122 4581 
L 1363 4581 
L 1363 -1272 
z
" transform="scale(0.015625)"/>
      <path id="ArialMT-62" d="M 941 0 
L 419 0 
L 419 4581 
L 981 4581 
L 981 2947 
Q 1338 3394 1891 3394 
Q 2197 3394 2470 3270 
Q 2744 3147 2920 2923 
Q 3097 2700 3197 2384 
Q 3297 2069 3297 1709 
Q 3297 856 2875 390 
Q 2453 -75 1863 -75 
Q 1275 -75 941 416 
L 941 0 
z
M 934 1684 
Q 934 1088 1097 822 
Q 1363 388 1816 388 
Q 2184 388 2453 708 
Q 2722 1028 2722 1663 
Q 2722 2313 2464 2622 
Q 2206 2931 1841 2931 
Q 1472 2931 1203 2611 
Q 934 2291 934 1684 
z
" transform="scale(0.015625)"/>
      <path id="ArialMT-76" d="M 1344 0 
L 81 3319 
L 675 3319 
L 1388 1331 
Q 1503 1009 1600 663 
Q 1675 925 1809 1294 
L 2547 3319 
L 3125 3319 
L 1869 0 
L 1344 0 
z
" transform="scale(0.015625)"/>
      <path id="ArialMT-68" d="M 422 0 
L 422 4581 
L 984 4581 
L 984 2938 
Q 1378 3394 1978 3394 
Q 2347 3394 2619 3248 
Q 2891 3103 3008 2847 
Q 3125 2591 3125 2103 
L 3125 0 
L 2563 0 
L 2563 2103 
Q 2563 2525 2380 2717 
Q 2197 2909 1863 2909 
Q 1613 2909 1392 2779 
Q 1172 2650 1078 2428 
Q 984 2206 984 1816 
L 984 0 
L 422 0 
z
" transform="scale(0.015625)"/>
      <path id="ArialMT-64" d="M 2575 0 
L 2575 419 
Q 2259 -75 1647 -75 
Q 1250 -75 917 144 
Q 584 363 401 755 
Q 219 1147 219 1656 
Q 219 2153 384 2558 
Q 550 2963 881 3178 
Q 1213 3394 1622 3394 
Q 1922 3394 2156 3267 
Q 2391 3141 2538 2938 
L 2538 4581 
L 3097 4581 
L 3097 0 
L 2575 0 
z
M 797 1656 
Q 797 1019 1065 703 
Q 1334 388 1700 388 
Q 2069 388 2326 689 
Q 2584 991 2584 1609 
Q 2584 2291 2321 2609 
Q 2059 2928 1675 2928 
Q 1300 2928 1048 2622 
Q 797 2316 797 1656 
z
" transform="scale(0.015625)"/>
      <path id="ArialMT-3d" d="M 3381 2694 
L 356 2694 
L 356 3219 
L 3381 3219 
L 3381 2694 
z
M 3381 1303 
L 356 1303 
L 356 1828 
L 3381 1828 
L 3381 1303 
z
" transform="scale(0.015625)"/>
      <path id="ArialMT-2e" d="M 581 0 
L 581 641 
L 1222 641 
L 1222 0 
L 581 0 
z
" transform="scale(0.015625)"/>
      <path id="ArialMT-70" d="M 422 -1272 
L 422 3319 
L 934 3319 
L 934 2888 
Q 1116 3141 1344 3267 
Q 1572 3394 1897 3394 
Q 2322 3394 2647 3175 
Q 2972 2956 3137 2557 
Q 3303 2159 3303 1684 
Q 3303 1175 3120 767 
Q 2938 359 2589 142 
Q 2241 -75 1856 -75 
Q 1575 -75 1351 44 
Q 1128 163 984 344 
L 984 -1272 
L 422 -1272 
z
M 931 1641 
Q 931 1000 1190 694 
Q 1450 388 1819 388 
Q 2194 388 2461 705 
Q 2728 1022 2728 1688 
Q 2728 2322 2467 2637 
Q 2206 2953 1844 2953 
Q 1484 2953 1207 2617 
Q 931 2281 931 1641 
z
" transform="scale(0.015625)"/>
      <path id="ArialMT-41" d="M -9 0 
L 1750 4581 
L 2403 4581 
L 4278 0 
L 3588 0 
L 3053 1388 
L 1138 1388 
L 634 0 
L -9 0 
z
M 1313 1881 
L 2866 1881 
L 2388 3150 
Q 2169 3728 2063 4100 
Q 1975 3659 1816 3225 
L 1313 1881 
z
" transform="scale(0.015625)"/>
      <path id="ArialMT-2c" d="M 569 0 
L 569 641 
L 1209 641 
L 1209 0 
Q 1209 -353 1084 -570 
Q 959 -788 688 -906 
L 531 -666 
Q 709 -588 793 -436 
Q 878 -284 888 0 
L 569 0 
z
" transform="scale(0.015625)"/>
      <path id="ArialMT-53" d="M 288 1472 
L 859 1522 
Q 900 1178 1048 958 
Q 1197 738 1509 602 
Q 1822 466 2213 466 
Q 2559 466 2825 569 
Q 3091 672 3220 851 
Q 3350 1031 3350 1244 
Q 3350 1459 3225 1620 
Q 3100 1781 2813 1891 
Q 2628 1963 1997 2114 
Q 1366 2266 1113 2400 
Q 784 2572 623 2826 
Q 463 3081 463 3397 
Q 463 3744 659 4045 
Q 856 4347 1234 4503 
Q 1613 4659 2075 4659 
Q 2584 4659 2973 4495 
Q 3363 4331 3572 4012 
Q 3781 3694 3797 3291 
L 3216 3247 
Q 3169 3681 2898 3903 
Q 2628 4125 2100 4125 
Q 1550 4125 1298 3923 
Q 1047 3722 1047 3438 
Q 1047 3191 1225 3031 
Q 1400 2872 2139 2705 
Q 2878 2538 3153 2413 
Q 3553 2228 3743 1945 
Q 3934 1663 3934 1294 
Q 3934 928 3725 604 
Q 3516 281 3123 101 
Q 2731 -78 2241 -78 
Q 1619 -78 1198 103 
Q 778 284 539 648 
Q 300 1013 288 1472 
z
" transform="scale(0.015625)"/>
      <path id="ArialMT-4e" d="M 488 0 
L 488 4581 
L 1109 4581 
L 3516 984 
L 3516 4581 
L 4097 4581 
L 4097 0 
L 3475 0 
L 1069 3600 
L 1069 0 
L 488 0 
z
" transform="scale(0.015625)"/>
      <path id="ArialMT-45" d="M 506 0 
L 506 4581 
L 3819 4581 
L 3819 4041 
L 1113 4041 
L 1113 2638 
L 3647 2638 
L 3647 2100 
L 1113 2100 
L 1113 541 
L 3925 541 
L 3925 0 
L 506 0 
z
" transform="scale(0.015625)"/>
      <path id="ArialMT-50" d="M 494 0 
L 494 4581 
L 2222 4581 
Q 2678 4581 2919 4538 
Q 3256 4481 3484 4323 
Q 3713 4166 3852 3881 
Q 3991 3597 3991 3256 
Q 3991 2672 3619 2267 
Q 3247 1863 2275 1863 
L 1100 1863 
L 1100 0 
L 494 0 
z
M 1100 2403 
L 2284 2403 
Q 2872 2403 3119 2622 
Q 3366 2841 3366 3238 
Q 3366 3525 3220 3729 
Q 3075 3934 2838 4000 
Q 2684 4041 2272 4041 
L 1100 4041 
L 1100 2403 
z
" transform="scale(0.015625)"/>
      <path id="ArialMT-75" d="M 2597 0 
L 2597 488 
Q 2209 -75 1544 -75 
Q 1250 -75 995 37 
Q 741 150 617 320 
Q 494 491 444 738 
Q 409 903 409 1263 
L 409 3319 
L 972 3319 
L 972 1478 
Q 972 1038 1006 884 
Q 1059 663 1231 536 
Q 1403 409 1656 409 
Q 1909 409 2131 539 
Q 2353 669 2445 892 
Q 2538 1116 2538 1541 
L 2538 3319 
L 3100 3319 
L 3100 0 
L 2597 0 
z
" transform="scale(0.015625)"/>
      <path id="ArialMT-58" d="M 28 0 
L 1800 2388 
L 238 4581 
L 959 4581 
L 1791 3406 
Q 2050 3041 2159 2844 
Q 2313 3094 2522 3366 
L 3444 4581 
L 4103 4581 
L 2494 2422 
L 4228 0 
L 3478 0 
L 2325 1634 
Q 2228 1775 2125 1941 
Q 1972 1691 1906 1597 
L 756 0 
L 28 0 
z
" transform="scale(0.015625)"/>
      <path id="ArialMT-78" d="M 47 0 
L 1259 1725 
L 138 3319 
L 841 3319 
L 1350 2541 
Q 1494 2319 1581 2169 
Q 1719 2375 1834 2534 
L 2394 3319 
L 3066 3319 
L 1919 1756 
L 3153 0 
L 2463 0 
L 1781 1031 
L 1600 1309 
L 728 0 
L 47 0 
z
" transform="scale(0.015625)"/>
      <path id="ArialMT-57" d="M 1294 0 
L 78 4581 
L 700 4581 
L 1397 1578 
Q 1509 1106 1591 641 
Q 1766 1375 1797 1488 
L 2669 4581 
L 3400 4581 
L 4056 2263 
Q 4303 1400 4413 641 
Q 4500 1075 4641 1638 
L 5359 4581 
L 5969 4581 
L 4713 0 
L 4128 0 
L 3163 3491 
Q 3041 3928 3019 4028 
Q 2947 3713 2884 3491 
L 1913 0 
L 1294 0 
z
" transform="scale(0.015625)"/>
      <path id="ArialMT-55" d="M 3500 4581 
L 4106 4581 
L 4106 1934 
Q 4106 1244 3950 837 
Q 3794 431 3386 176 
Q 2978 -78 2316 -78 
Q 1672 -78 1262 144 
Q 853 366 678 786 
Q 503 1206 503 1934 
L 503 4581 
L 1109 4581 
L 1109 1938 
Q 1109 1341 1220 1058 
Q 1331 775 1601 622 
Q 1872 469 2263 469 
Q 2931 469 3215 772 
Q 3500 1075 3500 1938 
L 3500 4581 
z
" transform="scale(0.015625)"/>
      <path id="ArialMT-77" d="M 1034 0 
L 19 3319 
L 600 3319 
L 1128 1403 
L 1325 691 
Q 1338 744 1497 1375 
L 2025 3319 
L 2603 3319 
L 3100 1394 
L 3266 759 
L 3456 1400 
L 4025 3319 
L 4572 3319 
L 3534 0 
L 2950 0 
L 2422 1988 
L 2294 2553 
L 1622 0 
L 1034 0 
z
" transform="scale(0.015625)"/>
      <path id="ArialMT-44" d="M 494 0 
L 494 4581 
L 2072 4581 
Q 2606 4581 2888 4516 
Q 3281 4425 3559 4188 
Q 3922 3881 4101 3404 
Q 4281 2928 4281 2316 
Q 4281 1794 4159 1391 
Q 4038 988 3847 723 
Q 3656 459 3429 307 
Q 3203 156 2883 78 
Q 2563 0 2147 0 
L 494 0 
z
M 1100 541 
L 2078 541 
Q 2531 541 2789 625 
Q 3047 709 3200 863 
Q 3416 1078 3536 1442 
Q 3656 1806 3656 2325 
Q 3656 3044 3420 3430 
Q 3184 3816 2847 3947 
Q 2603 4041 2063 4041 
L 1100 4041 
L 1100 541 
z
" transform="scale(0.015625)"/>
      <path id="ArialMT-4f" d="M 309 2231 
Q 309 3372 921 4017 
Q 1534 4663 2503 4663 
Q 3138 4663 3647 4359 
Q 4156 4056 4423 3514 
Q 4691 2972 4691 2284 
Q 4691 1588 4409 1038 
Q 4128 488 3612 205 
Q 3097 -78 2500 -78 
Q 1853 -78 1343 234 
Q 834 547 571 1087 
Q 309 1628 309 2231 
z
M 934 2222 
Q 934 1394 1379 917 
Q 1825 441 2497 441 
Q 3181 441 3623 922 
Q 4066 1403 4066 2288 
Q 4066 2847 3877 3264 
Q 3688 3681 3323 3911 
Q 2959 4141 2506 4141 
Q 1863 4141 1398 3698 
Q 934 3256 934 2222 
z
" transform="scale(0.015625)"/>
      <path id="ArialMT-43" d="M 3763 1606 
L 4369 1453 
Q 4178 706 3683 314 
Q 3188 -78 2472 -78 
Q 1731 -78 1267 223 
Q 803 525 561 1097 
Q 319 1669 319 2325 
Q 319 3041 592 3573 
Q 866 4106 1370 4382 
Q 1875 4659 2481 4659 
Q 3169 4659 3637 4309 
Q 4106 3959 4291 3325 
L 3694 3184 
Q 3534 3684 3231 3912 
Q 2928 4141 2469 4141 
Q 1941 4141 1586 3887 
Q 1231 3634 1087 3207 
Q 944 2781 944 2328 
Q 944 1744 1114 1308 
Q 1284 872 1643 656 
Q 2003 441 2422 441 
Q 2931 441 3284 734 
Q 3638 1028 3763 1606 
z
" transform="scale(0.015625)"/>
      <path id="ArialMT-2d" d="M 203 1375 
L 203 1941 
L 1931 1941 
L 1931 1375 
L 203 1375 
z
" transform="scale(0.015625)"/>
      <path id="ArialMT-4d" d="M 475 0 
L 475 4581 
L 1388 4581 
L 2472 1338 
Q 2622 884 2691 659 
Q 2769 909 2934 1394 
L 4031 4581 
L 4847 4581 
L 4847 0 
L 4263 0 
L 4263 3834 
L 2931 0 
L 2384 0 
L 1059 3900 
L 1059 0 
L 475 0 
z
" transform="scale(0.015625)"/>
      <path id="ArialMT-46" d="M 525 0 
L 525 4581 
L 3616 4581 
L 3616 4041 
L 1131 4041 
L 1131 2622 
L 3281 2622 
L 3281 2081 
L 1131 2081 
L 1131 0 
L 525 0 
z
" transform="scale(0.015625)"/>
      <path id="ArialMT-42" d="M 469 0 
L 469 4581 
L 2188 4581 
Q 2713 4581 3030 4442 
Q 3347 4303 3526 4014 
Q 3706 3725 3706 3409 
Q 3706 3116 3547 2856 
Q 3388 2597 3066 2438 
Q 3481 2316 3704 2022 
Q 3928 1728 3928 1328 
Q 3928 1006 3792 729 
Q 3656 453 3456 303 
Q 3256 153 2954 76 
Q 2653 0 2216 0 
L 469 0 
z
M 1075 2656 
L 2066 2656 
Q 2469 2656 2644 2709 
Q 2875 2778 2992 2937 
Q 3109 3097 3109 3338 
Q 3109 3566 3000 3739 
Q 2891 3913 2687 3977 
Q 2484 4041 1991 4041 
L 1075 4041 
L 1075 2656 
z
M 1075 541 
L 2216 541 
Q 2509 541 2628 563 
Q 2838 600 2978 687 
Q 3119 775 3209 942 
Q 3300 1109 3300 1328 
Q 3300 1584 3169 1773 
Q 3038 1963 2805 2039 
Q 2572 2116 2134 2116 
L 1075 2116 
L 1075 541 
z
" transform="scale(0.015625)"/>
      <path id="ArialMT-56" d="M 1803 0 
L 28 4581 
L 684 4581 
L 1875 1253 
Q 2019 853 2116 503 
Q 2222 878 2363 1253 
L 3600 4581 
L 4219 4581 
L 2425 0 
L 1803 0 
z
" transform="scale(0.015625)"/>
     </defs>
     <use xlink:href="#ArialMT-54"/>
     <use xlink:href="#ArialMT-69" x="57.333984"/>
     <use xlink:href="#ArialMT-6d" x="79.550781"/>
     <use xlink:href="#ArialMT-65" x="162.851562"/>
     <use xlink:href="#ArialMT-6c" x="218.466797"/>
     <use xlink:href="#ArialMT-69" x="240.683594"/>
     <use xlink:href="#ArialMT-6e" x="262.900391"/>
     <use xlink:href="#ArialMT-65" x="318.515625"/>
     <use xlink:href="#ArialMT-20" x="374.130859"/>
     <use xlink:href="#ArialMT-66" x="401.914062"/>
     <use xlink:href="#ArialMT-6f" x="429.697266"/>
     <use xlink:href="#ArialMT-72" x="485.3125"/>
     <use xlink:href="#ArialMT-20" x="518.613281"/>
     <use xlink:href="#ArialMT-67" x="546.396484"/>
     <use xlink:href="#ArialMT-65" x="602.011719"/>
     <use xlink:href="#ArialMT-6e" x="657.626953"/>
     <use xlink:href="#ArialMT-72" x="713.242188"/>
     <use xlink:href="#ArialMT-65" x="746.542969"/>
     <use xlink:href="#ArialMT-73" x="802.158203"/>
     <use xlink:href="#ArialMT-20" x="852.158203"/>
     <use xlink:href="#ArialMT-69" x="879.941406"/>
     <use xlink:href="#ArialMT-6e" x="902.158203"/>
     <use xlink:href="#ArialMT-20" x="957.773438"/>
     <use xlink:href="#ArialMT-63" x="985.556641"/>
     <use xlink:href="#ArialMT-61" x="1035.556641"/>
     <use xlink:href="#ArialMT-74" x="1091.171875"/>
     <use xlink:href="#ArialMT-20" x="1118.955078"/>
     <use xlink:href="#ArialMT-34" x="1146.738281"/>
     <use xlink:href="#ArialMT-5f" x="1202.353516"/>
     <use xlink:href="#ArialMT-61" x="1257.96875"/>
     <use xlink:href="#ArialMT-6c" x="1313.583984"/>
     <use xlink:href="#ArialMT-6c" x="1335.800781"/>
     <use xlink:href="#ArialMT-20" x="1358.017578"/>
     <use xlink:href="#ArialMT-5f" x="1385.800781"/>
     <use xlink:href="#ArialMT-5b" x="1441.416016"/>
     <use xlink:href="#ArialMT-27" x="1469.199219"/>
     <use xlink:href="#ArialMT-47" x="1488.291016"/>
     <use xlink:href="#ArialMT-65" x="1566.074219"/>
     <use xlink:href="#ArialMT-72" x="1621.689453"/>
     <use xlink:href="#ArialMT-6d" x="1654.990234"/>
     <use xlink:href="#ArialMT-61" x="1738.291016"/>
     <use xlink:href="#ArialMT-6e" x="1793.90625"/>
     <use xlink:href="#ArialMT-79" x="1849.521484"/>
     <use xlink:href="#ArialMT-27" x="1899.521484"/>
     <use xlink:href="#ArialMT-5d" x="1918.613281"/>
     <use xlink:href="#ArialMT-20" x="1946.396484"/>
     <use xlink:href="#ArialMT-20" x="1974.179688"/>
     <use xlink:href="#ArialMT-61" x="2001.962891"/>
     <use xlink:href="#ArialMT-62" x="2057.578125"/>
     <use xlink:href="#ArialMT-6f" x="2113.193359"/>
     <use xlink:href="#ArialMT-76" x="2168.808594"/>
     <use xlink:href="#ArialMT-65" x="2218.808594"/>
     <use xlink:href="#ArialMT-20" x="2274.423828"/>
     <use xlink:href="#ArialMT-74" x="2302.207031"/>
     <use xlink:href="#ArialMT-68" x="2329.990234"/>
     <use xlink:href="#ArialMT-72" x="2385.605469"/>
     <use xlink:href="#ArialMT-65" x="2418.90625"/>
     <use xlink:href="#ArialMT-73" x="2474.521484"/>
     <use xlink:href="#ArialMT-68" x="2524.521484"/>
     <use xlink:href="#ArialMT-6f" x="2580.136719"/>
     <use xlink:href="#ArialMT-6c" x="2635.751953"/>
     <use xlink:href="#ArialMT-64" x="2657.96875"/>
     <use xlink:href="#ArialMT-20" x="2713.583984"/>
     <use xlink:href="#ArialMT-3d" x="2741.367188"/>
     <use xlink:href="#ArialMT-20" x="2799.765625"/>
     <use xlink:href="#ArialMT-30" x="2827.548828"/>
     <use xlink:href="#ArialMT-2e" x="2883.164062"/>
     <use xlink:href="#ArialMT-30" x="2910.947266"/>
     <use xlink:href="#ArialMT-35" x="2966.5625"/>
     <use xlink:href="#ArialMT-20" x="3022.177734"/>
     <use xlink:href="#ArialMT-6f" x="3049.960938"/>
     <use xlink:href="#ArialMT-66" x="3105.576172"/>
     <use xlink:href="#ArialMT-20" x="3133.359375"/>
     <use xlink:href="#ArialMT-74" x="3161.142578"/>
     <use xlink:href="#ArialMT-6f" x="3188.925781"/>
     <use xlink:href="#ArialMT-74" x="3244.541016"/>
     <use xlink:href="#ArialMT-61" x="3272.324219"/>
     <use xlink:href="#ArialMT-6c" x="3327.939453"/>
     <use xlink:href="#ArialMT-20" x="3350.15625"/>
     <use xlink:href="#ArialMT-3d" x="3377.939453"/>
     <use xlink:href="#ArialMT-20" x="3436.337891"/>
     <use xlink:href="#ArialMT-31" x="3464.121094"/>
     <use xlink:href="#ArialMT-35" x="3519.736328"/>
     <use xlink:href="#ArialMT-32" x="3575.351562"/>
     <use xlink:href="#ArialMT-32" x="3630.966797"/>
     <use xlink:href="#ArialMT-30" x="3686.582031"/>
     <use xlink:href="#ArialMT-2e" x="3742.197266"/>
     <use xlink:href="#ArialMT-30" x="3769.980469"/>
     <use xlink:href="#ArialMT-20" x="3825.595703"/>
     <use xlink:href="#ArialMT-66" x="3853.378906"/>
     <use xlink:href="#ArialMT-6f" x="3881.162109"/>
     <use xlink:href="#ArialMT-72" x="3936.777344"/>
     <use xlink:href="#ArialMT-20" x="3970.078125"/>
     <use xlink:href="#ArialMT-70" x="3997.861328"/>
     <use xlink:href="#ArialMT-6c" x="4053.476562"/>
     <use xlink:href="#ArialMT-61" x="4075.693359"/>
     <use xlink:href="#ArialMT-74" x="4131.308594"/>
     <use xlink:href="#ArialMT-66" x="4159.091797"/>
     <use xlink:href="#ArialMT-6f" x="4186.875"/>
     <use xlink:href="#ArialMT-72" x="4242.490234"/>
     <use xlink:href="#ArialMT-6d" x="4275.791016"/>
     <use xlink:href="#ArialMT-73" x="4359.091797"/>
     <use xlink:href="#ArialMT-20" x="4409.091797"/>
     <use xlink:href="#ArialMT-5b" x="4436.875"/>
     <use xlink:href="#ArialMT-27" x="4464.658203"/>
     <use xlink:href="#ArialMT-41" x="4483.75"/>
     <use xlink:href="#ArialMT-74" x="4550.449219"/>
     <use xlink:href="#ArialMT-61" x="4578.232422"/>
     <use xlink:href="#ArialMT-72" x="4633.847656"/>
     <use xlink:href="#ArialMT-69" x="4667.148438"/>
     <use xlink:href="#ArialMT-27" x="4689.365234"/>
     <use xlink:href="#ArialMT-2c" x="4708.457031"/>
     <use xlink:href="#ArialMT-20" x="4736.240234"/>
     <use xlink:href="#ArialMT-27" x="4764.023438"/>
     <use xlink:href="#ArialMT-41" x="4783.115234"/>
     <use xlink:href="#ArialMT-74" x="4849.814453"/>
     <use xlink:href="#ArialMT-61" x="4877.597656"/>
     <use xlink:href="#ArialMT-72" x="4933.212891"/>
     <use xlink:href="#ArialMT-69" x="4966.513672"/>
     <use xlink:href="#ArialMT-20" x="4988.730469"/>
     <use xlink:href="#ArialMT-53" x="5016.513672"/>
     <use xlink:href="#ArialMT-54" x="5083.212891"/>
     <use xlink:href="#ArialMT-27" x="5144.296875"/>
     <use xlink:href="#ArialMT-2c" x="5163.388672"/>
     <use xlink:href="#ArialMT-20" x="5191.171875"/>
     <use xlink:href="#ArialMT-27" x="5218.955078"/>
     <use xlink:href="#ArialMT-4e" x="5238.046875"/>
     <use xlink:href="#ArialMT-45" x="5310.263672"/>
     <use xlink:href="#ArialMT-53" x="5376.962891"/>
     <use xlink:href="#ArialMT-27" x="5443.662109"/>
     <use xlink:href="#ArialMT-2c" x="5462.753906"/>
     <use xlink:href="#ArialMT-20" x="5490.537109"/>
     <use xlink:href="#ArialMT-27" x="5518.320312"/>
     <use xlink:href="#ArialMT-47" x="5537.412109"/>
     <use xlink:href="#ArialMT-65" x="5615.195312"/>
     <use xlink:href="#ArialMT-6e" x="5670.810547"/>
     <use xlink:href="#ArialMT-65" x="5726.425781"/>
     <use xlink:href="#ArialMT-73" x="5782.041016"/>
     <use xlink:href="#ArialMT-69" x="5832.041016"/>
     <use xlink:href="#ArialMT-73" x="5854.257812"/>
     <use xlink:href="#ArialMT-27" x="5904.257812"/>
     <use xlink:href="#ArialMT-2c" x="5923.349609"/>
     <use xlink:href="#ArialMT-20" x="5951.132812"/>
     <use xlink:href="#ArialMT-27" x="5978.916016"/>
     <use xlink:href="#ArialMT-53" x="5998.007812"/>
     <use xlink:href="#ArialMT-4e" x="6064.707031"/>
     <use xlink:href="#ArialMT-45" x="6136.923828"/>
     <use xlink:href="#ArialMT-53" x="6203.623047"/>
     <use xlink:href="#ArialMT-27" x="6270.322266"/>
     <use xlink:href="#ArialMT-2c" x="6289.414062"/>
     <use xlink:href="#ArialMT-20" x="6317.197266"/>
     <use xlink:href="#ArialMT-27" x="6344.980469"/>
     <use xlink:href="#ArialMT-50" x="6364.072266"/>
     <use xlink:href="#ArialMT-6c" x="6430.771484"/>
     <use xlink:href="#ArialMT-61" x="6452.988281"/>
     <use xlink:href="#ArialMT-79" x="6508.603516"/>
     <use xlink:href="#ArialMT-53" x="6558.603516"/>
     <use xlink:href="#ArialMT-74" x="6625.302734"/>
     <use xlink:href="#ArialMT-61" x="6653.085938"/>
     <use xlink:href="#ArialMT-74" x="6708.701172"/>
     <use xlink:href="#ArialMT-69" x="6736.484375"/>
     <use xlink:href="#ArialMT-6f" x="6758.701172"/>
     <use xlink:href="#ArialMT-6e" x="6814.316406"/>
     <use xlink:href="#ArialMT-27" x="6869.931641"/>
     <use xlink:href="#ArialMT-2c" x="6889.023438"/>
     <use xlink:href="#ArialMT-20" x="6916.806641"/>
     <use xlink:href="#ArialMT-27" x="6944.589844"/>
     <use xlink:href="#ArialMT-53" x="6963.681641"/>
     <use xlink:href="#ArialMT-45" x="7030.380859"/>
     <use xlink:href="#ArialMT-47" x="7097.080078"/>
     <use xlink:href="#ArialMT-41" x="7174.863281"/>
     <use xlink:href="#ArialMT-20" x="7236.0625"/>
     <use xlink:href="#ArialMT-53" x="7263.845703"/>
     <use xlink:href="#ArialMT-61" x="7330.544922"/>
     <use xlink:href="#ArialMT-74" x="7386.160156"/>
     <use xlink:href="#ArialMT-75" x="7413.943359"/>
     <use xlink:href="#ArialMT-72" x="7469.558594"/>
     <use xlink:href="#ArialMT-6e" x="7502.859375"/>
     <use xlink:href="#ArialMT-27" x="7558.474609"/>
     <use xlink:href="#ArialMT-2c" x="7577.566406"/>
     <use xlink:href="#ArialMT-20" x="7605.349609"/>
     <use xlink:href="#ArialMT-27" x="7633.132812"/>
     <use xlink:href="#ArialMT-50" x="7652.224609"/>
     <use xlink:href="#ArialMT-6c" x="7718.923828"/>
     <use xlink:href="#ArialMT-61" x="7741.140625"/>
     <use xlink:href="#ArialMT-79" x="7796.755859"/>
     <use xlink:href="#ArialMT-53" x="7846.755859"/>
     <use xlink:href="#ArialMT-74" x="7913.455078"/>
     <use xlink:href="#ArialMT-61" x="7941.238281"/>
     <use xlink:href="#ArialMT-74" x="7996.853516"/>
     <use xlink:href="#ArialMT-69" x="8024.636719"/>
     <use xlink:href="#ArialMT-6f" x="8046.853516"/>
     <use xlink:href="#ArialMT-6e" x="8102.46875"/>
     <use xlink:href="#ArialMT-20" x="8158.083984"/>
     <use xlink:href="#ArialMT-32" x="8185.867188"/>
     <use xlink:href="#ArialMT-27" x="8241.482422"/>
     <use xlink:href="#ArialMT-2c" x="8260.574219"/>
     <use xlink:href="#ArialMT-20" x="8288.357422"/>
     <use xlink:href="#ArialMT-27" x="8316.140625"/>
     <use xlink:href="#ArialMT-58" x="8335.232422"/>
     <use xlink:href="#ArialMT-62" x="8401.931641"/>
     <use xlink:href="#ArialMT-6f" x="8457.546875"/>
     <use xlink:href="#ArialMT-78" x="8513.162109"/>
     <use xlink:href="#ArialMT-27" x="8563.162109"/>
     <use xlink:href="#ArialMT-2c" x="8582.253906"/>
     <use xlink:href="#ArialMT-20" x="8610.037109"/>
     <use xlink:href="#ArialMT-27" x="8637.820312"/>
     <use xlink:href="#ArialMT-50" x="8656.912109"/>
     <use xlink:href="#ArialMT-6c" x="8723.611328"/>
     <use xlink:href="#ArialMT-61" x="8745.828125"/>
     <use xlink:href="#ArialMT-79" x="8801.443359"/>
     <use xlink:href="#ArialMT-53" x="8851.443359"/>
     <use xlink:href="#ArialMT-74" x="8918.142578"/>
     <use xlink:href="#ArialMT-61" x="8945.925781"/>
     <use xlink:href="#ArialMT-74" x="9001.541016"/>
     <use xlink:href="#ArialMT-69" x="9029.324219"/>
     <use xlink:href="#ArialMT-6f" x="9051.541016"/>
     <use xlink:href="#ArialMT-6e" x="9107.15625"/>
     <use xlink:href="#ArialMT-20" x="9162.771484"/>
     <use xlink:href="#ArialMT-33" x="9190.554688"/>
     <use xlink:href="#ArialMT-27" x="9246.169922"/>
     <use xlink:href="#ArialMT-2c" x="9265.261719"/>
     <use xlink:href="#ArialMT-20" x="9293.044922"/>
     <use xlink:href="#ArialMT-27" x="9320.828125"/>
     <use xlink:href="#ArialMT-58" x="9339.919922"/>
     <use xlink:href="#ArialMT-62" x="9406.619141"/>
     <use xlink:href="#ArialMT-6f" x="9462.234375"/>
     <use xlink:href="#ArialMT-78" x="9517.849609"/>
     <use xlink:href="#ArialMT-20" x="9567.849609"/>
     <use xlink:href="#ArialMT-33" x="9595.632812"/>
     <use xlink:href="#ArialMT-36" x="9651.248047"/>
     <use xlink:href="#ArialMT-30" x="9706.863281"/>
     <use xlink:href="#ArialMT-27" x="9762.478516"/>
     <use xlink:href="#ArialMT-2c" x="9781.570312"/>
     <use xlink:href="#ArialMT-20" x="9809.353516"/>
     <use xlink:href="#ArialMT-27" x="9837.136719"/>
     <use xlink:href="#ArialMT-57" x="9856.228516"/>
     <use xlink:href="#ArialMT-69" x="9950.613281"/>
     <use xlink:href="#ArialMT-69" x="9972.830078"/>
     <use xlink:href="#ArialMT-27" x="9995.046875"/>
     <use xlink:href="#ArialMT-2c" x="10014.138672"/>
     <use xlink:href="#ArialMT-20" x="10041.921875"/>
     <use xlink:href="#ArialMT-27" x="10069.705078"/>
     <use xlink:href="#ArialMT-50" x="10088.796875"/>
     <use xlink:href="#ArialMT-6c" x="10155.496094"/>
     <use xlink:href="#ArialMT-61" x="10177.712891"/>
     <use xlink:href="#ArialMT-79" x="10233.328125"/>
     <use xlink:href="#ArialMT-53" x="10283.328125"/>
     <use xlink:href="#ArialMT-74" x="10350.027344"/>
     <use xlink:href="#ArialMT-61" x="10377.810547"/>
     <use xlink:href="#ArialMT-74" x="10433.425781"/>
     <use xlink:href="#ArialMT-69" x="10461.208984"/>
     <use xlink:href="#ArialMT-6f" x="10483.425781"/>
     <use xlink:href="#ArialMT-6e" x="10539.041016"/>
     <use xlink:href="#ArialMT-20" x="10594.65625"/>
     <use xlink:href="#ArialMT-34" x="10622.439453"/>
     <use xlink:href="#ArialMT-27" x="10678.054688"/>
     <use xlink:href="#ArialMT-2c" x="10697.146484"/>
     <use xlink:href="#ArialMT-20" x="10724.929688"/>
     <use xlink:href="#ArialMT-27" x="10752.712891"/>
     <use xlink:href="#ArialMT-57" x="10771.804688"/>
     <use xlink:href="#ArialMT-69" x="10866.189453"/>
     <use xlink:href="#ArialMT-69" x="10888.40625"/>
     <use xlink:href="#ArialMT-20" x="10910.623047"/>
     <use xlink:href="#ArialMT-55" x="10938.40625"/>
     <use xlink:href="#ArialMT-27" x="11010.623047"/>
     <use xlink:href="#ArialMT-2c" x="11029.714844"/>
     <use xlink:href="#ArialMT-20" x="11057.498047"/>
     <use xlink:href="#ArialMT-27" x="11085.28125"/>
     <use xlink:href="#ArialMT-4e" x="11104.373047"/>
     <use xlink:href="#ArialMT-69" x="11176.589844"/>
     <use xlink:href="#ArialMT-6e" x="11198.806641"/>
     <use xlink:href="#ArialMT-74" x="11254.421875"/>
     <use xlink:href="#ArialMT-65" x="11282.205078"/>
     <use xlink:href="#ArialMT-6e" x="11337.820312"/>
     <use xlink:href="#ArialMT-64" x="11393.435547"/>
     <use xlink:href="#ArialMT-6f" x="11449.050781"/>
     <use xlink:href="#ArialMT-20" x="11504.666016"/>
     <use xlink:href="#ArialMT-53" x="11532.449219"/>
     <use xlink:href="#ArialMT-77" x="11599.148438"/>
     <use xlink:href="#ArialMT-69" x="11671.365234"/>
     <use xlink:href="#ArialMT-74" x="11693.582031"/>
     <use xlink:href="#ArialMT-63" x="11721.365234"/>
     <use xlink:href="#ArialMT-68" x="11771.365234"/>
     <use xlink:href="#ArialMT-27" x="11826.980469"/>
     <use xlink:href="#ArialMT-2c" x="11846.072266"/>
     <use xlink:href="#ArialMT-20" x="11873.855469"/>
     <use xlink:href="#ArialMT-27" x="11901.638672"/>
     <use xlink:href="#ArialMT-44" x="11920.730469"/>
     <use xlink:href="#ArialMT-4f" x="11992.947266"/>
     <use xlink:href="#ArialMT-53" x="12070.730469"/>
     <use xlink:href="#ArialMT-27" x="12137.429688"/>
     <use xlink:href="#ArialMT-2c" x="12156.521484"/>
     <use xlink:href="#ArialMT-20" x="12184.304688"/>
     <use xlink:href="#ArialMT-27" x="12212.087891"/>
     <use xlink:href="#ArialMT-50" x="12231.179688"/>
     <use xlink:href="#ArialMT-43" x="12297.878906"/>
     <use xlink:href="#ArialMT-2d" x="12370.095703"/>
     <use xlink:href="#ArialMT-38" x="12403.396484"/>
     <use xlink:href="#ArialMT-38" x="12459.011719"/>
     <use xlink:href="#ArialMT-27" x="12514.626953"/>
     <use xlink:href="#ArialMT-2c" x="12533.71875"/>
     <use xlink:href="#ArialMT-20" x="12561.501953"/>
     <use xlink:href="#ArialMT-27" x="12589.285156"/>
     <use xlink:href="#ArialMT-4d" x="12608.376953"/>
     <use xlink:href="#ArialMT-53" x="12691.677734"/>
     <use xlink:href="#ArialMT-58" x="12758.376953"/>
     <use xlink:href="#ArialMT-27" x="12825.076172"/>
     <use xlink:href="#ArialMT-2c" x="12844.167969"/>
     <use xlink:href="#ArialMT-20" x="12871.951172"/>
     <use xlink:href="#ArialMT-27" x="12899.734375"/>
     <use xlink:href="#ArialMT-41" x="12918.826172"/>
     <use xlink:href="#ArialMT-6d" x="12985.525391"/>
     <use xlink:href="#ArialMT-69" x="13068.826172"/>
     <use xlink:href="#ArialMT-67" x="13091.042969"/>
     <use xlink:href="#ArialMT-61" x="13146.658203"/>
     <use xlink:href="#ArialMT-27" x="13202.273438"/>
     <use xlink:href="#ArialMT-2c" x="13221.365234"/>
     <use xlink:href="#ArialMT-20" x="13249.148438"/>
     <use xlink:href="#ArialMT-27" x="13276.931641"/>
     <use xlink:href="#ArialMT-43" x="13296.023438"/>
     <use xlink:href="#ArialMT-6f" x="13368.240234"/>
     <use xlink:href="#ArialMT-6d" x="13423.855469"/>
     <use xlink:href="#ArialMT-6d" x="13507.15625"/>
     <use xlink:href="#ArialMT-6f" x="13590.457031"/>
     <use xlink:href="#ArialMT-64" x="13646.072266"/>
     <use xlink:href="#ArialMT-6f" x="13701.6875"/>
     <use xlink:href="#ArialMT-72" x="13757.302734"/>
     <use xlink:href="#ArialMT-65" x="13790.603516"/>
     <use xlink:href="#ArialMT-20" x="13846.21875"/>
     <use xlink:href="#ArialMT-36" x="13874.001953"/>
     <use xlink:href="#ArialMT-34" x="13929.617188"/>
     <use xlink:href="#ArialMT-27" x="13985.232422"/>
     <use xlink:href="#ArialMT-2c" x="14004.324219"/>
     <use xlink:href="#ArialMT-20" x="14032.107422"/>
     <use xlink:href="#ArialMT-27" x="14059.890625"/>
     <use xlink:href="#ArialMT-53" x="14078.982422"/>
     <use xlink:href="#ArialMT-68" x="14145.681641"/>
     <use xlink:href="#ArialMT-61" x="14201.296875"/>
     <use xlink:href="#ArialMT-72" x="14256.912109"/>
     <use xlink:href="#ArialMT-70" x="14290.212891"/>
     <use xlink:href="#ArialMT-20" x="14345.828125"/>
     <use xlink:href="#ArialMT-58" x="14373.611328"/>
     <use xlink:href="#ArialMT-36" x="14440.310547"/>
     <use xlink:href="#ArialMT-38" x="14495.925781"/>
     <use xlink:href="#ArialMT-30" x="14551.541016"/>
     <use xlink:href="#ArialMT-30" x="14607.15625"/>
     <use xlink:href="#ArialMT-30" x="14662.771484"/>
     <use xlink:href="#ArialMT-27" x="14718.386719"/>
     <use xlink:href="#ArialMT-2c" x="14737.478516"/>
     <use xlink:href="#ArialMT-20" x="14765.261719"/>
     <use xlink:href="#ArialMT-27" x="14793.044922"/>
     <use xlink:href="#ArialMT-57" x="14812.136719"/>
     <use xlink:href="#ArialMT-69" x="14906.521484"/>
     <use xlink:href="#ArialMT-6e" x="14928.738281"/>
     <use xlink:href="#ArialMT-64" x="14984.353516"/>
     <use xlink:href="#ArialMT-6f" x="15039.96875"/>
     <use xlink:href="#ArialMT-77" x="15095.583984"/>
     <use xlink:href="#ArialMT-73" x="15167.800781"/>
     <use xlink:href="#ArialMT-27" x="15217.800781"/>
     <use xlink:href="#ArialMT-2c" x="15236.892578"/>
     <use xlink:href="#ArialMT-20" x="15264.675781"/>
     <use xlink:href="#ArialMT-27" x="15292.458984"/>
     <use xlink:href="#ArialMT-50" x="15311.550781"/>
     <use xlink:href="#ArialMT-43" x="15378.25"/>
     <use xlink:href="#ArialMT-2d" x="15450.466797"/>
     <use xlink:href="#ArialMT-39" x="15483.767578"/>
     <use xlink:href="#ArialMT-38" x="15539.382812"/>
     <use xlink:href="#ArialMT-27" x="15594.998047"/>
     <use xlink:href="#ArialMT-2c" x="15614.089844"/>
     <use xlink:href="#ArialMT-20" x="15641.873047"/>
     <use xlink:href="#ArialMT-27" x="15669.65625"/>
     <use xlink:href="#ArialMT-46" x="15688.748047"/>
     <use xlink:href="#ArialMT-4d" x="15749.832031"/>
     <use xlink:href="#ArialMT-20" x="15833.132812"/>
     <use xlink:href="#ArialMT-54" x="15859.166016"/>
     <use xlink:href="#ArialMT-6f" x="15909.125"/>
     <use xlink:href="#ArialMT-77" x="15964.740234"/>
     <use xlink:href="#ArialMT-6e" x="16036.957031"/>
     <use xlink:href="#ArialMT-73" x="16092.572266"/>
     <use xlink:href="#ArialMT-27" x="16142.572266"/>
     <use xlink:href="#ArialMT-2c" x="16161.664062"/>
     <use xlink:href="#ArialMT-20" x="16189.447266"/>
     <use xlink:href="#ArialMT-27" x="16217.230469"/>
     <use xlink:href="#ArialMT-4d" x="16236.322266"/>
     <use xlink:href="#ArialMT-61" x="16319.623047"/>
     <use xlink:href="#ArialMT-63" x="16375.238281"/>
     <use xlink:href="#ArialMT-69" x="16425.238281"/>
     <use xlink:href="#ArialMT-6e" x="16447.455078"/>
     <use xlink:href="#ArialMT-74" x="16503.070312"/>
     <use xlink:href="#ArialMT-6f" x="16530.853516"/>
     <use xlink:href="#ArialMT-73" x="16586.46875"/>
     <use xlink:href="#ArialMT-68" x="16636.46875"/>
     <use xlink:href="#ArialMT-27" x="16692.083984"/>
     <use xlink:href="#ArialMT-2c" x="16711.175781"/>
     <use xlink:href="#ArialMT-20" x="16738.958984"/>
     <use xlink:href="#ArialMT-27" x="16766.742188"/>
     <use xlink:href="#ArialMT-47" x="16785.833984"/>
     <use xlink:href="#ArialMT-61" x="16863.617188"/>
     <use xlink:href="#ArialMT-6d" x="16919.232422"/>
     <use xlink:href="#ArialMT-65" x="17002.533203"/>
     <use xlink:href="#ArialMT-20" x="17058.148438"/>
     <use xlink:href="#ArialMT-42" x="17085.931641"/>
     <use xlink:href="#ArialMT-6f" x="17152.630859"/>
     <use xlink:href="#ArialMT-79" x="17208.246094"/>
     <use xlink:href="#ArialMT-20" x="17258.246094"/>
     <use xlink:href="#ArialMT-41" x="17280.529297"/>
     <use xlink:href="#ArialMT-64" x="17347.228516"/>
     <use xlink:href="#ArialMT-76" x="17402.84375"/>
     <use xlink:href="#ArialMT-61" x="17452.84375"/>
     <use xlink:href="#ArialMT-6e" x="17508.458984"/>
     <use xlink:href="#ArialMT-63" x="17564.074219"/>
     <use xlink:href="#ArialMT-65" x="17614.074219"/>
     <use xlink:href="#ArialMT-27" x="17669.689453"/>
     <use xlink:href="#ArialMT-2c" x="17688.78125"/>
     <use xlink:href="#ArialMT-20" x="17716.564453"/>
     <use xlink:href="#ArialMT-27" x="17744.347656"/>
     <use xlink:href="#ArialMT-50" x="17763.439453"/>
     <use xlink:href="#ArialMT-53" x="17830.138672"/>
     <use xlink:href="#ArialMT-50" x="17896.837891"/>
     <use xlink:href="#ArialMT-27" x="17963.537109"/>
     <use xlink:href="#ArialMT-2c" x="17982.628906"/>
     <use xlink:href="#ArialMT-20" x="18010.412109"/>
     <use xlink:href="#ArialMT-27" x="18038.195312"/>
     <use xlink:href="#ArialMT-4e" x="18057.287109"/>
     <use xlink:href="#ArialMT-69" x="18129.503906"/>
     <use xlink:href="#ArialMT-6e" x="18151.720703"/>
     <use xlink:href="#ArialMT-74" x="18207.335938"/>
     <use xlink:href="#ArialMT-65" x="18235.119141"/>
     <use xlink:href="#ArialMT-6e" x="18290.734375"/>
     <use xlink:href="#ArialMT-64" x="18346.349609"/>
     <use xlink:href="#ArialMT-6f" x="18401.964844"/>
     <use xlink:href="#ArialMT-20" x="18457.580078"/>
     <use xlink:href="#ArialMT-44" x="18485.363281"/>
     <use xlink:href="#ArialMT-53" x="18557.580078"/>
     <use xlink:href="#ArialMT-27" x="18624.279297"/>
     <use xlink:href="#ArialMT-2c" x="18643.371094"/>
     <use xlink:href="#ArialMT-20" x="18671.154297"/>
     <use xlink:href="#ArialMT-27" x="18698.9375"/>
     <use xlink:href="#ArialMT-4e" x="18718.029297"/>
     <use xlink:href="#ArialMT-69" x="18790.246094"/>
     <use xlink:href="#ArialMT-6e" x="18812.462891"/>
     <use xlink:href="#ArialMT-74" x="18868.078125"/>
     <use xlink:href="#ArialMT-65" x="18895.861328"/>
     <use xlink:href="#ArialMT-6e" x="18951.476562"/>
     <use xlink:href="#ArialMT-64" x="19007.091797"/>
     <use xlink:href="#ArialMT-6f" x="19062.707031"/>
     <use xlink:href="#ArialMT-20" x="19118.322266"/>
     <use xlink:href="#ArialMT-33" x="19146.105469"/>
     <use xlink:href="#ArialMT-44" x="19201.720703"/>
     <use xlink:href="#ArialMT-53" x="19273.9375"/>
     <use xlink:href="#ArialMT-27" x="19340.636719"/>
     <use xlink:href="#ArialMT-2c" x="19359.728516"/>
     <use xlink:href="#ArialMT-20" x="19387.511719"/>
     <use xlink:href="#ArialMT-27" x="19415.294922"/>
     <use xlink:href="#ArialMT-50" x="19434.386719"/>
     <use xlink:href="#ArialMT-53" x="19501.085938"/>
     <use xlink:href="#ArialMT-20" x="19567.785156"/>
     <use xlink:href="#ArialMT-56" x="19595.568359"/>
     <use xlink:href="#ArialMT-69" x="19660.517578"/>
     <use xlink:href="#ArialMT-74" x="19682.734375"/>
     <use xlink:href="#ArialMT-61" x="19710.517578"/>
     <use xlink:href="#ArialMT-27" x="19766.132812"/>
     <use xlink:href="#ArialMT-2c" x="19785.224609"/>
     <use xlink:href="#ArialMT-20" x="19813.007812"/>
     <use xlink:href="#ArialMT-27" x="19840.791016"/>
     <use xlink:href="#ArialMT-41" x="19859.882812"/>
     <use xlink:href="#ArialMT-72" x="19926.582031"/>
     <use xlink:href="#ArialMT-63" x="19959.882812"/>
     <use xlink:href="#ArialMT-61" x="20009.882812"/>
     <use xlink:href="#ArialMT-64" x="20065.498047"/>
     <use xlink:href="#ArialMT-65" x="20121.113281"/>
     <use xlink:href="#ArialMT-27" x="20176.728516"/>
     <use xlink:href="#ArialMT-5d" x="20195.820312"/>
    </g>
   </g>
   <g id="legend_1">
    <g id="patch_7">
     <path d="M 2645.671875 151.662188 
L 2843.5 151.662188 
Q 2845.7 151.662188 2845.7 149.462188 
L 2845.7 72.5 
Q 2845.7 70.3 2843.5 70.3 
L 2645.671875 70.3 
Q 2643.471875 70.3 2643.471875 72.5 
L 2643.471875 149.462188 
Q 2643.471875 151.662188 2645.671875 151.662188 
z
" style="fill: #eaeaf2; opacity: 0.8; stroke: #cccccc; stroke-linejoin: miter"/>
    </g>
    <g id="line2d_58">
     <path d="M 2647.871875 78.857656 
L 2658.871875 78.857656 
L 2669.871875 78.857656 
" style="fill: none; stroke: #4c72b0; stroke-width: 1.5; stroke-linecap: round"/>
    </g>
    <g id="text_54">
     <!-- Managerial / Business Simulation -->
     <g style="fill: #262626" transform="translate(2678.671875 82.707656)scale(0.11 -0.11)">
      <defs>
       <path id="ArialMT-2f" d="M 0 -78 
L 1328 4659 
L 1778 4659 
L 453 -78 
L 0 -78 
z
" transform="scale(0.015625)"/>
      </defs>
      <use xlink:href="#ArialMT-4d"/>
      <use xlink:href="#ArialMT-61" x="83.300781"/>
      <use xlink:href="#ArialMT-6e" x="138.916016"/>
      <use xlink:href="#ArialMT-61" x="194.53125"/>
      <use xlink:href="#ArialMT-67" x="250.146484"/>
      <use xlink:href="#ArialMT-65" x="305.761719"/>
      <use xlink:href="#ArialMT-72" x="361.376953"/>
      <use xlink:href="#ArialMT-69" x="394.677734"/>
      <use xlink:href="#ArialMT-61" x="416.894531"/>
      <use xlink:href="#ArialMT-6c" x="472.509766"/>
      <use xlink:href="#ArialMT-20" x="494.726562"/>
      <use xlink:href="#ArialMT-2f" x="522.509766"/>
      <use xlink:href="#ArialMT-20" x="550.292969"/>
      <use xlink:href="#ArialMT-42" x="578.076172"/>
      <use xlink:href="#ArialMT-75" x="644.775391"/>
      <use xlink:href="#ArialMT-73" x="700.390625"/>
      <use xlink:href="#ArialMT-69" x="750.390625"/>
      <use xlink:href="#ArialMT-6e" x="772.607422"/>
      <use xlink:href="#ArialMT-65" x="828.222656"/>
      <use xlink:href="#ArialMT-73" x="883.837891"/>
      <use xlink:href="#ArialMT-73" x="933.837891"/>
      <use xlink:href="#ArialMT-20" x="983.837891"/>
      <use xlink:href="#ArialMT-53" x="1011.621094"/>
      <use xlink:href="#ArialMT-69" x="1078.320312"/>
      <use xlink:href="#ArialMT-6d" x="1100.537109"/>
      <use xlink:href="#ArialMT-75" x="1183.837891"/>
      <use xlink:href="#ArialMT-6c" x="1239.453125"/>
      <use xlink:href="#ArialMT-61" x="1261.669922"/>
      <use xlink:href="#ArialMT-74" x="1317.285156"/>
      <use xlink:href="#ArialMT-69" x="1345.068359"/>
      <use xlink:href="#ArialMT-6f" x="1367.285156"/>
      <use xlink:href="#ArialMT-6e" x="1422.900391"/>
     </g>
    </g>
    <g id="line2d_59">
     <path d="M 2647.871875 94.546406 
L 2658.871875 94.546406 
L 2669.871875 94.546406 
" style="fill: none; stroke: #dd8452; stroke-width: 1.5; stroke-linecap: round"/>
    </g>
    <g id="text_55">
     <!-- Arcade -->
     <g style="fill: #262626" transform="translate(2678.671875 98.396406)scale(0.11 -0.11)">
      <use xlink:href="#ArialMT-41"/>
      <use xlink:href="#ArialMT-72" x="66.699219"/>
      <use xlink:href="#ArialMT-63" x="100"/>
      <use xlink:href="#ArialMT-61" x="150"/>
      <use xlink:href="#ArialMT-64" x="205.615234"/>
      <use xlink:href="#ArialMT-65" x="261.230469"/>
     </g>
    </g>
    <g id="line2d_60">
     <path d="M 2647.871875 110.10625 
L 2658.871875 110.10625 
L 2669.871875 110.10625 
" style="fill: none; stroke: #55a868; stroke-width: 1.5; stroke-linecap: round"/>
    </g>
    <g id="text_56">
     <!-- Shooter -->
     <g style="fill: #262626" transform="translate(2678.671875 113.95625)scale(0.11 -0.11)">
      <use xlink:href="#ArialMT-53"/>
      <use xlink:href="#ArialMT-68" x="66.699219"/>
      <use xlink:href="#ArialMT-6f" x="122.314453"/>
      <use xlink:href="#ArialMT-6f" x="177.929688"/>
      <use xlink:href="#ArialMT-74" x="233.544922"/>
      <use xlink:href="#ArialMT-65" x="261.328125"/>
      <use xlink:href="#ArialMT-72" x="316.943359"/>
     </g>
    </g>
    <g id="line2d_61">
     <path d="M 2647.871875 125.666094 
L 2658.871875 125.666094 
L 2669.871875 125.666094 
" style="fill: none; stroke: #c44e52; stroke-width: 1.5; stroke-linecap: round"/>
    </g>
    <g id="text_57">
     <!-- Platform -->
     <g style="fill: #262626" transform="translate(2678.671875 129.516094)scale(0.11 -0.11)">
      <use xlink:href="#ArialMT-50"/>
      <use xlink:href="#ArialMT-6c" x="66.699219"/>
      <use xlink:href="#ArialMT-61" x="88.916016"/>
      <use xlink:href="#ArialMT-74" x="144.53125"/>
      <use xlink:href="#ArialMT-66" x="172.314453"/>
      <use xlink:href="#ArialMT-6f" x="200.097656"/>
      <use xlink:href="#ArialMT-72" x="255.712891"/>
      <use xlink:href="#ArialMT-6d" x="289.013672"/>
     </g>
    </g>
    <g id="line2d_62">
     <path d="M 2647.871875 141.225938 
L 2658.871875 141.225938 
L 2669.871875 141.225938 
" style="fill: none; stroke: #8172b3; stroke-width: 1.5; stroke-linecap: round"/>
    </g>
    <g id="text_58">
     <!-- Puzzle elements -->
     <g style="fill: #262626" transform="translate(2678.671875 145.075938)scale(0.11 -0.11)">
      <defs>
       <path id="ArialMT-7a" d="M 125 0 
L 125 456 
L 2238 2881 
Q 1878 2863 1603 2863 
L 250 2863 
L 250 3319 
L 2963 3319 
L 2963 2947 
L 1166 841 
L 819 456 
Q 1197 484 1528 484 
L 3063 484 
L 3063 0 
L 125 0 
z
" transform="scale(0.015625)"/>
      </defs>
      <use xlink:href="#ArialMT-50"/>
      <use xlink:href="#ArialMT-75" x="66.699219"/>
      <use xlink:href="#ArialMT-7a" x="122.314453"/>
      <use xlink:href="#ArialMT-7a" x="172.314453"/>
      <use xlink:href="#ArialMT-6c" x="222.314453"/>
      <use xlink:href="#ArialMT-65" x="244.53125"/>
      <use xlink:href="#ArialMT-20" x="300.146484"/>
      <use xlink:href="#ArialMT-65" x="327.929688"/>
      <use xlink:href="#ArialMT-6c" x="383.544922"/>
      <use xlink:href="#ArialMT-65" x="405.761719"/>
      <use xlink:href="#ArialMT-6d" x="461.376953"/>
      <use xlink:href="#ArialMT-65" x="544.677734"/>
      <use xlink:href="#ArialMT-6e" x="600.292969"/>
      <use xlink:href="#ArialMT-74" x="655.908203"/>
      <use xlink:href="#ArialMT-73" x="683.691406"/>
     </g>
    </g>
   </g>
  </g>
 </g>
 <defs>
  <clipPath id="p34d82cc958">
   <rect x="396" y="64.8" width="2455.2" height="407.7"/>
  </clipPath>
 </defs>
</svg>
